<svg width="207" height="595" viewBox="0 0 207 595" fill="none" xmlns="http://www.w3.org/2000/svg">
<path d="M73.7135 18.0018C70.2549 18.7088 67.9763 19.4731 64.8484 21.1683C63.7921 21.7371 62.5457 22.3347 61.6073 23.1795C61.1332 23.4604 60.737 23.7864 60.4518 24.2803C59.6863 25.6062 59.5349 27.0094 59.5349 27.0094C57.6104 27.7008 56.0081 27.9543 54.7848 28.392C52.7073 29.1684 50.8426 30.657 49.4828 32.4718C49.1947 32.7908 48.9475 33.0987 48.6854 33.4327C47.6588 34.8505 46.413 37.0084 46.6204 38.9307C46.5413 39.1277 46.4773 39.2987 46.3953 39.3207C46.3652 39.3727 46.2982 39.3687 46.2422 39.4057C45.7611 39.5785 45.2869 39.8594 44.8728 40.0363C41.6079 41.5484 39.0626 47.8784 38.8532 48.9015C38.6439 49.9245 38.6356 50.9597 38.4782 52.0128C38.0823 54.8 38.7313 57.8786 38.8163 58.0316C37.4037 59.1573 37.0022 60.6934 37.0357 62.3766C37.0126 62.5366 36.9896 62.6966 37.0075 62.8456C36.896 64.4798 36.9704 66.152 37.265 67.7433C37.5815 69.4166 38.136 71.158 39.0716 72.5995C39.9813 74.026 41.1901 75.1745 42.4399 76.3121L42.4659 76.3271C42.0863 77.9452 42.1696 80.1425 43.0262 81.7809C43.9308 83.5165 45.4614 85.1282 47.0913 86.2078C48.3982 87.0663 49.0742 87.4566 52.0086 87.4176C51.9614 87.9796 52.1152 88.5537 52.3251 89.0909C52.9956 90.6913 53.9018 93.745 57.7659 94.7973C58.785 95.0737 59.6901 95.007 60.7062 95.1083C61.4282 95.1785 62.1243 95.2338 62.7995 94.965C63.3366 94.7551 63.9598 94.4563 64.156 93.8762C64.216 93.7722 64.2501 93.6532 64.2431 93.5452C64.4731 93.7473 65.186 94.1936 65.959 94.5359C67.319 95.1824 68.7979 95.863 70.3241 95.9815C71.1952 96.0338 74.8487 95.8899 75.9083 94.5951C76.2671 95.1143 77.2843 94.9736 77.8654 94.9278C79.2286 94.8482 80.5848 94.6606 81.8571 94.0779C83.7937 93.1854 85.1162 92.2158 85.5239 90.1286C85.629 89.9466 85.7 89.8836 85.5145 88.0434C87.725 87.517 89.7248 85.7944 91.1065 84.0616C95.832 78.1584 95.0415 70.0412 95.7721 62.3514C97.0675 49.0602 101.134 44.7179 104.662 41.9707C107.58 39.7384 111.286 36.9212 111.739 32.9538C112.162 29.2805 108.941 25.792 106.386 23.5539C103.726 21.2558 100.624 19.6036 97.3153 18.4904C89.5742 15.9276 81.548 16.3201 73.6765 17.9458L73.7135 18.0018ZM47.5199 37.6128C47.5079 37.8139 47.4958 38.0149 47.5097 38.2309C47.4808 38.0409 47.4928 37.8399 47.5049 37.6388L47.5349 37.5868L47.5199 37.6128ZM46.981 46.5918L46.977 46.6588L46.955 46.5768L46.981 46.5918ZM49.4445 33.559C49.1973 33.8669 48.9762 34.1899 48.7811 34.5279L48.7511 34.5799C48.9612 34.2159 49.2233 33.8819 49.4705 33.574C49.7476 33.214 50.0658 32.8431 50.3949 32.5131C50.0658 32.8431 49.7886 33.203 49.4705 33.574L49.4445 33.559ZM39.9177 57.3849C39.9177 57.3849 40.0077 57.2289 40.0377 57.1769C40.0377 57.1769 40.0597 57.2589 40.0857 57.2739C40.0557 57.3259 39.9997 57.3629 39.9436 57.3999L39.9177 57.3849ZM47.7459 84.7138C44.2163 82.1214 43.4999 79.9399 43.4265 78.0256C43.3828 76.9605 43.3 76.3234 43.6503 75.4164C43.6972 75.7554 43.7852 76.0835 43.8621 76.3705C44.2148 77.4408 44.7615 78.4151 45.2522 79.4264C45.743 80.4376 46.2227 81.4079 47.1356 82.1083C47.9855 82.7377 48.9295 83.144 49.8845 83.5914C49.9625 83.6364 50.0266 83.4654 49.9746 83.4354C49.1576 82.9291 48.2997 82.4337 47.5688 81.8384C46.7599 81.1981 46.2791 80.4698 45.8773 79.5446C45.4276 78.5223 44.8958 77.522 44.5431 76.4518C44.4072 76.0267 44.2604 75.5606 44.2625 75.0765C44.2486 74.8605 44.2867 74.6745 44.2987 74.4734C44.4939 74.1355 44.704 73.7715 44.9251 73.4485C44.9479 74.1896 45.3727 74.9549 45.7946 75.5451C46.4124 76.4564 46.698 77.5226 47.3718 78.3969C47.9717 79.1592 48.7136 79.7955 49.5865 80.2649C50.1065 80.5651 50.7085 80.8433 51.2826 80.6895C51.3086 80.7045 51.3346 80.7195 51.3756 80.7085C51.4686 80.7275 51.5957 80.6276 51.6407 80.5496C51.7308 80.3936 51.7988 80.1556 51.6469 79.9985C51.117 79.4152 50.8742 78.7551 50.4973 78.0869C49.9836 77.2356 49.5258 76.3474 49.068 75.4591C48.6362 74.5858 48.3835 73.6426 47.9927 72.7584C47.8158 72.3443 47.669 71.8782 47.5891 71.4161C47.5162 71.0621 47.5623 70.742 47.5564 70.392C47.5495 70.284 47.5015 70.1869 47.4795 70.1049C50.8434 65.5994 52.2278 64.9428 56.1775 60.9835C59.7981 57.3543 60.5454 56.7804 66.4666 52.4688C70.7551 49.3638 76.5985 44.106 83.3805 40.4647C86.0343 39.0504 94.6797 35.0636 98.8798 33.4328C93.6403 36.0234 85.1954 38.462 70.4074 54.7093C63.0358 62.794 62.7381 61.9288 56.1265 76.6225C55.446 78.1015 55.3463 77.0733 54.113 80.5904C53.7396 81.6574 53.3292 82.6684 52.9298 83.7204C52.5656 84.4113 52.1713 85.1543 52.086 85.9024C50.5639 85.7169 49.6907 86.1486 47.7979 84.7439L47.7459 84.7138ZM45.9431 73.9669C45.9431 73.9669 45.7611 73.8618 45.7281 73.7388C45.7611 73.8618 45.8501 73.9479 45.9431 73.9669ZM49.8347 79.7149C49.8347 79.7149 49.7527 79.7369 49.7267 79.7219C49.7527 79.7369 49.8087 79.6999 49.8347 79.7149C49.9278 79.7339 50.0248 79.6859 50.0958 79.623C50.0098 79.7119 49.9278 79.7339 49.8347 79.7149ZM45.5914 72.6546C45.5914 72.6546 45.5395 72.6246 45.5285 72.5836C45.5285 72.5836 45.5885 72.4796 45.6185 72.4276C45.5735 72.5056 45.5955 72.5876 45.5764 72.6806L45.5914 72.6546ZM53.9808 84.3618L53.9288 84.3318L53.9588 84.2798C53.9588 84.2798 53.9958 84.3358 54.0068 84.3768L53.9808 84.3618ZM94.7226 57.2044C93.8147 62.9199 94.3967 65.9944 94.0745 69.7948C93.9882 70.7849 94.0098 71.768 94.0165 72.7772C93.4055 78.6987 92.0125 81.2916 90.4547 83.2693C88.4927 85.707 85.96 86.6713 85.3929 86.9332C85.346 86.5941 85.3401 86.2441 85.3082 85.879C85.5133 85.8241 85.7743 85.7322 85.8864 85.6582C86.5956 85.2704 87.3608 84.8455 88.022 84.3607C88.5712 83.9498 89.2065 83.45 89.7077 82.9421C90.2089 82.4342 90.5022 81.8062 90.9774 81.2833C91.0074 81.2313 91.0155 81.0972 90.9184 81.1452C90.4853 81.4151 90.2861 81.8201 89.953 82.217C89.4437 82.859 88.7305 83.3138 88.0952 83.8137C87.516 84.2765 86.7888 84.5153 86.1617 84.8812C85.8966 85.0401 85.5315 85.072 85.2144 85.2009C85.0914 85.2339 84.9944 85.2818 84.9234 85.3448C85.0204 85.2969 85.1174 85.2489 85.2144 85.2009C85.1895 84.9439 85.1906 84.7018 85.1657 84.4448C85.5827 84.4429 86.0869 84.1101 86.393 83.9401C86.9642 83.6113 87.5244 83.2414 88.0586 82.8565C88.6488 82.4347 89.362 81.9798 89.7852 81.4269C90.0924 81.0149 90.3626 80.547 90.7108 80.124C90.9279 79.8681 90.963 79.507 91.012 79.362C91.042 79.31 91.0201 79.228 90.9941 79.213C90.9941 79.213 90.8121 79.1079 90.6891 79.1409C90.6741 79.1669 90.592 79.1889 90.577 79.2149L90.525 79.1848C90.004 79.1267 89.5448 79.3816 89.1117 79.6514C88.5665 79.9953 87.9774 80.1752 87.3322 80.392C86.6051 80.6308 85.9409 80.9406 85.1778 80.8814C85.2318 77.966 85.6038 74.6797 86.2118 71.9456C87.4617 66.3583 87.5872 64.9401 89.6764 59.0401C92.7726 50.2549 94.0785 47.9931 100.204 42.9674C95.8456 48.3547 95.355 53.1671 94.7035 57.2974L94.7226 57.2044ZM85.1706 81.6745C85.1566 81.4584 85.1537 81.2834 85.1738 80.9484C85.1727 81.1904 85.1717 81.4324 85.1706 81.6745ZM85.1695 81.9165C85.1695 81.9165 85.0424 82.0165 84.9864 82.0534C84.8744 82.1274 84.7733 82.2424 84.6833 82.3984C84.6382 82.4764 84.5932 82.5544 84.6002 82.6624C84.6192 82.5694 84.6382 82.4764 84.6833 82.3984C84.7583 82.2684 84.8744 82.1274 84.9864 82.0534C84.9864 82.0534 85.1135 81.9535 85.1695 81.9165ZM84.932 83.4086C84.932 83.4086 84.7819 83.6686 84.7588 83.8286C84.7819 83.6686 84.8569 83.5386 84.932 83.4086ZM103.259 39.1159C102.131 39.9896 101.051 40.9604 99.9592 41.8902C93.8148 47.0089 92.2687 49.6867 89.4378 57.4118C87.1386 63.6758 87.3718 63.1518 85.8144 70.0522C84.9751 73.7274 84.2031 76.5055 84.3209 83.5064C84.372 86.2398 84.5973 88.3111 84.7391 89.0862C84.5828 89.8973 84.6796 90.7504 84.0473 91.4253C82.5055 93.135 80.2061 93.5754 78.1388 93.7337C77.4497 93.7865 76.8206 93.7353 76.1506 93.6951C76.1106 93.464 76.1117 93.222 76.0718 92.991C76.2948 93.085 76.6228 92.9971 76.8279 92.9422C77.592 92.7594 78.3192 92.5206 79.0724 92.2968C79.8516 92.0881 80.5567 91.7672 81.2659 91.3794C81.9492 90.9766 82.5734 90.4357 83.2676 90.0739C83.3646 90.0259 83.3698 89.7169 83.2167 89.8019C81.9704 90.3995 80.9199 91.3183 79.5366 91.7329C78.9065 91.9237 78.2544 92.0325 77.6282 92.1563C77.3412 92.2333 76.502 92.546 76.205 92.3399C76.127 92.2949 76.06 92.2909 75.963 92.3388C75.971 92.2048 75.938 92.0818 75.9461 91.9478C76.2811 91.9679 76.6802 91.817 76.9263 91.7511C77.5824 91.5753 78.2536 91.3735 78.8727 91.1416C80.2901 90.608 81.6964 90.0334 82.7699 88.9546C82.7849 88.9286 82.8669 88.9066 82.9079 88.8956C83.046 88.8367 83.1551 88.5877 83.2082 88.3757C83.2382 88.3237 83.2272 88.2827 83.1902 88.2266C83.1722 88.0776 83.0723 87.9506 82.8973 87.9535C82.1972 87.9653 81.548 88.2491 80.8439 88.3279C80.2478 88.3997 79.6447 88.3635 79.0267 88.3533C78.4496 88.3321 77.8165 88.3479 77.2324 88.2187C76.7934 88.1386 76.3204 88.1774 75.9004 88.0043C76.032 86.0351 76.2826 84.0999 76.6303 82.1168C77.8337 75.2893 78.9834 70.4761 84.2064 59.8684C85.9388 56.3275 87.8941 52.8807 90.1724 49.655C96.9323 40.108 101.144 38.2761 108.592 34.083C107.626 36.0559 105.692 37.1234 103.136 39.1489L103.259 39.1159ZM109.173 32.2349C106.353 33.5182 101.41 36.315 98.2409 38.9223C89.4735 46.0624 83.2008 58.2479 79.0649 68.8939C76.6616 75.0979 73.936 88.4647 75.4874 93.7629C75.4574 93.8148 75.4274 93.8669 75.4124 93.8929C75.3373 94.0228 74.6362 94.2767 74.4721 94.3206C73.898 94.4744 73.3429 94.5353 72.7468 94.6071C70.5485 94.9324 69.2874 94.655 66.4635 93.3019C65.6275 92.8886 64.7655 92.4603 64.3338 91.587C64.3338 91.587 64.3528 91.494 64.3568 91.427C64.1679 91.2139 64.0349 90.9638 64.055 90.6288C64.0609 90.9789 64.1679 91.2139 64.3568 91.427C64.5978 91.6701 64.9097 91.8502 65.2217 92.0304C66.0797 92.5257 66.9827 92.943 67.9497 93.1894C69.7128 93.618 71.6531 93.5596 73.4164 93.0871C73.4984 93.0651 73.5665 92.8271 73.4435 92.8601C71.7522 93.0276 70.0829 93.2771 68.3759 92.8115C67.0518 92.463 65.3348 91.7144 64.6141 90.501C65.2381 90.8612 65.9111 91.0765 66.6142 91.2397C68.8122 91.8155 71.0104 92.3913 73.2259 91.5559C73.5499 91.535 73.7311 90.981 73.5312 90.7269C73.2902 90.4837 73.0592 90.5237 72.7392 90.4776C72.3001 90.3974 71.8611 90.3173 71.4561 90.1181C70.6571 89.7608 69.9442 89.3145 69.1752 88.9052C68.4473 88.485 67.4213 88.1006 66.8544 87.4613C66.5655 87.1212 66.1726 86.721 65.7866 86.4288C66.5846 83.6657 67.5777 80.5647 68.0902 79.1967C69.7818 74.7656 71.9045 70.5488 73.8191 66.2119C74.6768 64.2459 75.5346 62.2799 76.5893 60.393C77.625 58.5991 78.7387 56.8503 79.9564 55.1614C84.494 48.8031 89.8408 42.184 97.7102 37.6799C99.7299 36.5234 101.749 35.3669 103.85 34.4305C107.182 32.9224 107.735 32.4445 109.218 32.1569L109.173 32.2349ZM64.4252 90.2879C64.4252 90.2879 64.4772 90.3179 64.5032 90.3329L64.4252 90.2879ZM84.2943 47.6479C81.64 50.8644 79.0856 54.208 76.8692 57.7468C74.6337 61.3785 73.0372 65.3445 71.2588 69.2054C66.1676 80.3052 66.2995 80.7973 64.2869 87.8855C63.8784 89.3136 63.2155 91.8427 63.3691 93.3179C63.309 93.4219 63.316 93.5299 63.338 93.612C62.4567 94.1777 61.6196 94.0065 60.9236 93.9512C59.8815 93.8349 58.9383 94.0876 56.9243 93.1328C55.7094 92.5354 54.8126 91.567 54.1849 90.3726C52.8965 87.8609 53.1177 87.5379 52.8799 86.5687C52.985 86.3867 53.0901 86.2048 53.1952 86.0228C53.6607 87.6781 55.0254 88.9167 56.3913 89.9133C57.1002 90.4266 57.8392 90.8878 58.6422 91.1781C59.0252 91.2953 59.5602 91.5695 59.9922 91.5416C60.4093 91.5398 60.8304 91.4709 61.2324 91.495C61.2844 91.525 61.3334 91.38 61.2814 91.35C60.9544 91.1959 60.6344 91.1498 60.2584 91.1407C59.7743 91.1385 59.2353 90.9313 58.8153 90.7581C57.9753 90.4118 57.1844 89.9205 56.4945 89.3142C55.7936 88.6669 55.0067 88.1086 54.4779 87.2833C54.256 86.9472 54.0901 86.5741 53.9502 86.216C54.0802 86.2911 54.2361 86.3811 54.3511 86.4822C54.7631 86.7893 55.2801 86.9145 55.7671 87.0917C56.2541 87.2689 56.7371 87.5131 57.2391 87.6642C57.8341 87.8345 58.4332 87.9377 59.0472 88.0149C59.6093 88.0621 60.2054 87.9902 60.7674 88.0374C61.3555 88.0996 62.2076 88.2449 62.3638 87.4339C62.3788 87.4079 62.3829 87.3409 62.3719 87.2998C62.4469 87.1699 62.403 87.0058 62.314 86.9198C61.7981 86.5526 61.203 86.3824 60.586 86.1301C59.757 85.8248 58.9621 85.4005 58.2531 84.8872C57.5962 84.4039 56.9843 83.8427 56.3984 83.2964C55.8755 82.8212 55.2446 82.353 55.0428 81.6818C55.0208 81.5998 54.9838 81.5438 54.9728 81.5028C55.0409 81.2647 55.124 81.0007 55.1961 80.6957C55.2861 80.5397 57.7723 74.9728 58.798 72.8959C61.6653 67.0291 62.7972 64.5281 67.1903 59.6809C67.4074 59.425 74.3096 52.2133 76.1384 50.4266C86.7861 39.9697 93.1637 37.6895 97.4138 35.6716C102.492 33.2999 104.919 31.8585 106.935 31.4281C102.058 33.8118 92.5086 37.6233 84.2533 47.6589L84.2943 47.6479ZM82.0517 39.5241C75.4176 43.3895 70.5756 47.8735 65.2707 51.7783C59.8537 55.7571 59.0724 56.4499 55.0475 60.5391C50.8356 64.8323 50.989 63.8463 46.4264 69.9476C45.9432 70.6045 45.4339 71.2464 44.9766 71.9184C44.3414 72.4182 43.73 73.4171 43.3057 74.2121C42.3979 73.2027 41.4451 72.2712 40.6643 71.1619C39.8576 70.0375 39.2189 68.8021 38.7893 67.4448C38.7413 67.3478 38.7344 67.2398 38.6864 67.1427C38.4237 65.9165 38.1981 64.7463 38.0724 63.7031C38.0654 63.5951 38.0585 63.4871 38.0775 63.3941C38.0639 62.2769 37.9993 60.8877 38.4027 59.7687C38.4177 59.7427 38.4477 59.6907 38.4627 59.6647L38.5077 59.5867C38.7919 59.3348 39.087 59.1239 39.3821 58.9129C39.1929 59.601 39.2826 60.3461 39.3614 61.0502C39.494 62.2014 39.5747 63.3225 39.9124 64.4188C40.2501 65.515 40.6698 66.5893 41.0635 67.6485C41.3763 68.4877 41.7491 69.223 42.3679 69.8922C42.4199 69.9223 42.48 69.8183 42.443 69.7623C41.8062 68.9439 41.6435 67.8448 41.3498 66.9126C41.056 65.9803 40.6953 65.0441 40.4576 64.0749C40.0151 62.2595 39.8227 60.3112 40.1623 58.4621C40.1773 58.4361 40.1923 58.4101 40.1554 58.3541L40.2264 58.2911C40.6336 58.0062 41.0297 57.6803 41.4258 57.3544C40.8962 59.2324 41.9516 61.367 42.7372 63.0685C43.2019 64.0648 43.6817 65.0351 44.0904 66.0683C44.2783 66.5234 44.4811 66.9526 44.8261 67.2557C44.8741 67.3527 44.937 67.4238 44.985 67.5208C45.059 67.6328 45.167 67.6259 45.2681 67.5109C45.4431 67.5079 45.5822 67.2069 45.5082 67.0949C45.5986 66.0378 45.3279 64.9456 45.2432 63.8914C45.1585 62.8373 45.0479 61.7681 44.9372 60.6989C44.7228 58.6686 44.6275 56.6723 44.5881 54.639C53.9578 46.8761 60.1625 44.1147 70.2622 39.6504C80.5559 35.0901 93.2941 30.1386 105.5 29.3514C98.3003 31.4343 87.0173 36.5674 81.9997 39.4941L82.0517 39.5241ZM96.1698 29.0604C87.2269 31.2808 80.2782 33.8899 70.2866 38.3472C53.6051 45.8058 51.9304 47.2655 40.725 56.7071C40.0217 54.0825 39.6916 51.2921 40.2545 48.6359C40.4829 47.5198 40.8453 46.4118 41.3117 45.3638C42.0402 43.9819 42.9548 42.638 44.1282 41.6863C43.8251 42.0312 43.5849 42.4472 43.3788 42.7442C42.8384 43.6801 42.48 44.7211 42.3487 45.7892C42.1873 46.9093 42.1859 48.0524 42.1996 49.1696C42.2202 50.3947 42.1818 51.4819 42.4185 52.6931C42.4514 52.8161 42.5935 52.6902 42.5715 52.6081C42.4649 51.472 42.6522 50.3669 42.6796 49.2388C42.6989 48.2446 42.7183 47.2505 42.8456 46.2494C42.992 45.1554 43.2313 44.0803 43.8387 43.1484C44.0338 42.8104 44.2919 42.5434 44.55 42.2765C44.6438 42.9546 44.8827 43.6818 45.0625 44.2709C45.3083 45.1061 45.543 45.9003 45.8038 46.7094C46.0426 47.4366 46.2624 48.2568 46.8332 48.829C47.2412 49.2032 47.5685 48.4562 47.4956 48.1022C47.6577 47.6411 47.6489 47.1161 47.7441 46.6511C47.9725 45.535 48.1488 44.3889 48.4442 43.2769C48.7206 42.2578 49.083 41.1498 49.5564 40.2098C49.8306 39.6748 50.4698 39.108 50.547 38.4939C51.9794 37.9343 52.7695 37.7665 54.698 37.0081C56.5035 36.2825 57.3328 35.6867 61.0565 34.8208C66.4316 33.5564 68.8356 31.3739 81.4408 29.5347C90.2603 28.2484 90.7312 28.6936 95.385 28.018C98.7496 27.534 100.714 27.0736 103.634 27.7196C103.012 27.7764 97.8061 28.6878 96.1548 29.0864L96.1698 29.0604ZM102.963 25.4601C101.106 25.2545 99.2203 25.5179 97.376 25.7703C88.6275 26.9937 87.4074 26.7053 83.6097 27.4591C74.0279 29.3453 74.9283 28.6865 63.0834 32.8712C60.9949 33.6067 58.7775 34.025 56.722 34.8835C51.8647 36.9322 50.9446 37.0249 48.6309 38.1503C48.7711 37.6072 48.7403 37.0002 48.8955 36.4312C49.0888 35.6761 49.215 34.9171 49.5123 34.2221C49.7155 33.7501 49.9556 33.3341 50.2218 32.9331C50.2668 32.8551 50.2968 32.8031 50.3679 32.7402C50.9482 32.0353 51.6434 31.4314 52.3867 30.9246C52.3567 30.9766 52.3267 31.0286 52.3117 31.0546C51.307 32.5544 50.2233 34.2513 50.2037 36.1465C50.1957 36.2805 50.3598 36.2366 50.4048 36.1586C50.9363 34.6976 51.4448 33.3966 52.3033 32.0897C52.6745 31.5067 53.0988 30.7118 53.6711 30.1409C53.8802 30.0189 54.1152 29.912 54.3093 29.816C53.9941 30.362 53.7308 30.938 53.6998 31.232C53.6185 31.9131 53.5783 32.5832 53.5641 33.2682C53.5469 33.7783 53.2706 34.7973 53.8466 35.0606C53.9506 35.1206 54.0926 34.9946 54.1526 34.8906C54.9361 33.7137 55.6416 32.4918 56.3731 31.2849C56.7033 30.7129 57.0485 30.115 57.4048 29.558C57.5399 29.324 57.9781 28.7451 58.3453 28.2291C65.1549 25.921 71.9602 24.5811 79.1115 23.3022C81.2729 22.9208 88.2679 22.453 89.5271 22.3134C91.3674 22.128 92.7306 22.0484 96.2297 23.1326C99.0558 24.0016 100.731 24.1022 102.978 25.4341L102.963 25.4601ZM93.0692 20.4413C91.774 20.2828 90.7309 20.4085 89.2666 20.6031C87.5454 20.8226 81.7795 21.2028 79.316 21.687C73.3009 22.8593 67.5307 24.2076 61.6694 25.9539C61.6735 25.8869 61.6515 25.8049 61.6705 25.7119C61.6906 25.3768 61.7627 25.0718 61.8758 24.7558C61.974 24.4658 62.1131 24.1648 62.2782 23.8788C62.6333 23.5639 63.0255 23.305 63.3876 23.0981C63.0094 23.573 62.6682 24.104 62.539 24.688C62.5049 24.807 62.6239 24.8411 62.695 24.7781C63.2042 24.1362 63.7215 23.3603 64.3198 22.8044C64.5479 22.5894 64.813 22.4305 65.0781 22.2715C65.2161 22.2126 65.3282 22.1386 65.4662 22.0797C65.4721 22.4297 65.6119 22.7878 65.8229 23.0829C65.9708 23.307 66.2188 23.6581 66.5428 23.6372C66.6168 23.7492 66.7618 23.7983 66.9749 23.6093C67.4461 23.1534 67.7283 22.4844 68.0695 21.9535C68.3097 21.5375 68.7619 21.1746 68.9651 20.7026C69.0061 20.6916 69.0471 20.6806 69.1291 20.6586C69.3601 20.6187 69.5652 20.5638 69.7962 20.5238C69.7362 20.6278 69.6761 20.7318 69.6161 20.8358C69.3759 21.2518 69.1358 21.6678 69.0666 22.1478C69.0124 22.6018 69.5005 22.537 69.5767 22.165C69.6828 21.741 69.893 21.377 70.1291 21.028C70.2492 20.82 70.4513 20.5901 70.5863 20.3561C70.8994 20.2942 71.2275 20.2062 71.5665 20.1593C71.5215 20.2373 71.4765 20.3153 71.4314 20.3933C71.2173 20.8243 70.9991 21.3223 70.9559 21.8174C70.9289 22.0444 71.1819 22.0865 71.261 21.8895C71.4341 21.4695 71.5923 21.0755 71.7914 20.6705C71.9115 20.4625 72.0316 20.2545 72.1517 20.0465C72.5057 19.9736 72.8598 19.9008 73.2139 19.8279C73.1839 19.8799 73.1689 19.9058 73.1538 19.9318C73.0217 20.3409 72.9265 20.8059 72.6494 21.1658C72.5183 21.3328 72.6622 21.6239 72.8753 21.4349C73.2004 21.172 73.3586 20.778 73.4907 20.369C73.5588 20.131 73.6529 19.908 73.747 19.685C74.3321 19.5722 74.9172 19.4593 75.4873 19.3725C75.4573 19.4245 75.4272 19.4765 75.3972 19.5285C75.2391 19.9225 75.0399 20.3275 74.8298 20.6915C74.6947 20.9254 74.8946 21.1795 75.0707 20.9346C75.3179 20.6266 75.502 20.2476 75.6711 19.8946C75.7762 19.7126 75.8963 19.5047 75.9644 19.2667C76.5345 19.1798 77.1046 19.093 77.7007 19.0212C77.6406 19.1252 77.5806 19.2292 77.5506 19.2812C77.3855 19.5671 77.3394 19.8872 77.3193 20.2222C77.3032 20.4903 77.6053 20.3873 77.6583 20.1753C77.7004 19.9223 77.7835 19.6583 77.9186 19.4243C78.0087 19.2683 78.1397 19.1013 78.2038 18.9303C78.7999 18.8585 79.422 18.8017 80.0181 18.7299C79.958 18.8339 79.883 18.9639 79.823 19.0679C79.6428 19.3799 79.4777 19.6658 79.3236 19.9928C79.2445 20.1898 79.4745 20.3919 79.6096 20.1579C79.8047 19.82 80.0518 19.512 80.2579 19.215C80.348 19.059 80.4791 18.892 80.5582 18.6951C81.2883 18.6313 82.0034 18.5935 82.7295 18.5967C82.5794 18.8567 82.4813 19.1467 82.3312 19.4067C82.2261 19.5887 82.4 19.8278 82.5611 19.6088C82.7562 19.2708 82.9514 18.9329 83.1055 18.6059C83.9656 18.6171 84.8257 18.6284 85.6558 18.6917C85.5357 18.8997 85.3966 19.2007 85.1615 19.3076C84.9825 19.3775 84.8613 19.8276 85.1744 19.7657C85.5134 19.7188 85.7496 19.3698 85.8997 19.1098C85.9747 18.9798 86.0498 18.8498 86.1249 18.7198C86.6459 18.778 87.1669 18.8362 87.688 18.8944C87.643 18.9723 87.5829 19.0764 87.5119 19.1393C87.3398 19.3173 87.4497 19.7274 87.7188 19.5015C87.8759 19.3495 88.0479 19.1715 88.194 18.9785C89.8721 19.2541 91.5122 19.7157 93.1142 20.3633L93.0692 20.4413Z" fill="#C29A6A" fill-opacity="0.24"/>
<path d="M46.4747 55.0373C46.4747 55.0373 46.2177 55.0622 46.1987 55.1552C45.9854 56.2451 46.207 57.4821 46.3846 58.5551C46.5293 59.5051 46.7 60.4702 47.2847 61.2583C47.3587 61.3703 47.4487 61.2144 47.4527 61.1474C47.4571 60.1794 47.0334 59.1723 46.8887 58.2223C46.763 57.1793 46.8614 55.9884 46.4638 54.9963L46.4747 55.0373Z" fill="#C29A6A" fill-opacity="0.24"/>
<path d="M48.6246 53.6452C48.6246 53.6452 48.3606 53.5622 48.3266 53.6812C48.0323 54.551 48.173 55.568 48.2397 56.473C48.2995 57.27 48.2882 58.1299 48.6199 58.876C48.6789 59.014 48.8509 58.8361 48.844 58.7281C48.8033 57.8381 48.8035 56.9372 48.7368 56.0322C48.7031 55.2502 48.7814 54.3943 48.5986 53.6302L48.6246 53.6452Z" fill="#C29A6A" fill-opacity="0.24"/>
<path d="M50.2758 51.4431C50.2758 51.4431 50.0228 51.401 49.9888 51.52C49.7835 52.4759 49.9241 53.4929 50.0018 54.4389C50.0986 55.2919 50.3033 56.1379 50.307 56.9719C50.2909 57.2398 50.593 57.137 50.646 56.925C50.8213 56.0211 50.5906 55.16 50.5239 54.2551C50.4462 53.3091 50.4915 52.3301 50.2648 51.4021L50.2758 51.4431Z" fill="#C29A6A" fill-opacity="0.24"/>
<path d="M51.4583 50.25C51.2947 51.8539 51.3912 53.6078 51.9577 55.1479C52.0496 55.409 52.3487 55.1311 52.2937 54.9261C51.9173 53.357 51.9167 51.7971 51.7972 50.2031C51.7723 49.9461 51.4853 50.023 51.4583 50.25Z" fill="#C29A6A" fill-opacity="0.24"/>
<path d="M53.7742 49.4767C53.7192 49.2717 53.5212 49.4347 53.4872 49.5536C53.2639 50.3605 53.2677 51.1945 53.2304 52.0395C53.2253 52.3484 53.2242 52.5904 53.2861 52.9034C53.3411 53.1084 53.4699 53.4255 53.3909 53.6224C53.3268 53.7934 53.4488 54.0024 53.6208 53.8245C53.9759 53.5096 53.8001 52.8536 53.6902 52.4436C53.5844 51.9666 53.7586 51.3047 53.7758 50.7947C53.7889 50.3517 53.8171 49.8827 53.7222 49.4467L53.7742 49.4767Z" fill="#C29A6A" fill-opacity="0.24"/>
<path d="M55.8093 48.2861C55.7244 48.1331 55.5263 48.296 55.5183 48.43C55.4371 49.1109 55.5009 49.841 55.5017 50.4999C55.4915 51.1179 55.5113 51.6839 55.6351 52.3099C55.686 52.5819 56.011 52.319 56.0081 52.144C55.9334 51.373 55.9926 50.6101 56.0108 49.8581C56.028 49.3481 56.0902 48.7602 55.8093 48.2861Z" fill="#C29A6A" fill-opacity="0.24"/>
<path d="M57.492 47.9073C57.2929 48.3122 57.3127 48.8782 57.2995 49.3211C57.3124 49.7791 57.2432 50.2591 57.3791 50.6841C57.456 50.9711 57.7811 50.7082 57.7671 50.4922C57.7283 50.0192 57.7754 49.4573 57.8186 48.9623C57.8277 48.5863 57.9339 48.1624 57.768 47.7894C57.6981 47.6103 57.526 47.7883 57.481 47.8662L57.492 47.9073Z" fill="#C29A6A" fill-opacity="0.24"/>
<path d="M59.4692 46.2129C59.116 46.9448 59.6217 47.9299 59.5624 48.6929C59.5423 49.0279 59.9674 48.892 59.9834 48.624C60.0376 48.17 59.9837 47.723 59.9149 47.302C59.857 46.922 59.8701 46.4791 59.7302 46.121C59.6603 45.942 59.4883 46.12 59.4433 46.1979L59.4692 46.2129Z" fill="#C29A6A" fill-opacity="0.24"/>
<path d="M61.7751 44.7993C61.3849 45.4751 61.5856 46.3882 61.6753 47.1332C61.7222 47.4722 62.1183 47.1463 62.1044 46.9303C62.0875 46.5393 62.0446 46.1333 62.0538 45.7573C62.0589 45.4484 62.105 45.1284 62.0021 44.8264C61.9691 44.7034 61.8201 44.7213 61.7601 44.8253L61.7751 44.7993Z" fill="#C29A6A" fill-opacity="0.24"/>
<path d="M64.217 43.6438C63.7978 44.1296 63.8385 45.0196 64.1003 45.5866C64.2332 45.8367 64.4954 45.5028 64.4924 45.3278C64.4975 45.0188 64.3946 44.7168 64.4257 44.4228C64.4268 44.1808 64.4949 43.9429 64.4549 43.7119C64.422 43.5889 64.288 43.5808 64.202 43.6698L64.217 43.6438Z" fill="#C29A6A" fill-opacity="0.24"/>
<path d="M66.3303 42.7893C66.3303 42.7893 66.1743 42.6993 66.0883 42.7882C65.7141 43.1961 65.7999 44.0081 65.9727 44.4891C65.9727 44.4891 66.0947 44.6982 66.2327 44.6392C66.4377 44.5843 66.5058 44.3463 66.5028 44.1713C66.4779 43.9143 66.427 43.6423 66.428 43.4003C66.4401 43.1993 66.4522 42.9984 66.3562 42.8043L66.3303 42.7893Z" fill="#C29A6A" fill-opacity="0.24"/>
<path d="M67.9725 41.9327C67.9103 42.5207 68.1161 43.1247 67.9719 43.7346C67.8958 44.1066 68.3168 44.0377 68.3889 43.7328C68.5591 43.1379 68.4953 42.4079 68.3005 41.8448C68.2196 41.6248 67.9955 41.7727 67.9575 41.9587L67.9725 41.9327Z" fill="#C29A6A" fill-opacity="0.24"/>
<path d="M70.3097 41.2394C70.2826 41.4664 70.2965 41.6823 70.2695 41.9093C70.2494 42.2443 70.6744 42.1084 70.6905 41.8405C70.7025 41.6395 70.7146 41.4385 70.7527 41.2525C70.7907 41.0665 70.8438 40.8546 70.7588 40.7015C70.7219 40.6455 70.6549 40.6415 70.5729 40.6635C70.3638 40.7854 70.3328 41.0794 70.2947 41.2654L70.3097 41.2394Z" fill="#C29A6A" fill-opacity="0.24"/>
<path d="M72.981 40.6971C72.9671 40.4811 72.9122 40.2761 72.9132 40.0341C72.9213 39.9001 72.9113 39.6171 72.7063 39.672C72.4603 39.7379 72.3952 40.1509 72.4091 40.3669C72.4231 40.5829 72.452 40.7729 72.5479 40.9669C72.6658 41.2429 72.9839 40.8721 72.981 40.6971Z" fill="#C29A6A" fill-opacity="0.24"/>
<path d="M74.9447 39.9902C74.9447 39.9902 75.1208 39.7453 75.1028 39.5963C75.0739 39.4063 75.1679 39.1833 75.072 38.9893C75.024 38.8923 74.916 38.8992 74.83 38.9882C74.6019 39.2031 74.5778 39.6051 74.6547 39.8921C74.6877 40.0151 74.8176 40.0901 74.9297 40.0162L74.9447 39.9902Z" fill="#C29A6A" fill-opacity="0.24"/>
<path d="M76.8528 39.1574C77.0479 38.8195 77.057 38.4435 76.9582 38.0745C76.9142 37.9105 76.7502 37.9544 76.6902 38.0584C76.6001 38.2144 76.5921 38.3483 76.569 38.5083C76.561 38.6423 76.5789 38.7913 76.5189 38.8953C76.4589 38.9993 76.4728 39.2153 76.5918 39.2493C76.6958 39.3093 76.8228 39.2094 76.8678 39.1314L76.8528 39.1574Z" fill="#C29A6A" fill-opacity="0.24"/>
<path d="M79.1745 38.1414C79.1745 38.1414 79.3506 37.8965 79.3176 37.7735C79.3176 37.7735 79.3217 37.7065 79.3107 37.6655C79.3107 37.6655 79.3407 37.6135 79.3037 37.5575C79.3077 37.4905 79.3007 37.3825 79.2788 37.3005C79.2458 37.1775 79.1228 37.2105 79.0368 37.2994C78.8757 37.5184 78.7666 37.7673 78.8435 38.0543C78.8765 38.1773 78.9805 38.2374 79.1185 38.1784L79.1745 38.1414Z" fill="#C29A6A" fill-opacity="0.24"/>
<path d="M81.5273 36.7609C81.5273 36.7609 81.7034 36.516 81.6855 36.367C81.6635 36.285 81.6415 36.203 81.5785 36.132C81.5005 36.0869 81.4335 36.0829 81.3775 36.1199C81.3065 36.1829 81.2205 36.2719 81.2425 36.3539C81.2234 36.4469 81.2304 36.5548 81.2524 36.6369C81.2853 36.7599 81.4153 36.8349 81.5273 36.7609Z" fill="#C29A6A" fill-opacity="0.24"/>
<path d="M51.3238 39.9841C51.3469 39.8241 51.2319 39.7231 51.0899 39.849C50.5217 40.3528 50.3574 41.2977 50.2202 42.0157C50.0859 42.9086 50.0597 43.7945 49.9664 44.6765C49.9503 44.9444 50.2483 44.9085 50.2753 44.6816C50.3906 43.8816 50.5209 43.0557 50.6771 42.2448C50.8184 41.4599 51.1826 40.769 51.3088 40.0101L51.3238 39.9841Z" fill="#C29A6A" fill-opacity="0.24"/>
<path d="M52.9044 39.5798C52.9044 39.5798 52.7484 39.4898 52.7184 39.5417C52.3553 39.9906 52.1851 40.5855 52.0449 41.1285C51.9198 41.6454 51.8206 42.1774 52.0454 42.6884C52.1633 42.9644 52.4295 42.5635 52.3855 42.3995C52.2877 41.7885 52.4839 41.2086 52.706 40.6437C52.8341 40.3017 52.9773 39.9338 52.9304 39.5948L52.9044 39.5798Z" fill="#C29A6A" fill-opacity="0.24"/>
<path d="M55.1083 38.2849C55.1083 38.2849 55.0124 38.0908 54.9264 38.1798C54.4523 38.4607 54.434 39.2126 54.3909 39.7076C54.3547 40.3105 54.1175 40.9014 54.3383 41.4795C54.4562 41.7555 54.7403 41.5036 54.7263 41.2876C54.7325 40.7366 54.8837 40.2347 54.9159 39.6987C54.944 39.2298 55.1211 38.7428 55.1343 38.2999L55.1083 38.2849Z" fill="#C29A6A" fill-opacity="0.24"/>
<path d="M57.2091 37.5271C57.2091 37.5271 57.0681 37.4111 56.9971 37.4741C56.664 37.8709 56.5458 38.4959 56.5136 39.0318C56.4705 39.5268 56.3603 40.0178 56.3992 40.4908C56.4351 40.7887 56.7001 40.6298 56.7532 40.4179C56.8783 39.9009 56.9515 39.354 57.0507 38.822C57.1308 38.3831 57.2929 37.9221 57.2241 37.5011L57.2091 37.5271Z" fill="#C29A6A" fill-opacity="0.24"/>
<path d="M59.1699 36.7098C59.1699 36.7098 59.1039 36.4638 59.0179 36.5528C58.5508 36.9416 58.4326 37.5666 58.3184 38.1245C58.2193 38.6564 57.948 39.3663 58.1169 39.9143C58.2198 40.2164 58.4928 39.9235 58.5049 39.7225C58.5221 39.2125 58.7183 38.6326 58.8284 38.1417C58.9235 37.6767 59.1007 37.1898 59.1699 36.7098Z" fill="#C29A6A" fill-opacity="0.24"/>
<path d="M60.5835 36.4177C60.2914 36.8036 60.2443 37.3656 60.2011 37.8606C60.1821 37.9535 60.2337 38.8845 60.1367 38.9325C59.9427 39.0284 59.8476 39.4934 60.1496 39.3905C60.6156 39.2436 60.6068 38.7186 60.6309 38.3167C60.6411 37.6987 60.9233 37.0298 60.8255 36.4188C60.8076 36.2698 60.6696 36.3288 60.5835 36.4177Z" fill="#C29A6A" fill-opacity="0.24"/>
<path d="M62.5331 35.7364C62.0459 36.4602 61.9856 37.4651 61.9223 38.2951C61.9022 38.63 62.2753 38.4642 62.3283 38.2522C62.4696 37.4673 62.8049 36.5864 62.7451 35.7894C62.7382 35.6815 62.6192 35.6474 62.5591 35.7514L62.5331 35.7364Z" fill="#C29A6A" fill-opacity="0.24"/>
<path d="M64.6684 35.3481C64.6684 35.3481 64.5274 35.232 64.4154 35.306C64.1613 35.5059 64.1072 35.9599 64.0761 36.2538C64.056 36.5888 64.0359 36.9238 64.0978 37.2368C64.1707 37.5908 64.5407 37.2499 64.5418 37.0079C64.5619 36.673 64.567 36.364 64.6131 36.044C64.6402 35.817 64.7233 35.5531 64.6423 35.3331L64.6684 35.3481Z" fill="#C29A6A" fill-opacity="0.24"/>
<path d="M66.53 34.6505C66.53 34.6505 66.4451 34.4974 66.3741 34.5604C65.9249 35.0982 65.9177 35.8912 65.8104 36.5571C65.7343 36.9291 66.1293 36.8452 66.2274 36.5553C66.3295 36.1983 66.3646 35.8373 66.4517 35.5064C66.5088 35.2274 66.5809 34.9225 66.545 34.6245L66.53 34.6505Z" fill="#C29A6A" fill-opacity="0.24"/>
<path d="M68.1394 33.9599C67.8484 34.1038 67.7752 34.6508 67.7591 34.9187C67.683 35.2907 67.6479 35.6517 67.7468 36.0207C67.8347 36.3487 68.1788 35.9928 68.1388 35.7618C68.0919 35.4228 68.1681 35.0509 68.2552 34.7199C68.3082 34.5079 68.4624 34.181 68.3254 33.998C68.2884 33.942 68.2214 33.9379 68.1654 33.9749L68.1394 33.9599Z" fill="#C29A6A" fill-opacity="0.24"/>
<path d="M70.3916 33.3171C70.1826 33.439 70.0695 33.755 70.0164 33.967C69.9594 34.2459 69.9693 34.5289 69.9122 34.8079C69.8851 35.0349 70.074 35.2479 70.2761 35.018C70.2761 35.018 70.4562 34.7061 70.4232 34.5831C70.4613 34.3971 70.4734 34.1961 70.4854 33.9951C70.4975 33.7941 70.5505 33.5822 70.5626 33.3812C70.5556 33.2732 70.4667 33.1872 70.3807 33.2761L70.3916 33.3171Z" fill="#C29A6A" fill-opacity="0.24"/>
<path d="M72.3873 32.4916C72.0743 32.5535 72.0191 33.2494 72.018 33.4914C71.9979 33.8264 71.9888 34.2024 72.1587 34.5084C72.2916 34.7585 72.5277 34.4095 72.5357 34.2756C72.5448 33.8996 72.513 33.5346 72.5481 33.1736C72.5861 32.9876 72.7113 32.4707 72.3983 32.5326L72.3873 32.4916Z" fill="#C29A6A" fill-opacity="0.24"/>
<path d="M74.0215 32.6015C73.8495 32.7794 73.9264 33.0664 73.8173 33.3154C73.7573 33.4194 73.7752 33.5684 73.9052 33.6434C73.9832 33.6884 74.0952 33.6145 74.1402 33.5365C74.2152 33.4065 74.2903 33.2766 74.3134 33.1166C74.3474 32.9976 74.3554 32.8636 74.3485 32.7556C74.3675 32.6626 74.3605 32.5546 74.2826 32.5096C74.1786 32.4496 74.1035 32.5795 74.0325 32.6425L74.0215 32.6015Z" fill="#C29A6A" fill-opacity="0.24"/>
<path d="M76.0847 32.5076C76.0847 32.5076 76.0837 32.7496 76.2177 32.7577C76.3517 32.7657 76.4267 32.6357 76.4457 32.5427C76.4798 32.4238 76.4618 32.2748 76.4959 32.1558C76.5259 32.1038 76.5039 32.0218 76.5339 31.9698C76.5639 31.9178 76.5419 31.8358 76.505 31.7798C76.498 31.6718 76.446 31.6418 76.349 31.6898C76.002 31.8706 76.1268 32.2547 76.0958 32.5487L76.0847 32.5076Z" fill="#C29A6A" fill-opacity="0.24"/>
<path d="M78.2205 31.2005C78.1304 31.3565 78.0924 31.5424 78.0953 31.7174C78.0913 31.7844 78.1023 31.8254 78.0982 31.8924C78.0832 31.9184 78.1202 31.9744 78.1052 32.0004L78.1122 32.1084C78.1711 32.2464 78.3201 32.2285 78.4211 32.1135C78.4812 32.0095 78.5262 31.9316 78.5452 31.8386C78.5793 31.7196 78.5463 31.5966 78.5393 31.4886C78.5434 31.4216 78.5474 31.3546 78.5104 31.2986L78.4884 31.2166C78.4884 31.2166 78.2545 31.0815 78.1794 31.2115L78.2205 31.2005Z" fill="#C29A6A" fill-opacity="0.24"/>
<path d="M80.1821 30.8218C80.1821 30.8218 79.9251 30.8467 79.8801 30.9247C79.8201 31.0287 79.786 31.1477 79.804 31.2967C79.826 31.3787 79.9299 31.4387 80.0009 31.3757C80.072 31.3128 80.091 31.2198 80.136 31.1418C80.136 31.1418 80.166 31.0898 80.196 31.0378C80.2411 30.9598 80.2711 30.9079 80.1821 30.8218Z" fill="#C29A6A" fill-opacity="0.24"/>
<path d="M81.4046 30.6182C81.4046 30.6182 81.2805 30.8931 81.2725 31.0271C81.2795 31.1351 81.3015 31.2172 81.3494 31.3142C81.4344 31.4672 81.5544 31.2592 81.5734 31.1662C81.5705 30.9912 81.6866 30.8503 81.6836 30.6753C81.6807 30.5003 81.4947 30.4622 81.4046 30.6182Z" fill="#C29A6A" fill-opacity="0.24"/>
<path d="M59.5992 28.508C59.5992 28.508 59.5442 28.303 59.4582 28.3919C58.8641 28.8807 58.5588 29.7096 58.2356 30.3894C58.0065 30.8463 57.4754 31.4062 57.6442 31.9542C57.6442 31.9542 57.9711 32.1083 58.0132 31.8553C58.0673 31.4014 58.5465 30.8115 58.7606 30.3806C59.0648 29.7937 59.451 29.1849 59.6252 28.523L59.5992 28.508Z" fill="#C29A6A" fill-opacity="0.24"/>
<path d="M60.7307 29.2616C60.7307 29.2616 60.6198 29.0936 60.5488 29.1566C60.2577 29.3005 60.0736 29.6794 59.9085 29.9653C59.7284 30.2773 59.5483 30.5892 59.5132 30.9502C59.4821 31.2441 59.7761 31.2752 59.8592 31.0113C59.9873 30.6693 60.1674 30.3574 60.3735 30.0605C60.5236 29.8005 60.7256 29.5706 60.7567 29.2766L60.7307 29.2616Z" fill="#C29A6A" fill-opacity="0.24"/>
<path d="M63.3654 27.5626C63.3654 27.5626 63.3255 27.3315 63.2285 27.3795C62.7584 27.5933 62.5582 28.2403 62.3591 28.6452C62.13 29.1021 61.8038 29.607 61.7717 30.1429C61.7515 30.4779 62.0986 30.297 62.1516 30.085C62.2578 29.6611 62.5799 29.2232 62.805 28.8333C63.0301 28.4434 63.2853 28.0015 63.3914 27.5775L63.3654 27.5626Z" fill="#C29A6A" fill-opacity="0.24"/>
<path d="M65.1214 27.2895C65.1214 27.2895 65.0365 27.1365 64.9395 27.1845C64.5924 27.3654 64.4563 27.8413 64.3022 28.1682C64.1331 28.5212 63.964 28.8741 63.7429 29.197C63.6378 29.379 63.7297 29.64 63.9428 29.4511C64.2829 29.1622 64.493 28.7983 64.6771 28.4193C64.8722 28.0814 65.0973 27.6915 65.1214 27.2895Z" fill="#C29A6A" fill-opacity="0.24"/>
<path d="M67.7248 26.5757C67.7248 26.5757 67.6698 26.3707 67.5578 26.4447C67.1138 26.6735 66.9326 27.2275 66.7855 27.6624C66.6233 28.1233 66.3572 28.5242 66.2361 28.9742C66.168 29.2121 66.436 29.2282 66.541 29.0462C66.9393 28.2364 67.5085 27.4906 67.7098 26.6017L67.7248 26.5757Z" fill="#C29A6A" fill-opacity="0.24"/>
<path d="M69.1513 26.8102C69.1513 26.8102 69.1074 26.6462 69.0104 26.6942C68.7043 26.8641 68.5092 27.202 68.3291 27.514C68.1491 27.8259 67.9539 28.1638 67.8368 28.5468C67.7618 28.6767 67.9097 28.9008 68.0668 28.7488C68.3399 28.4559 68.5239 28.077 68.719 27.7391C68.8841 27.4531 69.0492 27.1672 69.1363 26.8362L69.1513 26.8102Z" fill="#C29A6A" fill-opacity="0.24"/>
<path d="M71.7336 26.0463C71.7336 26.0463 71.6637 25.8673 71.5667 25.9152C71.3057 26.0071 71.1626 26.3751 71.0685 26.598C70.9294 26.899 70.7903 27.1999 70.6252 27.4859C70.5202 27.6678 70.634 28.0108 70.8621 27.7959C71.1052 27.555 71.2743 27.2021 71.4394 26.9161C71.5744 26.6822 71.7695 26.3443 71.7446 26.0873L71.7336 26.0463Z" fill="#C29A6A" fill-opacity="0.24"/>
<path d="M73.7356 25.4701C73.3285 25.7549 73.3073 26.3319 73.0412 26.7328C72.9211 26.9408 73.087 27.3138 73.3041 27.0579C73.6372 26.661 73.8444 26.1221 73.9285 25.6162C73.9476 25.5232 73.8626 25.3701 73.7506 25.4441L73.7356 25.4701Z" fill="#C29A6A" fill-opacity="0.24"/>
<path d="M75.8332 25.0835C75.7281 25.2655 75.6751 25.4775 75.622 25.6894C75.5579 25.8604 75.4939 26.0314 75.4038 26.1873C75.3438 26.2913 75.3098 26.4103 75.3987 26.4963C75.5027 26.5564 75.5997 26.5084 75.6597 26.4044C75.7798 26.1965 75.8849 26.0145 75.9789 25.7915C76.058 25.5946 76.1671 25.3456 76.1271 25.1146C76.1092 24.9656 75.9382 24.9016 75.8482 25.0575L75.8332 25.0835Z" fill="#C29A6A" fill-opacity="0.24"/>
<path d="M78.1904 24.9597C77.8803 25.1966 77.5322 25.6195 77.6421 26.0295C77.734 26.2906 78.018 26.0387 78.0151 25.8637C78.0081 25.7557 78.0681 25.6517 78.1542 25.5627C78.2442 25.4067 78.3192 25.2768 78.3943 25.1468C78.4133 25.0538 78.3284 24.9008 78.2163 24.9747L78.1904 24.9597Z" fill="#C29A6A" fill-opacity="0.24"/>
<path d="M80.2738 24.5252C79.9828 24.6691 79.8137 25.022 79.5966 25.278C79.5366 25.3819 79.4615 25.5119 79.5355 25.6239C79.5835 25.7209 79.7174 25.7289 79.7775 25.625C80.0355 25.3581 80.2676 25.0762 80.4217 24.7492C80.4818 24.6453 80.4118 24.4662 80.2588 24.5512L80.2738 24.5252Z" fill="#C29A6A" fill-opacity="0.24"/>
<path d="M82.4657 24.3985C82.4657 24.3985 82.3957 24.2195 82.2837 24.2934C82.1417 24.4194 82.0366 24.6013 81.8796 24.7533C81.8086 24.8163 81.7595 24.9612 81.8075 25.0582C81.8555 25.1553 81.9635 25.1483 82.0495 25.0593C82.2476 24.8964 82.4086 24.6775 82.4507 24.4245L82.4657 24.3985Z" fill="#C29A6A" fill-opacity="0.24"/>
<path d="M84.7467 24.1693C84.7467 24.1693 84.6768 23.9903 84.6058 24.0533C84.4268 24.1232 84.3477 24.3202 84.2577 24.4761C84.1526 24.6581 84.0776 24.7881 83.8836 24.884C83.7155 24.995 83.7174 25.4119 83.9674 25.279C84.1614 25.1831 84.3595 25.0201 84.4795 24.8122C84.5846 24.6302 84.7347 24.3703 84.7467 24.1693Z" fill="#C29A6A" fill-opacity="0.24"/>
<path d="M87.2593 24.087C87.2593 24.087 87.2414 23.938 87.1594 23.9599C86.9544 24.0149 86.7933 24.2338 86.6623 24.4008C86.5052 24.5527 86.3332 24.7306 86.1652 24.8416C85.9971 24.9525 85.999 25.3695 86.249 25.2366C86.6521 25.0187 87.1902 24.5669 87.2593 24.087Z" fill="#C29A6A" fill-opacity="0.24"/>
<path d="M88.9842 24.0439C88.6481 24.2658 88.367 24.6927 88.3539 25.1357C88.3348 25.2287 88.4348 25.3557 88.5578 25.3227C88.6398 25.3007 88.7408 25.1858 88.7338 25.0778C88.7649 24.7838 89.019 24.5839 89.1541 24.3499C89.1991 24.272 89.2441 24.194 89.1961 24.097C89.1592 24.041 89.0662 24.0219 89.0102 24.0589L88.9842 24.0439Z" fill="#C29A6A" fill-opacity="0.24"/>
<path d="M51.9058 74.5592C51.9058 74.5592 51.9959 74.4032 51.8879 74.4102C51.7799 74.4172 51.3672 73.4511 51.2933 73.3391C51.0084 72.932 50.6825 72.5359 50.3977 72.1288C50.1128 71.7217 49.802 71.2997 49.5882 70.8296C49.3853 70.4006 49.2535 69.9086 48.9946 69.5165C48.9206 69.4045 48.7786 69.5304 48.7596 69.6234C48.539 71.5062 50.6984 73.1689 51.5929 74.6211C51.6449 74.6511 51.6968 74.6811 51.7118 74.6551C51.7418 74.6031 51.8238 74.5812 51.8799 74.5442L51.9058 74.5592Z" fill="#C29A6A" fill-opacity="0.24"/>
<path d="M76.6566 46.2231C76.5607 46.0291 76.4497 45.861 76.3948 45.656C76.3508 45.492 76.1759 45.495 76.0898 45.5839C76.0038 45.6729 75.9547 45.8179 76.0137 45.9559C76.0946 46.1759 76.2876 46.322 76.4245 46.505C76.5505 46.6471 76.7046 46.3201 76.6566 46.2231Z" fill="#C29A6A" fill-opacity="0.24"/>
<path d="M75.356 47.2777C75.356 47.2777 75.2531 46.9757 75.1941 46.8377C75.1462 46.7407 75.1022 46.5766 74.9982 46.5166C74.8943 46.4566 74.8343 46.5606 74.7892 46.6386C74.7171 46.9435 74.958 47.1866 75.0349 47.4736C75.1009 47.7196 75.3589 47.4527 75.315 47.2887L75.356 47.2777Z" fill="#C29A6A" fill-opacity="0.24"/>
<path d="M73.5979 49.0649C73.5279 48.8859 73.417 48.7179 73.3211 48.5238C73.2731 48.4268 73.1962 48.1398 73.0282 48.2508C72.9981 48.3027 72.9421 48.3397 72.9381 48.4067C72.81 48.7487 73.1618 49.1598 73.3768 49.3878C73.5137 49.5709 73.6978 49.1919 73.6239 49.0799L73.5979 49.0649Z" fill="#C29A6A" fill-opacity="0.24"/>
<path d="M72.284 49.8293C72.117 49.6983 72.0361 49.4783 71.9552 49.2583C71.9072 49.1612 71.7582 49.1792 71.7132 49.2572C71.6681 49.3352 71.6081 49.4391 71.6301 49.5211C71.666 49.8191 71.7689 50.1212 72.0698 50.2602C72.2518 50.3653 72.4509 49.9604 72.31 49.8443L72.284 49.8293Z" fill="#C29A6A" fill-opacity="0.24"/>
<path d="M70.5321 51.6636C70.4812 51.3916 70.3742 51.1565 70.2673 50.9215C70.1713 50.7275 70.1205 50.4555 69.9385 50.3505C69.8605 50.3054 69.7855 50.4354 69.7554 50.4874C69.6343 50.9373 70.1011 51.4495 70.252 51.8485C70.3439 52.1095 70.602 51.8426 70.5471 51.6376L70.5321 51.6636Z" fill="#C29A6A" fill-opacity="0.24"/>
<path d="M69.12 53.0325C69.0321 52.7045 68.9292 52.4025 68.8153 52.0595C68.7014 51.7165 68.3163 52.0833 68.3823 52.3293C68.4701 52.6573 68.6551 52.9374 68.758 53.2394C68.8609 53.5414 69.1489 53.2225 69.135 53.0065L69.12 53.0325Z" fill="#C29A6A" fill-opacity="0.24"/>
<path d="M67.2709 54.5011C67.209 54.1881 67.0911 53.9121 66.9472 53.6211C66.8143 53.371 66.6854 53.054 66.3804 52.9819C66.3024 52.9369 66.2274 53.0669 66.2494 53.1489C66.3362 53.7189 66.766 54.175 66.9499 54.697C67.0418 54.958 67.3408 54.6801 67.2859 54.4751L67.2709 54.5011Z" fill="#C29A6A" fill-opacity="0.24"/>
<path d="M65.7148 56.0504C65.5449 55.7444 65.431 55.4014 65.2871 55.1103C65.1652 54.9013 65.0363 54.5843 64.7643 54.6352C64.6823 54.6571 64.6222 54.7611 64.6442 54.8431C64.6541 55.1261 64.921 55.3842 65.0689 55.6082C65.2019 55.8583 65.3348 56.1083 65.5237 56.3213C65.6496 56.4634 65.8147 56.1775 65.7558 56.0394L65.7148 56.0504Z" fill="#C29A6A" fill-opacity="0.24"/>
<path d="M64.4092 57.7682C63.9494 57.364 63.7545 56.801 63.6007 56.227C63.5278 55.873 63.5 55.441 63.2481 55.1569C63.1591 55.0709 63.043 55.2118 63.024 55.3048C62.9809 55.7998 63.1757 56.3628 63.3635 56.8179C63.5364 57.2989 63.8062 57.732 64.2441 58.0541C64.4001 58.1442 64.5242 57.8692 64.4092 57.7682Z" fill="#C29A6A" fill-opacity="0.24"/>
<path d="M62.6582 59.007C62.4253 58.6299 62.1924 58.2528 62.0006 57.8648C61.8347 57.4918 61.6838 57.0927 61.4469 56.7827C61.373 56.6706 61.2569 56.8116 61.2789 56.8936C61.2526 57.7796 61.9153 58.6127 62.4261 59.2889C62.563 59.4719 62.7691 59.175 62.6842 59.022L62.6582 59.007Z" fill="#C29A6A" fill-opacity="0.24"/>
<path d="M61.047 61.1987C60.7812 60.6986 60.4484 60.1945 60.1416 59.7055C59.9197 59.3694 59.7278 58.9814 59.3489 58.7972C59.2189 58.7222 59.1098 58.9711 59.1318 59.0532C59.2896 59.5602 59.6265 59.9973 59.9073 60.4713C60.1662 60.8634 60.399 61.2405 60.7289 61.5696C60.9069 61.7416 61.091 61.3627 61.006 61.2097L61.047 61.1987Z" fill="#C29A6A" fill-opacity="0.24"/>
<path d="M59.5425 63.8633C59.1237 63.4482 58.7758 62.9701 58.443 62.466C58.1842 62.074 57.9443 61.5889 57.5584 61.2968C57.4545 61.2368 57.3384 61.3777 57.3714 61.5007C57.728 62.5038 58.5427 63.494 59.3214 64.1862C59.4624 64.3023 59.6425 63.9904 59.5015 63.8743L59.5425 63.8633Z" fill="#C29A6A" fill-opacity="0.24"/>
<path d="M58.4673 65.9138C57.9185 65.4237 57.4406 64.8705 56.9929 64.2654C56.682 63.8433 56.4312 63.3173 56.0193 63.0102C55.8894 62.9351 55.7693 63.1431 55.7913 63.2251C56.1249 64.3881 57.3225 65.4955 58.2502 66.1697C58.4062 66.2598 58.5713 65.9739 58.4303 65.8578L58.4673 65.9138Z" fill="#C29A6A" fill-opacity="0.24"/>
<path d="M56.6865 68.072C56.0337 67.5218 55.4969 66.8307 55.0162 66.1026C54.6833 65.5985 54.3516 64.8524 53.8057 64.5372C53.6758 64.4622 53.5667 64.7112 53.5736 64.8192C53.7604 65.5162 54.3122 66.1813 54.749 66.7454C55.2488 67.3806 55.8195 67.9527 56.5214 68.3579C56.6513 68.433 56.7904 68.132 56.6865 68.072Z" fill="#C29A6A" fill-opacity="0.24"/>
<path d="M54.7656 70.2221C54.8916 70.3641 55.0717 70.0522 54.9977 69.9402C54.5609 69.376 53.9561 68.9229 53.5343 68.3328C53.2384 67.8847 52.9316 67.3956 52.5088 67.0475C52.3788 66.9725 52.2997 67.1694 52.3477 67.2664C52.6314 67.9155 53.1093 68.4686 53.5201 69.0177C53.8569 69.4548 54.4028 69.77 54.7656 70.2221Z" fill="#C29A6A" fill-opacity="0.24"/>
<path d="M53.3743 71.6027C52.1466 70.5474 51.5842 68.9403 50.5956 67.711C50.4697 67.569 50.3716 67.8589 50.3676 67.9259C50.5013 68.8349 51.157 69.5601 51.6787 70.2772C52.1005 70.8674 52.5893 71.4615 53.1682 71.8997C53.3241 71.9897 53.4892 71.7038 53.3483 71.5877L53.3743 71.6027Z" fill="#C29A6A" fill-opacity="0.24"/>
<path d="M56.9429 80.9819C57.5343 82.779 59.9968 84.0967 61.7987 84.0973C61.9327 84.1053 62.0458 83.7894 61.9008 83.7403C60.9189 83.52 59.8591 83.2547 59.0353 82.6405C58.5974 82.3184 58.2305 81.9332 57.9047 81.5372C57.6678 81.2271 57.4829 80.9471 57.145 80.752C57.015 80.6769 56.9059 80.9259 56.9279 81.0079L56.9429 80.9819Z" fill="#C29A6A" fill-opacity="0.24"/>
<path d="M57.9124 79.1077C58.1541 80.0098 58.8947 80.888 59.7006 81.3532C60.0905 81.5783 60.5324 81.8334 60.9863 81.8876C61.3993 81.9527 61.8013 81.9768 62.2142 82.042C62.2662 82.072 62.3002 81.953 62.2893 81.912C62.0073 81.6799 61.6914 81.5668 61.3454 81.5057C60.9065 81.4256 60.5166 81.2005 60.1267 80.9753C59.5548 80.6452 59.1839 80.3271 58.8291 79.741C58.6072 79.4049 58.4633 79.1139 58.0844 78.9298C58.0064 78.8848 57.9164 79.0407 57.9533 79.0967L57.9124 79.1077Z" fill="#C29A6A" fill-opacity="0.24"/>
<path d="M58.5605 77.0184C58.6272 77.9234 59.6619 78.8327 60.4758 79.1639C61.1187 79.4311 62.0475 79.8634 62.7416 79.5017C62.8386 79.4537 62.8657 79.2267 62.7167 79.2447C62.0646 79.3534 61.1248 78.8802 60.553 78.55C60.1111 78.2949 59.7292 77.9357 59.4033 77.5397C59.2034 77.2856 59.0595 76.9946 58.7736 76.8295C58.6696 76.7694 58.5646 76.9514 58.5865 77.0334L58.5605 77.0184Z" fill="#C29A6A" fill-opacity="0.24"/>
<path d="M59.6512 75.3242C59.8321 75.6713 60.1811 75.9074 60.448 76.1654C60.7299 76.3975 60.9968 76.6556 61.3087 76.8357C61.8916 77.2069 62.4195 77.373 63.1195 77.3613C63.2275 77.3543 63.2955 77.1163 63.1616 77.1083C62.4136 77.023 61.7568 76.5398 61.2189 76.0907C60.7961 75.7426 60.3223 75.1225 59.7494 75.0343C59.6154 75.0262 59.5773 75.2122 59.5993 75.2942L59.6512 75.3242Z" fill="#C29A6A" fill-opacity="0.24"/>
<path d="M60.5638 72.5953C60.8915 73.4084 61.8672 74.1797 62.52 74.7299C62.9169 75.063 63.4097 75.5901 63.9658 75.2873C64.0218 75.2503 64.1009 75.0534 63.9669 75.0453C63.4269 75.0801 62.6642 74.1199 62.3083 73.7758C61.8525 73.3047 61.3458 72.5616 60.7139 72.3354C60.5839 72.2604 60.5158 72.4983 60.5638 72.5953Z" fill="#C29A6A" fill-opacity="0.24"/>
<path d="M62.0284 70.8408C62.2272 71.3368 62.8471 71.764 63.285 72.0861C63.6969 72.3933 64.2138 72.5184 64.6407 72.7995C64.7966 72.8896 64.9057 72.6406 64.8058 72.5136C64.4389 72.1285 63.952 71.9514 63.5551 71.6183C63.1582 71.2851 62.6994 70.639 62.2085 70.5289C62.0485 70.5058 61.9694 70.7028 62.0434 70.8148L62.0284 70.8408Z" fill="#C29A6A" fill-opacity="0.24"/>
<path d="M62.9313 69.0418C63.1231 69.4299 63.602 69.741 63.9809 69.9251C64.4378 70.1543 64.9397 70.3054 65.4567 70.4306C65.6017 70.4796 65.6998 70.1897 65.5808 70.1556C65.0939 69.9785 64.693 69.7124 64.2661 69.4312C63.9021 69.2211 63.5763 68.825 63.1523 68.7189C62.9924 68.6959 62.8723 68.9038 62.9572 69.0568L62.9313 69.0418Z" fill="#C29A6A" fill-opacity="0.24"/>
<path d="M64.5242 66.3885C64.3339 67.3184 65.6145 68.1617 66.2754 68.5779C66.4313 68.668 66.6004 68.315 66.4855 68.214C66.1146 67.8959 65.7437 67.5778 65.4179 67.1817C65.192 66.9127 65.0601 66.4206 64.7482 66.2405C64.6442 66.1805 64.5542 66.3365 64.5501 66.4035L64.5242 66.3885Z" fill="#C29A6A" fill-opacity="0.24"/>
<path d="M65.8136 64.2963C65.5892 65.3452 67.1661 65.7357 67.884 65.8729C68.07 65.911 68.2541 65.5321 68.0421 65.479C67.6072 65.3319 67.1872 65.1587 66.7973 64.9336C66.4594 64.7385 66.2935 64.3655 65.9556 64.1704C65.8776 64.1254 65.8026 64.2553 65.8136 64.2963Z" fill="#C29A6A" fill-opacity="0.24"/>
<path d="M67.1168 62.6857C67.1487 63.0507 67.4456 63.2568 67.7575 63.4369C68.0695 63.617 68.3814 63.7971 68.6223 64.0401C68.7743 64.1972 68.9434 63.8443 68.8174 63.7022C68.5915 63.4332 68.3206 63.2421 68.0237 63.036C67.7637 62.8859 67.5158 62.5348 67.2219 62.5038C67.1549 62.4997 67.0949 62.6037 67.0908 62.6707L67.1168 62.6857Z" fill="#C29A6A" fill-opacity="0.24"/>
<path d="M68.565 60.3668C68.4369 60.7087 68.8448 61.0828 69.0487 61.2699C69.3936 61.573 69.7766 61.6901 70.1665 61.9152C70.3224 62.0053 70.5065 61.6263 70.3766 61.5513C69.9757 61.2852 69.5338 61.0301 69.2339 60.649C69.134 60.5219 68.7081 59.9988 68.55 60.3928L68.565 60.3668Z" fill="#C29A6A" fill-opacity="0.24"/>
<path d="M70.0633 58.6666C69.9261 59.3845 70.975 59.6089 71.4619 59.786C71.6588 59.8651 71.832 59.4451 71.635 59.3661C71.386 59.257 71.0961 59.1589 70.8621 59.0238C70.7322 58.9488 70.6022 58.8738 70.5282 58.7618C70.4653 58.6907 70.4173 58.5937 70.3543 58.5227C70.2394 58.4217 70.1083 58.5886 70.0893 58.6816L70.0633 58.6666Z" fill="#C29A6A" fill-opacity="0.24"/>
<path d="M71.618 56.5898C71.4229 56.9277 71.7678 57.2309 72.0687 57.37C72.3547 57.535 72.6746 57.5811 72.9605 57.7462C73.1425 57.8513 73.3156 57.4313 73.1857 57.3563C72.8997 57.1912 72.5838 57.0781 72.2869 56.872C72.1309 56.782 71.8241 56.2929 71.644 56.6048L71.618 56.5898Z" fill="#C29A6A" fill-opacity="0.24"/>
<path d="M73.4433 54.9672C73.0692 55.3751 74.1291 55.6404 74.247 55.9164C74.3539 56.1514 74.59 55.8025 74.557 55.6795C74.5021 55.4745 74.2722 55.2725 74.1052 55.1414C73.9233 55.0363 73.6564 54.7783 73.4693 54.9822L73.4433 54.9672Z" fill="#C29A6A" fill-opacity="0.24"/>
<path d="M75.2435 53.4164C75.3764 53.6664 75.6104 53.8015 75.7883 53.9736C75.9403 54.1306 76.1504 53.7667 76.0134 53.5836C75.8505 53.3856 75.6576 53.2395 75.4796 53.0675C75.3277 52.9104 75.1586 53.2634 75.2175 53.4014L75.2435 53.4164Z" fill="#C29A6A" fill-opacity="0.24"/>
<path d="M76.7461 51.7134C76.771 51.9704 77.087 52.0836 77.295 52.2036C77.4509 52.2937 77.62 51.9407 77.4901 51.8657C77.4121 51.8207 77.3081 51.7606 77.2451 51.6896C77.1671 51.6446 77.0562 51.4766 76.9332 51.5095C76.8252 51.5165 76.7502 51.6465 76.7571 51.7545L76.7461 51.7134Z" fill="#C29A6A" fill-opacity="0.24"/>
<path d="M67.8884 84.7641C68.5588 86.3643 70.1755 86.9858 71.7073 87.4542C71.8113 87.5143 71.9354 87.2393 71.8164 87.2053C71.0695 86.8781 70.0697 86.5088 69.4729 85.9216C69.0021 85.4765 68.6363 84.8494 68.0644 84.5192C67.9344 84.4442 67.8664 84.6821 67.9143 84.7791L67.8884 84.7641Z" fill="#C29A6A" fill-opacity="0.24"/>
<path d="M69.0685 82.603C69.0733 83.195 69.6181 83.7522 70.041 84.1003C70.4638 84.4484 70.9947 84.7895 71.5687 84.6357C71.6917 84.6028 71.7788 84.2718 71.6038 84.2748C71.0488 84.3356 70.541 83.8344 70.1741 83.4493C69.8703 83.1352 69.6304 82.6502 69.2665 82.4401C69.1626 82.3801 69.0875 82.51 69.0835 82.577L69.0685 82.603Z" fill="#C29A6A" fill-opacity="0.24"/>
<path d="M69.4812 80.2074C69.467 80.8924 70.2399 81.2346 70.7447 81.5607C71.2346 81.9129 71.8105 82.1761 72.4395 82.2273C72.6145 82.2243 72.7015 81.8934 72.5156 81.8553C71.8496 81.7481 71.3528 81.288 70.811 80.9058C70.551 80.7557 70.3061 80.5797 70.0912 80.3516C69.9502 80.2356 69.8243 80.0935 69.6683 80.0035C69.5903 79.9585 69.5153 80.0884 69.5112 80.1554L69.4812 80.2074Z" fill="#C29A6A" fill-opacity="0.24"/>
<path d="M70.1635 77.8339C70.1423 78.4109 70.6472 78.737 71.0741 79.0182C71.308 79.1532 71.527 79.3143 71.7309 79.5013C71.9129 79.6064 72.0388 79.7484 72.2508 79.8015C72.4368 79.8396 72.5908 79.5126 72.3939 79.4336C72.1599 79.2985 71.986 79.0595 71.8081 78.8874C71.6561 78.7304 71.4482 78.6103 71.2662 78.5052C70.9433 78.2841 70.6735 77.8511 70.3315 77.723C70.2276 77.663 70.1635 77.8339 70.1595 77.9009L70.1635 77.8339Z" fill="#C29A6A" fill-opacity="0.24"/>
<path d="M70.7996 75.8369C70.7213 76.6928 72.1341 77.1273 72.766 77.3535C72.963 77.4325 73.1211 77.0386 72.9242 76.9595C72.5452 76.7754 72.1253 76.6023 71.8064 76.3142C71.5875 76.1531 71.2806 75.6641 70.9566 75.685C70.8897 75.6809 70.8446 75.7589 70.8406 75.8259L70.7996 75.8369Z" fill="#C29A6A" fill-opacity="0.24"/>
<path d="M71.8848 73.7627C71.6985 74.6256 72.9663 75.011 73.5572 75.2482C73.7132 75.3382 73.8823 74.9853 73.7673 74.8843C73.4854 74.6522 73.1585 74.4981 72.8615 74.292C72.7056 74.202 72.5387 74.0709 72.4127 73.9289C72.2978 73.8279 72.2388 73.6898 72.1088 73.6148C72.0049 73.5548 71.9188 73.6437 71.8998 73.7367L71.8848 73.7627Z" fill="#C29A6A" fill-opacity="0.24"/>
<path d="M73.0881 71.3378C73.2408 72.1538 74.1056 72.757 74.8795 72.8573C75.1065 72.8844 75.2126 72.4604 74.9597 72.4183C74.4947 72.3232 74.0788 72.083 73.7939 71.676C73.646 71.4519 73.4952 71.0529 73.1672 71.1408C73.0851 71.1628 73.0661 71.2558 73.0621 71.3228L73.0881 71.3378Z" fill="#C29A6A" fill-opacity="0.24"/>
<path d="M73.9099 69.1061C73.9407 69.7131 74.7165 70.2303 75.2594 70.3705C75.4974 70.4386 75.6745 69.9517 75.4625 69.8986C75.1316 69.8115 74.8347 69.6054 74.5938 69.3623C74.4418 69.2053 74.2609 68.8583 73.9999 68.9502C73.9439 68.9871 73.9139 69.0391 73.9099 69.1061Z" fill="#C29A6A" fill-opacity="0.24"/>
<path d="M74.7659 66.7234C74.8168 66.9954 75.1588 67.1235 75.4077 67.2326C75.6567 67.3416 75.9206 67.4247 76.1846 67.5078C76.3816 67.5868 76.5397 67.1929 76.3427 67.1139C76.1088 66.9788 75.8598 66.8697 75.6259 66.7346C75.4179 66.6146 75.136 66.3825 74.901 66.4894C74.804 66.5374 74.759 66.6154 74.7659 66.7234Z" fill="#C29A6A" fill-opacity="0.24"/>
<path d="M76.0848 64.0806C75.7337 64.3285 76.1265 64.7286 76.4015 64.8527C76.7284 65.0068 77.0744 65.0678 77.4013 65.2219C77.6093 65.342 77.7714 64.8811 77.5895 64.776C77.3815 64.656 77.1586 64.5619 76.9096 64.4528C76.6757 64.3178 76.4677 64.1977 76.2337 64.0626C76.2077 64.0476 76.1258 64.0696 76.0848 64.0806Z" fill="#C29A6A" fill-opacity="0.24"/>
<path d="M77.1699 61.9684C77.1168 62.1804 77.2497 62.4304 77.4017 62.5874C77.5276 62.7295 77.7136 62.7675 77.8776 62.7236C78.0416 62.6796 78.1478 62.2557 77.9168 62.2956C77.8088 62.3026 77.7458 62.2316 77.6828 62.1606C77.6458 62.1046 77.6089 62.0486 77.5869 61.9666C77.5499 61.9105 77.5279 61.8285 77.4909 61.7725C77.335 61.6825 77.2039 61.8494 77.1699 61.9684Z" fill="#C29A6A" fill-opacity="0.24"/>
<path d="M78.4779 59.165C78.6438 59.538 79.1267 59.7822 79.4946 59.9253C79.7176 60.0194 79.8947 59.5324 79.6828 59.4794C79.5008 59.3743 79.3298 59.3103 79.1629 59.1792C79.0069 59.0892 78.881 58.9471 78.699 58.8421C78.543 58.752 78.4299 59.068 78.5039 59.18L78.4779 59.165Z" fill="#C29A6A" fill-opacity="0.24"/>
<path d="M80.7777 86.0403C80.7777 86.0403 80.7407 85.9843 80.6217 85.9503C80.5287 85.9313 80.4207 85.9382 80.3278 85.9192C80.0748 85.8771 79.7958 85.82 79.5428 85.778C79.1969 85.7169 78.7769 85.5437 78.4189 85.6836C78.3219 85.7316 78.2319 85.8875 78.2948 85.9586C78.5797 86.3656 79.4137 86.3619 79.8416 86.401C80.1356 86.4321 80.8275 86.5543 81.0116 86.1754C81.1167 85.9934 80.8977 85.8324 80.7777 86.0403Z" fill="#C29A6A" fill-opacity="0.24"/>
<path d="M78.4644 83.3155C78.4644 83.3155 78.3293 83.5494 78.4333 83.6094C78.7972 83.8195 79.2921 83.8627 79.6791 83.9128C80.0661 83.9629 80.386 84.009 80.7551 83.9102C80.8931 83.8512 80.9952 83.4942 80.8052 83.5232C80.0492 83.5719 79.2254 82.9577 78.4753 83.3565L78.4644 83.3155Z" fill="#C29A6A" fill-opacity="0.24"/>
<path d="M79.7773 81.1615C79.5093 81.1454 79.1714 80.9503 78.9214 81.0832C78.8244 81.1312 78.8313 81.2392 78.8273 81.3062C78.9002 81.6602 79.3992 81.6364 79.6672 81.6524C80.0431 81.6616 80.4082 81.6297 80.7691 81.6648C80.9701 81.6769 81.0762 81.2529 80.8493 81.2259C80.5033 81.1647 80.1123 81.1816 79.7513 81.1465L79.7773 81.1615Z" fill="#C29A6A" fill-opacity="0.24"/>
<path d="M79.908 78.7769C79.655 78.7348 79.354 78.5957 79.104 78.7286C79.048 78.7656 79.014 78.8846 79.0099 78.9516C79.1938 79.4736 80.2928 79.311 80.7248 79.2831C80.9148 79.2542 81.0469 78.8452 80.8049 78.8442C80.4959 78.8391 80.1869 78.834 79.867 78.7879L79.908 78.7769Z" fill="#C29A6A" fill-opacity="0.24"/>
<path d="M80.3403 76.1877C80.0464 76.1566 79.7714 76.0325 79.4804 76.1764C79.4244 76.2134 79.4053 76.3064 79.4273 76.3884C79.5712 76.6795 79.9472 76.6886 80.2412 76.7197C80.6022 76.7548 80.9781 76.7639 81.3131 76.784C81.5401 76.8111 81.6502 76.3201 81.4082 76.3191C81.0473 76.2839 80.6863 76.2488 80.3253 76.2137L80.3403 76.1877Z" fill="#C29A6A" fill-opacity="0.24"/>
<path d="M80.1858 73.8625C80.1858 73.8625 80.0957 74.0184 80.1287 74.1414C80.1397 74.1824 80.1616 74.2644 80.2286 74.2684C80.6526 74.3746 81.0846 74.3467 81.5385 74.4008C81.7655 74.4279 81.9017 73.952 81.6897 73.8989C81.3587 73.8118 81.0127 73.7507 80.6778 73.7306C80.4768 73.7185 80.3318 73.6695 80.1858 73.8625Z" fill="#C29A6A" fill-opacity="0.24"/>
<path d="M81.2415 71.1879C81.0076 71.0529 80.8864 71.5028 80.9864 71.6298C81.1123 71.7719 81.3093 71.8509 81.4543 71.9C81.6142 71.923 81.8002 71.9611 81.9382 71.9021C82.0762 71.8432 82.2194 71.4752 81.9924 71.4482C81.7244 71.4321 81.4494 71.308 81.2155 71.1729L81.2415 71.1879Z" fill="#C29A6A" fill-opacity="0.24"/>
<path d="M81.8525 68.7367C81.8525 68.7367 81.5684 68.9886 81.6424 69.1006C81.8163 69.3396 82.2143 69.4308 82.4932 69.4879C82.7202 69.5149 82.8714 69.013 82.5774 68.9819C82.4434 68.9739 82.2984 68.9248 82.1685 68.8498C82.0645 68.7898 81.9605 68.7297 81.8265 68.7217L81.8525 68.7367Z" fill="#C29A6A" fill-opacity="0.24"/>
<path d="M82.9688 66.4637C82.9688 66.4637 82.8908 66.4186 82.8348 66.4556C82.7008 66.4476 82.6518 66.5926 82.6847 66.7156C82.6657 66.8085 82.7027 66.8646 82.7807 66.9096C82.8327 66.9396 82.8587 66.9546 82.9107 66.9846C83.0296 67.0187 83.1636 67.0267 83.2676 67.0867C83.3716 67.1468 83.4876 67.0058 83.4917 66.9388C83.5517 66.8348 83.5187 66.7118 83.4407 66.6668C83.3368 66.6068 83.2178 66.5727 83.1248 66.5537C83.0728 66.5237 83.0318 66.5347 82.9798 66.5047L82.9688 66.4637Z" fill="#C29A6A" fill-opacity="0.24"/>
<path d="M83.7718 64.8813C83.8487 65.1684 84.1628 64.8645 84.1079 64.6595C84.031 64.3724 83.7169 64.6763 83.7718 64.8813Z" fill="#C29A6A" fill-opacity="0.24"/>
<path d="M89.3446 76.8431C88.5045 77.3978 87.5804 77.5575 86.6334 77.8772C86.5514 77.8992 86.4873 78.0702 86.5653 78.1152C87.3671 78.6474 88.9383 77.7869 89.4735 77.1601C89.5485 77.0302 89.5686 76.6952 89.3446 76.8431Z" fill="#C29A6A" fill-opacity="0.24"/>
<path d="M87.8918 75.5163C87.5227 75.6152 87.1838 75.6621 86.8737 75.899C86.8027 75.9619 86.7386 76.1329 86.8836 76.182C87.2515 76.3251 87.6806 76.1222 88.0236 76.0083C88.4336 75.8985 88.7957 75.6916 89.1947 75.5407C89.3737 75.4708 89.4348 75.1248 89.1778 75.1497C88.7418 75.2446 88.3168 75.3805 87.8658 75.5013L87.8918 75.5163Z" fill="#C29A6A" fill-opacity="0.24"/>
<path d="M88.4726 73.076C88.2006 73.1269 87.9586 73.1258 87.7455 73.3147C87.7005 73.3927 87.6405 73.4967 87.7185 73.5417C87.9224 73.7288 88.2135 73.5849 88.4595 73.5189C88.8025 73.4051 89.1455 73.2912 89.4885 73.1773C89.6525 73.1333 89.7136 72.7874 89.4826 72.8273C89.1286 72.9002 88.8006 72.9881 88.4466 73.061L88.4726 73.076Z" fill="#C29A6A" fill-opacity="0.24"/>
<path d="M88.5238 70.9927C88.2668 71.0176 87.9769 70.9195 87.7158 71.0114C87.6598 71.0484 87.6148 71.1264 87.6108 71.1934C87.8016 71.8234 88.9167 71.3928 89.3487 71.3649C89.5646 71.351 89.7158 70.8491 89.4588 70.874C89.1348 70.8949 88.8478 70.9718 88.5238 70.9927Z" fill="#C29A6A" fill-opacity="0.24"/>
<path d="M89.3213 68.718C89.0002 68.9139 88.6122 69.1058 88.2252 69.0557C88.0652 69.0326 87.9671 69.3226 88.0821 69.4236C88.412 69.7527 89.1251 69.298 89.4311 69.1281C89.5992 69.0171 89.5713 68.5851 89.3472 68.733L89.3213 68.718Z" fill="#C29A6A" fill-opacity="0.24"/>
<path d="M88.2609 67.4412C88.2609 67.4412 88.1108 67.7012 88.2667 67.7912C88.3967 67.8662 88.6017 67.8113 88.7397 67.7524C88.9037 67.7084 89.0418 67.6495 89.1908 67.6315C89.4368 67.5656 89.4949 67.0447 89.1819 67.1066C88.8689 67.1684 88.4779 67.1853 88.2609 67.4412Z" fill="#C29A6A" fill-opacity="0.24"/>
<path d="M206.113 361.5C202.613 375.833 186.413 406 149.613 412C103.613 419.5 66.6134 396.5 11.1134 432.5C-15.8866 451.5 19.6094 508 20.6094 535C21.6094 562 22.6094 575.5 2.10937 594.5" stroke="#C29A6A" stroke-opacity="0.16"/>
</svg>
