<svg width="27" height="26" viewBox="0 0 27 26" fill="none" xmlns="http://www.w3.org/2000/svg">
<path d="M26.25 3.50999C26.249 2.57929 25.8788 1.687 25.2207 1.02889C24.5626 0.37078 23.6703 0.000603191 22.7396 -0.000427246H3.76042C2.82971 0.000603191 1.93742 0.37078 1.27932 1.02889C0.621208 1.687 0.25103 2.57929 0.25 3.50999V12.9996V22.4897C0.250957 23.4205 0.621102 24.3128 1.27922 24.971C1.93733 25.6292 2.82966 25.9994 3.76042 26.0004H22.7396C23.6703 25.9994 24.5627 25.6292 25.2208 24.971C25.8789 24.3128 26.249 23.4205 26.25 22.4897V12.9996V3.50999ZM25.2767 3.50999V12.5129H13.7366V0.972835H22.7396C23.4123 0.973571 24.0572 1.24111 24.5328 1.71676C25.0085 2.19241 25.276 2.83732 25.2767 3.50999ZM1.22326 3.50999C1.224 2.83732 1.49154 2.19241 1.96719 1.71676C2.44284 1.24111 3.08775 0.973571 3.76042 0.972835H12.7634V12.5129H1.22326V3.50999ZM1.22326 22.4897V13.487H12.7634V25.0271H3.76042C3.08772 25.0263 2.44282 24.7587 1.96717 24.283C1.49153 23.8073 1.224 23.1624 1.22326 22.4897ZM25.2767 22.4897C25.276 23.1624 25.0085 23.8073 24.5328 24.283C24.0572 24.7587 23.4123 25.0263 22.7396 25.0271H13.7366V13.487H25.2767V22.4897Z" fill="white" fill-opacity="0.42"/>
<path d="M9.737 6.25626H7.48126V4.00052C7.48126 3.87145 7.42999 3.74768 7.33873 3.65642C7.24747 3.56516 7.12369 3.51389 6.99463 3.51389C6.86557 3.51389 6.74179 3.56516 6.65053 3.65642C6.55927 3.74768 6.508 3.87145 6.508 4.00052V6.25626H4.25226C4.12319 6.25626 3.99942 6.30753 3.90816 6.39879C3.81689 6.49005 3.76563 6.61383 3.76562 6.74289C3.76563 6.87195 3.81689 6.99573 3.90816 7.08699C3.99942 7.17825 4.12319 7.22952 4.25226 7.22952H6.508V9.48526C6.508 9.61433 6.55927 9.7381 6.65053 9.82937C6.74179 9.92063 6.86557 9.9719 6.99463 9.9719C7.12369 9.9719 7.24747 9.92063 7.33873 9.82937C7.42999 9.7381 7.48126 9.61433 7.48126 9.48526V7.22952H9.737C9.86607 7.22952 9.98984 7.17825 10.0811 7.08699C10.1724 6.99573 10.2236 6.87195 10.2236 6.74289C10.2236 6.61383 10.1724 6.49005 10.0811 6.39879C9.98984 6.30753 9.86607 6.25626 9.737 6.25626Z" fill="white" fill-opacity="0.42"/>
<path d="M16.764 7.22952H22.2487C22.3778 7.22952 22.5016 7.17825 22.5928 7.08699C22.6841 6.99573 22.7354 6.87195 22.7354 6.74289C22.7354 6.61382 22.6841 6.49005 22.5928 6.39879C22.5016 6.30753 22.3778 6.25626 22.2487 6.25626H16.764C16.6349 6.25626 16.5111 6.30753 16.4199 6.39879C16.3286 6.49005 16.2773 6.61382 16.2773 6.74289C16.2773 6.87195 16.3286 6.99573 16.4199 7.08699C16.5111 7.17825 16.6349 7.22952 16.764 7.22952Z" fill="white" fill-opacity="0.42"/>
<path d="M9.27549 16.9738C9.23032 16.9286 9.17668 16.8927 9.11763 16.8682C9.05859 16.8437 8.99529 16.8311 8.93137 16.8311C8.86745 16.8311 8.80416 16.8437 8.74511 16.8682C8.68607 16.8927 8.63242 16.9286 8.58726 16.9738L6.99222 18.5688L5.39718 16.9738C5.30591 16.8825 5.18213 16.8313 5.05306 16.8313C4.92399 16.8313 4.80021 16.8825 4.70895 16.9738C4.61768 17.0651 4.56641 17.1889 4.56641 17.3179C4.56641 17.447 4.61768 17.5708 4.70895 17.662L6.30398 19.2562L4.70895 20.8513C4.61768 20.9426 4.56641 21.0663 4.56641 21.1954C4.56641 21.3245 4.61768 21.4483 4.70895 21.5395C4.80021 21.6308 4.92399 21.6821 5.05306 21.6821C5.18213 21.6821 5.30591 21.6308 5.39718 21.5395L6.99222 19.945L8.58726 21.5404C8.67852 21.6316 8.8023 21.6829 8.93137 21.6829C9.06044 21.6829 9.18422 21.6316 9.27549 21.5404C9.36676 21.4491 9.41803 21.3253 9.41803 21.1962C9.41803 21.0672 9.36676 20.9434 9.27549 20.8521L7.68045 19.2562L9.27549 17.6612C9.36644 17.5699 9.41751 17.4464 9.41751 17.3175C9.41751 17.1887 9.36644 17.0651 9.27549 16.9738Z" fill="white" fill-opacity="0.42"/>
<path d="M16.764 18.422H22.2487C22.3778 18.422 22.5016 18.3708 22.5928 18.2795C22.6841 18.1882 22.7354 18.0645 22.7354 17.9354C22.7354 17.8063 22.6841 17.6826 22.5928 17.5913C22.5016 17.5 22.3778 17.4488 22.2487 17.4488H16.764C16.6349 17.4488 16.5111 17.5 16.4199 17.5913C16.3286 17.6826 16.2773 17.8063 16.2773 17.9354C16.2773 18.0645 16.3286 18.1882 16.4199 18.2795C16.5111 18.3708 16.6349 18.422 16.764 18.422Z" fill="white" fill-opacity="0.42"/>
<path d="M16.764 21.0668H22.2487C22.3778 21.0668 22.5016 21.0155 22.5928 20.9243C22.6841 20.833 22.7354 20.7092 22.7354 20.5802C22.7354 20.4511 22.6841 20.3273 22.5928 20.2361C22.5016 20.1448 22.3778 20.0935 22.2487 20.0935H16.764C16.6349 20.0935 16.5111 20.1448 16.4199 20.2361C16.3286 20.3273 16.2773 20.4511 16.2773 20.5802C16.2773 20.7092 16.3286 20.833 16.4199 20.9243C16.5111 21.0155 16.6349 21.0668 16.764 21.0668Z" fill="white" fill-opacity="0.42"/>
</svg>
