<svg width="31" height="22" viewBox="0 0 31 22" fill="none" xmlns="http://www.w3.org/2000/svg">
<path d="M29.25 14.0921V11.5C29.2492 10.924 29.0499 10.3658 28.6855 9.91964C28.3212 9.47346 27.8142 9.16651 27.25 9.05054V2.5C27.2492 1.8372 26.9856 1.20176 26.5169 0.733092C26.0482 0.26442 25.4128 0.000778084 24.75 0H5.75C5.0872 0.000778084 4.45176 0.26442 3.98309 0.733092C3.51442 1.20176 3.25078 1.8372 3.25 2.5V9.05054C2.68577 9.16651 2.17877 9.47346 1.81446 9.91964C1.45014 10.3658 1.25079 10.924 1.25 11.5V14.0921C0.958368 14.1949 0.705683 14.3853 0.526634 14.6374C0.347585 14.8895 0.250951 15.1908 0.25 15.5V18.5C0.250434 18.8977 0.408609 19.279 0.689819 19.5602C0.97103 19.8414 1.35231 19.9996 1.75 20H1.8598L2.26514 21.6213C2.29216 21.7295 2.35456 21.8255 2.44241 21.8941C2.53027 21.9627 2.63853 22 2.75 22H4.75C4.86147 22 4.96973 21.9627 5.05759 21.8941C5.14544 21.8255 5.20784 21.7295 5.23487 21.6213L5.6402 20H24.8598L25.2651 21.6213C25.2922 21.7295 25.3546 21.8255 25.4424 21.8941C25.5303 21.9627 25.6385 22 25.75 22H27.75C27.8615 22 27.9697 21.9627 28.0576 21.8941C28.1454 21.8255 28.2078 21.7295 28.2349 21.6213L28.6402 20H28.75C29.1477 19.9996 29.529 19.8414 29.8102 19.5602C30.0914 19.279 30.2496 18.8977 30.25 18.5V15.5C30.249 15.1908 30.1524 14.8895 29.9734 14.6374C29.7943 14.3853 29.5416 14.1949 29.25 14.0921ZM5.75 1H24.75C25.1477 1.00043 25.529 1.15861 25.8102 1.43982C26.0914 1.72103 26.2496 2.10231 26.25 2.5V9H24.75V5.5C24.7496 5.10231 24.5914 4.72103 24.3102 4.43982C24.029 4.15861 23.6477 4.00043 23.25 4H17.25C16.8523 4.00043 16.471 4.15861 16.1898 4.43982C15.9086 4.72103 15.7504 5.10231 15.75 5.5V9H14.75V5.5C14.7496 5.10231 14.5914 4.72103 14.3102 4.43982C14.029 4.15861 13.6477 4.00043 13.25 4H7.25C6.85231 4.00043 6.47103 4.15861 6.18982 4.43982C5.90861 4.72103 5.75043 5.10231 5.75 5.5V9H4.25V2.5C4.25043 2.10231 4.40861 1.72103 4.68982 1.43982C4.97103 1.15861 5.35231 1.00043 5.75 1ZM23.75 9H16.75V5.5C16.7501 5.36743 16.8029 5.24033 16.8966 5.14659C16.9903 5.05285 17.1174 5.00013 17.25 5H23.25C23.3826 5.00013 23.5097 5.05285 23.6034 5.14659C23.6971 5.24033 23.7499 5.36743 23.75 5.5V9ZM13.75 9H6.75V5.5C6.75013 5.36743 6.80285 5.24033 6.89659 5.14659C6.99033 5.05285 7.11743 5.00013 7.25 5H13.25C13.3826 5.00013 13.5097 5.05285 13.6034 5.14659C13.6971 5.24033 13.7499 5.36743 13.75 5.5V9ZM3.75 10H26.75C27.1477 10.0004 27.529 10.1586 27.8102 10.4398C28.0914 10.721 28.2496 11.1023 28.25 11.5V14H2.25V11.5C2.25043 11.1023 2.40861 10.721 2.68982 10.4398C2.97103 10.1586 3.35231 10.0004 3.75 10ZM4.35938 21H3.14062L2.89035 20H4.60965L4.35938 21ZM27.3594 21H26.1406L25.8904 20H27.6096L27.3594 21ZM29.25 18.5C29.2499 18.6326 29.1971 18.7597 29.1034 18.8534C29.0097 18.9471 28.8826 18.9999 28.75 19H1.75C1.61743 18.9999 1.49033 18.9471 1.39659 18.8534C1.30285 18.7597 1.25013 18.6326 1.25 18.5V15.5C1.25013 15.3674 1.30285 15.2403 1.39659 15.1466C1.49033 15.0529 1.61743 15.0001 1.75 15H28.75C28.8826 15.0001 29.0097 15.0529 29.1034 15.1466C29.1971 15.2403 29.2499 15.3674 29.25 15.5V18.5Z" fill="white" fill-opacity="0.32"/>
</svg>
