<svg width="20" height="20" viewBox="0 0 20 20" fill="none" xmlns="http://www.w3.org/2000/svg">
<path d="M8.7931 2.06352C8.7931 1.47615 9.41064 1 10.1724 1C10.9342 1 11.5517 1.47615 11.5517 2.06352L11.5517 7.0427L15 6.31758L10 13L5 6.31758L8.7931 7.11521L8.7931 2.06352Z" stroke="#7F7A76"/>
<path d="M2 19V19.5V19ZM18 19V19.5V19ZM15 16V16.5V16ZM3 10.5H2V11.5H3V10.5ZM4.5 15V12H3.5V15H4.5ZM5 16.5L15 16.5V15.5L5 15.5V16.5ZM15.5 12V15H16.5V12H15.5ZM18 10.5H17V11.5H18V10.5ZM19.5 16V12H18.5V16H19.5ZM18.5 16V18H19.5V16H18.5ZM18 18.5L2 18.5V19.5L18 19.5V18.5ZM1.5 18V16H0.5V18H1.5ZM0.5 12V16H1.5V12H0.5ZM2 18.5C1.72386 18.5 1.5 18.2761 1.5 18H0.5C0.5 18.8284 1.17157 19.5 2 19.5V18.5ZM18.5 18C18.5 18.2761 18.2761 18.5 18 18.5V19.5C18.8284 19.5 19.5 18.8284 19.5 18H18.5ZM18 11.5C18.2761 11.5 18.5 11.7239 18.5 12H19.5C19.5 11.1716 18.8284 10.5 18 10.5V11.5ZM16.5 12C16.5 11.7239 16.7239 11.5 17 11.5V10.5C16.1716 10.5 15.5 11.1716 15.5 12H16.5ZM15 16.5C15.8284 16.5 16.5 15.8284 16.5 15H15.5C15.5 15.2761 15.2761 15.5 15 15.5V16.5ZM3.5 15C3.5 15.8284 4.17157 16.5 5 16.5V15.5C4.72386 15.5 4.5 15.2761 4.5 15H3.5ZM2 10.5C1.17157 10.5 0.5 11.1716 0.5 12H1.5C1.5 11.7239 1.72386 11.5 2 11.5V10.5ZM3 11.5C3.27614 11.5 3.5 11.7239 3.5 12H4.5C4.5 11.1716 3.82843 10.5 3 10.5V11.5Z" fill="#7F7A76"/>
</svg>
