<svg width="17" height="18" viewBox="0 0 17 18" fill="none" xmlns="http://www.w3.org/2000/svg">
<path d="M7.9501 9.14804C8.086 9.2389 8.34228 9.2389 8.53177 9.10571L15.4284 3.33884C15.0911 3.12445 14.6986 3 14.2818 3H2.14653C1.72596 3 1.33164 3.11935 0.998047 3.32874L7.9501 9.14804Z" fill="#B7946C"/>
<path d="M9.49923 10.3673C9.09618 10.6511 8.64187 10.7905 8.19533 10.7905C7.76665 10.7905 7.34496 10.6616 6.98385 10.4088L0.0666899 4.62167C0.0237831 4.79267 0 4.96944 0 5.14714V12.8529C0 14.0378 0.962246 15 2.14713 15H14.2824C15.4672 15 16.4295 14.0378 16.4295 12.8529V5.14714C16.4295 4.97036 16.4086 4.79582 16.368 4.62726L9.49923 10.3673Z" fill="#B7946C"/>
</svg>
