<svg width="14" height="21" viewBox="0 0 14 21" fill="none" xmlns="http://www.w3.org/2000/svg">
<g clip-path="url(#clip0_22_2829)">
<path d="M13.2708 11.9648C13.3679 11.4635 13.4166 10.9751 13.4166 10.5C13.4166 9.56898 13.2481 8.67867 12.9107 7.82902C12.5736 6.97944 12.1178 6.24709 11.5436 5.63181C10.9694 5.01654 10.2859 4.52827 9.49294 4.16686C8.69978 3.80569 7.86908 3.62495 7.00003 3.62495C6.55647 3.62495 6.10069 3.67708 5.63281 3.78127C5.00086 3.26043 4.28991 3 3.49997 3C2.53387 3 1.70904 3.36616 1.02541 4.09848C0.341719 4.83101 0 5.71476 0 6.7499C0 7.59626 0.243072 8.358 0.729122 9.03508C0.631944 9.53635 0.583291 10.0247 0.583291 10.5C0.583291 11.4308 0.751852 12.3211 1.08907 13.1708C1.42625 14.0204 1.88201 14.7528 2.4563 15.3682C3.03052 15.9834 3.71415 16.4715 4.50709 16.833C5.30009 17.1943 6.13105 17.3749 6.99997 17.3749C7.44349 17.3749 7.89928 17.3227 8.36742 17.2186C8.9992 17.7395 9.71009 18 10.5001 18C11.4661 18 12.2912 17.6337 12.9744 16.9014C13.6581 16.1688 13.9998 15.2851 13.9998 14.2499C13.9996 13.4036 13.7567 12.642 13.2708 11.9648ZM10.3904 13.415C10.19 13.7959 9.92102 14.1002 9.58387 14.3281C9.24652 14.556 8.87438 14.73 8.46731 14.8505C8.06024 14.9709 7.63494 15.0312 7.19126 15.0312C6.16447 15.0312 5.28042 14.818 4.53904 14.3914C3.79766 13.9649 3.42702 13.4524 3.42702 12.8533C3.42702 12.5605 3.50453 12.3165 3.65949 12.1211C3.81442 11.9257 4.0438 11.8282 4.34762 11.8282C4.52385 11.8282 4.68784 11.8803 4.83974 11.9843C4.99164 12.0885 5.13137 12.214 5.25904 12.3605C5.3867 12.5071 5.52484 12.6534 5.67373 12.8C5.82253 12.9465 6.02002 13.0718 6.26609 13.1759C6.51223 13.2801 6.79023 13.3323 7.10021 13.3323C7.49515 13.3323 7.81404 13.2494 8.05734 13.0835C8.30028 12.9173 8.42179 12.7073 8.42179 12.4535C8.42179 12.1929 8.32467 11.9977 8.13032 11.8675C7.99681 11.7761 7.65637 11.6589 7.10947 11.5158L5.7786 11.164C5.41406 11.073 5.1011 10.9673 4.83977 10.8469C4.57844 10.7264 4.33537 10.5687 4.11059 10.3732C3.88587 10.178 3.71571 9.93227 3.60024 9.63592C3.4848 9.33978 3.42708 8.99301 3.42708 8.59589C3.42708 8.12058 3.52889 7.70243 3.73238 7.34099C3.93586 6.97962 4.20642 6.69637 4.54355 6.49131C4.88073 6.28622 5.24381 6.13325 5.63277 6.03235C6.02158 5.93141 6.42265 5.88096 6.83584 5.88096C7.4193 5.88096 7.972 5.95587 8.49467 6.10558C9.01721 6.2553 9.44863 6.47503 9.78882 6.76474C10.129 7.05456 10.2991 7.37844 10.2991 7.73646C10.2991 8.02933 10.2127 8.28008 10.0393 8.48835C9.86649 8.69659 9.63705 8.80078 9.35136 8.80078C9.1934 8.80078 9.04763 8.76168 8.91393 8.68356C8.7803 8.60547 8.65886 8.5111 8.54926 8.40041C8.43989 8.28979 8.32429 8.18072 8.20282 8.07331C8.08131 7.96591 7.91722 7.87315 7.71086 7.79502C7.50402 7.7169 7.27024 7.6778 7.00897 7.6778C6.13405 7.6778 5.69649 7.92828 5.69649 8.42969C5.69649 8.54031 5.71932 8.638 5.76485 8.72262C5.8104 8.80724 5.86062 8.87562 5.91521 8.92771C5.96977 8.97987 6.06094 9.0319 6.18861 9.08403C6.31628 9.13619 6.42262 9.17371 6.50766 9.19636C6.59268 9.21914 6.72647 9.25331 6.9087 9.29883L7.85666 9.53317C8.15436 9.60486 8.42006 9.67977 8.65416 9.75779C8.8882 9.83605 9.13881 9.94664 9.40614 10.0899C9.67348 10.2331 9.89526 10.3926 10.0714 10.5684C10.2477 10.7443 10.395 10.9671 10.5136 11.2372C10.6322 11.5075 10.6913 11.8054 10.6913 12.1308C10.6912 12.6061 10.5911 13.0342 10.3904 13.415Z" fill="#B7946C"/>
</g>
<defs>
<clipPath id="clip0_22_2829">
<rect width="14" height="15" fill="white" transform="translate(0 3)"/>
</clipPath>
</defs>
</svg>
