<svg width="15" height="21" viewBox="0 0 15 21" fill="none" xmlns="http://www.w3.org/2000/svg">
<g clip-path="url(#clip0_22_2822)">
<path fill-rule="evenodd" clip-rule="evenodd" d="M15.7261 16.1939C15.6265 16.2932 15.5064 16.4202 15.379 16.5545C15.0612 16.8918 14.6642 17.3111 14.4153 17.4811C13.106 18.3758 11.3544 17.9477 10.1154 17.4315C8.481 16.7505 6.70154 15.4952 5.10377 13.8972C3.50452 12.2992 2.24938 10.5191 1.56837 8.88562C1.05275 7.64637 0.623753 5.89441 1.51857 4.58484C1.68849 4.33582 2.10875 3.9394 2.44561 3.62098C2.58037 3.494 2.70635 3.37403 2.80596 3.27475C2.9828 3.09878 3.22213 3 3.4716 3C3.72107 3 3.9604 3.09878 4.13724 3.27475L6.54626 5.68307C6.72213 5.8599 6.82085 6.09916 6.82085 6.34856C6.82085 6.59796 6.72213 6.83722 6.54626 7.01405L5.89001 7.66898C5.67085 7.88655 5.52779 8.16906 5.48214 8.47448C5.43648 8.7799 5.49066 9.0919 5.63662 9.36404C6.53925 11.0677 7.93275 12.4609 9.63653 13.3633C9.90861 13.5092 10.2205 13.5633 10.5259 13.5176C10.8312 13.4718 11.1136 13.3287 11.331 13.1095L11.9856 12.4545C12.1625 12.2785 12.4018 12.1798 12.6513 12.1798C12.9008 12.1798 13.1401 12.2785 13.3169 12.4545L15.7261 14.8632C15.902 15.04 16.0007 15.2792 16.0007 15.5286C16.0007 15.7779 15.902 16.0172 15.7261 16.1939Z" fill="#B7946C"/>
</g>
<defs>
<clipPath id="clip0_22_2822">
<rect width="15" height="20.9999" fill="white"/>
</clipPath>
</defs>
</svg>
