<svg width="18" height="18" viewBox="0 0 18 18" fill="none" xmlns="http://www.w3.org/2000/svg">
<path d="M6.106 8.76024C6.92725 9.36602 7.91985 9.69226 8.94015 9.69226C9.96045 9.69226 10.953 9.366 11.7743 8.76024C13.0395 7.85851 13.7898 6.39952 13.7863 4.84609C13.7863 3.11445 12.8629 1.51525 11.3631 0.649032C9.86342 -0.216344 8.01678 -0.216344 6.51696 0.649032C5.01725 1.51529 4.09376 3.11454 4.09376 4.84609C4.0903 6.39946 4.84081 7.85858 6.106 8.76024Z" fill="#A1A0A0"/>
<path d="M17.8671 16.1819C17.5053 13.2906 15.7642 10.7542 13.1957 9.37817C12.8192 9.74336 12.3935 10.054 11.9314 10.3015C10.0682 11.3227 7.81295 11.3227 5.94981 10.3015C5.4877 10.054 5.06192 9.74338 4.68548 9.37817C2.11696 10.7541 0.375882 13.2906 0.0141082 16.1819C-0.0473335 16.6397 0.0937249 17.1018 0.401802 17.4462C0.709874 17.7975 1.15382 17.9992 1.62027 18H16.2609C16.7274 17.9992 17.1713 17.7975 17.4794 17.4462C17.7874 17.1018 17.9285 16.6397 17.8671 16.1819Z" fill="#A1A0A0"/>
</svg>
