<svg width="18" height="16" viewBox="0 0 18 16" fill="none" xmlns="http://www.w3.org/2000/svg">
<path d="M17.7898 8.66144L9.63957 0.105937C9.49472 -0.0353122 9.27005 -0.0353122 9.12518 0.105937L0.97497 8.66144C0.881851 8.77475 0.856722 8.93307 0.911411 9.0712C0.9661 9.21089 1.09026 9.30558 1.23216 9.31644H3.03691V15.6026C3.03691 15.7082 3.07682 15.8091 3.14776 15.8836C3.21871 15.9581 3.31479 16 3.4153 16H7.00266C7.10317 16 7.19924 15.9581 7.27019 15.8836C7.34114 15.8091 7.38105 15.7082 7.38105 15.6026V11.2985C7.38105 11.0796 7.54955 10.9011 7.75944 10.9011H11.0896C11.1886 10.9011 11.2862 10.943 11.3571 11.0175C11.4281 11.092 11.468 11.1945 11.468 11.2985V15.6026C11.468 15.7082 11.5079 15.8091 11.5789 15.8836C11.6498 15.9581 11.7459 16 11.8464 16H15.3613C15.4618 16 15.5579 15.9581 15.6289 15.8836C15.6998 15.8091 15.7397 15.7082 15.7397 15.6026V9.31644H17.5445C17.6849 9.30092 17.8046 9.20469 17.8563 9.06654C17.9081 8.92995 17.8829 8.77319 17.7898 8.66144Z" fill="#A1A0A0"/>
</svg>
