<svg width="17" height="12" viewBox="0 0 17 12" fill="none" xmlns="http://www.w3.org/2000/svg">
<path d="M8.4169 6.14804C8.5528 6.2389 8.80908 6.2389 8.99857 6.10571L15.8952 0.338837C15.5579 0.124449 15.1654 0 14.7486 0H2.61333C2.19275 0 1.79844 0.119353 1.46484 0.328741L8.4169 6.14804Z" fill="#B7946C"/>
<path d="M9.96407 7.36729C9.56102 7.65114 9.10671 7.79053 8.66017 7.79053C8.23149 7.79053 7.8098 7.66162 7.44869 7.40884L0.531534 1.62167C0.488627 1.79267 0.464844 1.96944 0.464844 2.14714V9.85292C0.464844 11.0378 1.42709 12 2.61198 12H14.7472C15.9321 12 16.8943 11.0378 16.8943 9.85292V2.14714C16.8943 1.97036 16.8735 1.79582 16.8328 1.62726L9.96407 7.36729Z" fill="#B7946C"/>
</svg>
