<svg width="15" height="15" viewBox="0 0 15 15" fill="none" xmlns="http://www.w3.org/2000/svg">
<g clip-path="url(#clip0_22_2627)">
<path fill-rule="evenodd" clip-rule="evenodd" d="M14.7261 13.1941C14.6265 13.2934 14.5064 13.4204 14.379 13.5547C14.0612 13.892 13.6642 14.3113 13.4153 14.4813C12.106 15.376 10.3544 14.9479 9.11544 14.4317C7.481 13.7507 5.70154 12.4954 4.10377 10.8975C2.50452 9.29936 1.24938 7.51934 0.568372 5.88584C0.0527474 4.64658 -0.376247 2.89463 0.518568 1.58506C0.68849 1.33603 1.10875 0.939618 1.44561 0.62119C1.58037 0.494217 1.70635 0.374247 1.80596 0.27496C1.9828 0.0989956 2.22213 0.000213623 2.4716 0.000213623C2.72107 0.000213623 2.9604 0.0989956 3.13724 0.27496L5.54626 2.68328C5.72213 2.86011 5.82085 3.09937 5.82085 3.34877C5.82085 3.59817 5.72213 3.83743 5.54626 4.01427L4.89001 4.6692C4.67085 4.88676 4.52779 5.16927 4.48214 5.47469C4.43648 5.78011 4.49066 6.09211 4.63662 6.36426C5.53925 8.06788 6.93275 9.46114 8.63653 10.3635C8.90861 10.5094 9.22055 10.5635 9.52588 10.5178C9.83121 10.472 10.1136 10.3289 10.331 10.1097L10.9856 9.45473C11.1625 9.27876 11.4018 9.17998 11.6513 9.17998C11.9008 9.17998 12.1401 9.27876 12.3169 9.45473L14.7261 11.8635C14.902 12.0402 15.0007 12.2794 15.0007 12.5288C15.0007 12.7782 14.902 13.0174 14.7261 13.1941Z" fill="#B7946C"/>
</g>
<defs>
<clipPath id="clip0_22_2627">
<rect width="15" height="15" fill="white"/>
</clipPath>
</defs>
</svg>
