<svg width="32" height="33" viewBox="0 0 32 33" fill="none" xmlns="http://www.w3.org/2000/svg">
<g clip-path="url(#clip0_21_623)">
<path fill-rule="evenodd" clip-rule="evenodd" d="M31.375 32.5002H0.625C0.375 32.5002 0.25 32.3127 0.25 32.1252V18.3752C0.25 18.1877 0.375 18.0002 0.5625 18.0002C0.6875 18.0002 3.3125 17.8127 6.75 18.5002C9.9375 19.0627 14.375 20.4377 17.5 23.8127C17.625 23.9377 17.625 24.1877 17.5 24.3127C17.3125 24.5002 17.125 24.4377 16.9375 24.3127C13.9375 21.1252 9.6875 19.7502 6.625 19.1877C4 18.7502 1.8125 18.6877 1 18.7502V31.7502H31V24.5002C31 24.3127 31.1875 24.1252 31.375 24.1252C31.625 24.1252 31.75 24.3127 31.75 24.5002V32.1252C31.75 32.3127 31.625 32.5002 31.375 32.5002Z" fill="#322B27" fill-opacity="0.86"/>
<path fill-rule="evenodd" clip-rule="evenodd" d="M27.3111 25.8751C25.3736 25.8751 23.8111 25.1876 22.4986 24.6251C20.6236 23.8126 19.1236 23.1251 17.2486 24.5001C16.1861 25.2501 15.2486 25.5626 14.3736 25.5626C13.2486 25.5626 12.1861 25.1251 11.0611 24.6251C8.56113 23.5626 5.74863 22.3751 0.811126 25.3751C0.623626 25.4376 0.373626 25.3751 0.311126 25.2501C0.186126 25.0626 0.248626 24.8126 0.436126 24.6876C5.68613 21.5626 8.81113 22.8751 11.3736 23.9376C13.3111 24.7501 14.8111 25.3751 16.8111 23.8751C19.0611 22.3126 20.8736 23.0626 22.8111 23.9376C24.9361 24.8751 27.3736 25.9376 31.2486 24.1251C31.4361 24.0626 31.6236 24.1251 31.7486 24.3126C31.8111 24.5001 31.7486 24.7501 31.5611 24.8126C29.9361 25.5626 28.4986 25.8751 27.3111 25.8751Z" fill="#322B27" fill-opacity="0.86"/>
<path fill-rule="evenodd" clip-rule="evenodd" d="M27.3111 28.5626C25.3736 28.5626 23.8111 27.9376 22.4986 27.3126C20.6236 26.5001 19.1236 25.8751 17.2486 27.2501C16.1861 28.0001 15.2486 28.3126 14.3736 28.3126C13.2486 28.3126 12.1861 27.8126 11.0611 27.3751C8.56113 26.3126 5.74863 25.1251 0.811126 28.0626C0.623626 28.1876 0.373626 28.1251 0.311126 27.9376C0.186126 27.7501 0.248626 27.5626 0.436126 27.4376C5.68613 24.3126 8.81113 25.6251 11.3736 26.6876C13.3111 27.5001 14.8111 28.1251 16.8111 26.6251C19.0611 25.0001 20.8736 25.8126 22.8111 26.6251C24.9361 27.5626 27.3736 28.6251 31.2486 26.8751C31.4361 26.8126 31.6236 26.8751 31.7486 27.0626C31.8111 27.2501 31.7486 27.5001 31.5611 27.5626C29.9361 28.3126 28.4986 28.5626 27.3111 28.5626Z" fill="#322B27" fill-opacity="0.86"/>
<path fill-rule="evenodd" clip-rule="evenodd" d="M27.3111 31.3126C25.3736 31.3126 23.8111 30.6251 22.4986 30.0626C20.6236 29.2501 19.1236 28.6251 17.2486 29.9376C16.1861 30.7501 15.2486 31.0001 14.3736 31.0001C13.2486 31.0001 12.1861 30.5626 11.0611 30.1251C8.56113 29.0626 5.74863 27.8751 0.811126 30.8126C0.623626 30.9376 0.373626 30.8751 0.311126 30.6876C0.186126 30.5001 0.248626 30.2501 0.436126 30.1876C5.68613 27.0001 8.81113 28.3751 11.3736 29.4376C13.3111 30.2501 14.8111 30.8751 16.8111 29.3751C19.0611 27.7501 20.8736 28.5626 22.8111 29.3751C24.9361 30.3126 27.3736 31.3751 31.2486 29.6251C31.4361 29.5001 31.6236 29.6251 31.7486 29.8126C31.8111 30.0001 31.7486 30.1876 31.5611 30.3126C29.9361 31.0626 28.4986 31.3126 27.3111 31.3126Z" fill="#322B27" fill-opacity="0.86"/>
<path fill-rule="evenodd" clip-rule="evenodd" d="M24.9375 17.9375C23.4375 17.9375 22.1875 16.75 22.1875 15.1875C22.1875 13.6875 23.4375 12.5 24.9375 12.5C26.4375 12.5 27.625 13.6875 27.625 15.1875C27.625 16.75 26.4375 17.9375 24.9375 17.9375ZM24.9375 13.25C23.8125 13.25 22.9375 14.125 22.9375 15.1875C22.9375 16.3125 23.8125 17.1875 24.9375 17.1875C26 17.1875 26.875 16.3125 26.875 15.1875C26.875 14.125 26 13.25 24.9375 13.25Z" fill="#322B27" fill-opacity="0.86"/>
<path fill-rule="evenodd" clip-rule="evenodd" d="M24.9375 11.875C24.6875 11.875 24.5625 11.6875 24.5625 11.5V10.25C24.5625 10.0625 24.6875 9.875 24.9375 9.875C25.125 9.875 25.3125 10.0625 25.3125 10.25V11.5C25.3125 11.6875 25.125 11.875 24.9375 11.875Z" fill="#322B27" fill-opacity="0.86"/>
<path fill-rule="evenodd" clip-rule="evenodd" d="M27.5625 12.9375C27.4375 12.9375 27.375 12.9375 27.3125 12.8125C27.125 12.6875 27.125 12.4375 27.3125 12.3125L28.1875 11.4375C28.3125 11.3125 28.5625 11.3125 28.6875 11.4375C28.875 11.5625 28.875 11.8125 28.6875 12L27.8125 12.8125C27.75 12.9375 27.6875 12.9375 27.5625 12.9375Z" fill="#322B27" fill-opacity="0.86"/>
<path fill-rule="evenodd" clip-rule="evenodd" d="M29.875 15.5625H28.625C28.4375 15.5625 28.25 15.4375 28.25 15.1875C28.25 15 28.4375 14.8125 28.625 14.8125H29.875C30.125 14.8125 30.25 15 30.25 15.1875C30.25 15.4375 30.125 15.5625 29.875 15.5625Z" fill="#322B27" fill-opacity="0.86"/>
<path fill-rule="evenodd" clip-rule="evenodd" d="M28.4375 19.125C28.3125 19.125 28.25 19.0625 28.1875 19L27.3125 18.125C27.125 18 27.125 17.75 27.3125 17.5625C27.4375 17.4375 27.6875 17.4375 27.8125 17.5625L28.6875 18.4375C28.875 18.625 28.875 18.875 28.6875 19C28.625 19.0625 28.5 19.125 28.4375 19.125Z" fill="#322B27" fill-opacity="0.86"/>
<path fill-rule="evenodd" clip-rule="evenodd" d="M24.9375 20.5625C24.6875 20.5625 24.5625 20.375 24.5625 20.1875V18.9375C24.5625 18.75 24.6875 18.5625 24.9375 18.5625C25.125 18.5625 25.3125 18.75 25.3125 18.9375V20.1875C25.3125 20.375 25.125 20.5625 24.9375 20.5625Z" fill="#322B27" fill-opacity="0.86"/>
<path fill-rule="evenodd" clip-rule="evenodd" d="M21.4375 19.125C21.3125 19.125 21.1875 19.0625 21.125 19C21 18.875 21 18.625 21.125 18.4375L22 17.5625C22.1875 17.4375 22.375 17.4375 22.5625 17.5625C22.6875 17.75 22.6875 18 22.5625 18.125L21.6875 19C21.625 19.0625 21.5 19.125 21.4375 19.125Z" fill="#322B27" fill-opacity="0.86"/>
<path fill-rule="evenodd" clip-rule="evenodd" d="M21.1875 15.5625H19.9375C19.75 15.5625 19.5625 15.4375 19.5625 15.1875C19.5625 15 19.75 14.8125 19.9375 14.8125H21.1875C21.375 14.8125 21.5625 15 21.5625 15.1875C21.5625 15.4375 21.375 15.5625 21.1875 15.5625Z" fill="#322B27" fill-opacity="0.86"/>
<path fill-rule="evenodd" clip-rule="evenodd" d="M22.3125 12.9375C22.1875 12.9375 22.0625 12.9375 22 12.8125L21.125 12C21 11.8125 21 11.5625 21.125 11.4375C21.3125 11.3125 21.5 11.3125 21.6875 11.4375L22.5625 12.3125C22.6875 12.4375 22.6875 12.6875 22.5625 12.8125C22.5 12.9375 22.375 12.9375 22.3125 12.9375Z" fill="#322B27" fill-opacity="0.86"/>
<path fill-rule="evenodd" clip-rule="evenodd" d="M12 9.9375C10.9375 9.9375 10 9.0625 10 7.9375C10 6.8125 10.9375 5.9375 12 5.9375C13.125 5.9375 14.0625 6.8125 14.0625 7.9375C14.0625 9.0625 13.125 9.9375 12 9.9375ZM12 6.6875C11.3125 6.6875 10.75 7.25 10.75 7.9375C10.75 8.625 11.3125 9.1875 12 9.1875C12.75 9.1875 13.3125 8.625 13.3125 7.9375C13.3125 7.25 12.75 6.6875 12 6.6875Z" fill="#322B27" fill-opacity="0.86"/>
<path fill-rule="evenodd" clip-rule="evenodd" d="M5.12173 19.0002C5.05923 19.0002 5.05923 18.9377 4.99673 18.9377C4.80923 18.8752 4.68423 18.6877 4.74673 18.5002C6.37173 13.1252 9.12173 9.62517 10.2467 8.37517C10.3717 8.25017 10.6217 8.18767 10.8092 8.37517C10.9342 8.50017 10.9342 8.75017 10.8092 8.87517C9.74673 10.0627 7.05923 13.5002 5.49673 18.6877C5.43423 18.8752 5.24673 19.0002 5.12173 19.0002Z" fill="#322B27" fill-opacity="0.86"/>
<path fill-rule="evenodd" clip-rule="evenodd" d="M8.5625 19.625C8.3125 19.625 8.1875 19.4375 8.1875 19.25C8.6875 14.3125 10.4375 10.5 11 9.25C11.0625 9.0625 11.3125 9 11.5 9.0625C11.6875 9.1875 11.75 9.375 11.6875 9.5625C11.125 10.8125 9.375 14.5625 8.9375 19.3125C8.9375 19.5 8.75 19.625 8.5625 19.625Z" fill="#322B27" fill-opacity="0.86"/>
<path fill-rule="evenodd" clip-rule="evenodd" d="M21.25 9.06265C21.1875 9.06265 21.0625 9.00015 21 9.00015C21 8.93765 16.4375 5.81265 14.125 7.43765C13.9375 7.56265 13.6875 7.50015 13.5625 7.31265C13.4375 7.18765 13.5 6.93765 13.6875 6.81265C14.875 6.00015 16.5625 6.00015 18.6875 6.87515C19.375 7.12515 20 7.43765 20.4375 7.75015C19.6875 6.00015 18.625 5.00015 17.4375 4.75015C15.0625 4.18765 12.6875 6.56265 12.625 6.56265C12.5 6.75015 12.25 6.75015 12.125 6.56265C11.9375 6.43765 11.9375 6.18765 12.125 6.06265C12.25 5.93765 14.8125 3.37515 17.5625 4.00015C19.3125 4.37515 20.625 5.93765 21.5625 8.56265C21.625 8.68765 21.625 8.87515 21.4375 8.93765C21.375 9.00015 21.3125 9.06265 21.25 9.06265Z" fill="#322B27" fill-opacity="0.86"/>
<path fill-rule="evenodd" clip-rule="evenodd" d="M18.125 15.125C17.9375 15.125 17.8125 15 17.8125 14.8125C17.75 14.75 16.375 9.25 13.4375 9.0625C13.25 9.0625 13.125 8.875 13.125 8.6875C13.125 8.5 13.3125 8.3125 13.5 8.3125C16.125 8.4375 17.5625 11.75 18.1875 13.5C18.6875 11.75 18.625 10.375 17.9375 9.375C16.875 7.6875 14.4375 7.5 13.4375 7.5C13.25 7.5 13.0625 7.3125 13.0625 7.125C13.0625 6.875 13.25 6.75 13.4375 6.75C14.5625 6.75 17.3125 7 18.5625 8.9375C19.5 10.375 19.5 12.375 18.5 14.875C18.4375 15 18.3125 15.125 18.125 15.125Z" fill="#322B27" fill-opacity="0.86"/>
<path fill-rule="evenodd" clip-rule="evenodd" d="M12.6223 17.4375C12.5598 17.4375 12.4348 17.4375 12.3723 17.375C12.2473 17.25 12.1848 17.0625 12.2473 16.9375C12.3098 16.875 14.4348 11.6875 12.2473 9.8125C12.0598 9.625 12.0598 9.4375 12.1848 9.25C12.3723 9.125 12.5598 9.0625 12.7473 9.25C14.6223 10.875 13.9348 14.3125 13.3723 16.125C14.7473 15.0625 15.4973 13.9375 15.6223 12.8125C15.8098 11.25 14.7473 9.9375 13.8723 9.0625C13.7473 8.9375 13.6848 8.6875 13.8723 8.5625C13.9973 8.375 14.2473 8.375 14.3723 8.5625C15.3723 9.5 16.5598 11.0625 16.3723 12.875C16.1848 14.5 14.9973 16 12.8098 17.375C12.7473 17.4375 12.6848 17.4375 12.6223 17.4375Z" fill="#322B27" fill-opacity="0.86"/>
<path fill-rule="evenodd" clip-rule="evenodd" d="M11.5625 6.75012C11.3125 6.75012 11.1875 6.56262 11.1875 6.37512C11.0625 3.31262 5.1875 2.18762 5.125 2.18762C5 2.18762 4.875 2.06262 4.8125 1.87512C4.8125 1.68762 4.875 1.56262 5.0625 1.50012C7.4375 0.375122 9.4375 0.187622 10.875 1.00012C12.75 2.06262 13.3125 4.37512 13.4375 5.68762C13.5 5.87512 13.3125 6.06262 13.125 6.12512C12.9375 6.12512 12.75 6.00012 12.6875 5.75012C12.5625 4.62512 12.125 2.56262 10.5625 1.68762C9.5 1.06262 8.125 1.12512 6.4375 1.75012C8.3125 2.25012 11.8125 3.62512 11.9375 6.37512C11.9375 6.56262 11.75 6.75012 11.5625 6.75012Z" fill="#322B27" fill-opacity="0.86"/>
<path fill-rule="evenodd" clip-rule="evenodd" d="M3.05968 8.68765C2.99718 8.68765 2.93468 8.68765 2.87218 8.62515C2.74718 8.50015 2.68468 8.31265 2.74718 8.18765C3.80968 5.75015 5.12218 4.31265 6.74718 3.93765C8.80968 3.50015 10.7472 4.81265 11.7472 5.62515C11.8722 5.81265 11.9347 6.00015 11.7472 6.18765C11.6222 6.31265 11.3722 6.37515 11.2472 6.25015C10.3722 5.50015 8.68468 4.31265 6.93468 4.68765C5.80968 4.93765 4.74718 5.87515 3.93468 7.43765C5.43468 6.68765 8.30968 5.56265 10.3097 6.62515C10.4972 6.75015 10.5597 6.93765 10.4347 7.12515C10.3722 7.31265 10.1222 7.37515 9.93468 7.31265C7.62218 6.00015 3.30968 8.62515 3.30968 8.62515C3.24718 8.68765 3.18468 8.68765 3.05968 8.68765Z" fill="#322B27" fill-opacity="0.86"/>
<path fill-rule="evenodd" clip-rule="evenodd" d="M5.37388 14.25C5.31138 14.25 5.31138 14.25 5.31138 14.25C5.12388 14.25 4.99888 14.125 4.99888 13.9375C4.37388 11.375 4.62388 9.43754 5.74888 8.18754C7.12388 6.56254 9.43638 6.50004 10.7489 6.62504C10.9364 6.62504 11.0614 6.81254 11.0614 7.00004C11.0614 7.25004 10.8739 7.37504 10.6864 7.37504C9.56138 7.25004 7.49888 7.31254 6.31138 8.62504C5.56138 9.56254 5.24888 10.875 5.49888 12.6875C6.31138 11.0625 8.12388 8.31254 10.4989 8.25004C10.7489 8.25004 10.8739 8.37504 10.9364 8.62504C10.9364 8.81254 10.7489 9.00004 10.5614 9.00004C7.74888 9.06254 5.68638 13.9375 5.68638 14C5.62388 14.125 5.49888 14.25 5.37388 14.25Z" fill="#322B27" fill-opacity="0.86"/>
<path fill-rule="evenodd" clip-rule="evenodd" d="M10.1861 12.5626C10.1236 12.5626 10.0611 12.5626 9.99863 12.5626C9.43613 12.2501 8.93613 11.8751 8.37363 11.5626C8.18613 11.5001 8.12363 11.2501 8.24863 11.0626C8.31113 10.8751 8.56113 10.8126 8.74863 10.9376C9.31113 11.2501 9.81113 11.5626 10.3736 11.8751C10.5611 12.0001 10.6236 12.2501 10.4986 12.3751C10.4361 12.5001 10.3111 12.5626 10.1861 12.5626Z" fill="#322B27" fill-opacity="0.86"/>
<path fill-rule="evenodd" clip-rule="evenodd" d="M13.1875 17.0626C13.125 17.0626 13.0625 17.0626 13 17.0001L12.6875 16.8126C12.5 16.6876 12.4375 16.4376 12.5 16.3126C12.625 16.1251 12.875 16.0626 13.0625 16.1251L13.375 16.3751C13.5625 16.5001 13.625 16.6876 13.5625 16.8751C13.4375 17.0001 13.3125 17.0626 13.1875 17.0626ZM9.4375 14.8751C9.375 14.8751 9.3125 14.8751 9.25 14.8126C8.5625 14.4376 7.875 14.0001 7.1875 13.6251C7 13.5001 6.9375 13.2501 7 13.0626C7.125 12.9376 7.375 12.8751 7.5625 12.9376C8.25 13.3751 8.9375 13.7501 9.625 14.1876C9.8125 14.2501 9.875 14.5001 9.8125 14.6876C9.6875 14.8126 9.5625 14.8751 9.4375 14.8751Z" fill="#322B27" fill-opacity="0.86"/>
<path fill-rule="evenodd" clip-rule="evenodd" d="M8.87363 17.2501C8.81113 17.2501 8.74863 17.2501 8.68613 17.1876C7.74863 16.6876 6.87363 16.1251 6.12363 15.6876C5.93613 15.6251 5.87363 15.3751 5.99863 15.1876C6.12363 15.0001 6.31113 14.9376 6.49863 15.0626C7.24863 15.5001 8.12363 16.0001 9.12363 16.5626C9.24863 16.6876 9.31113 16.8751 9.24863 17.0626C9.18613 17.1876 9.06113 17.2501 8.87363 17.2501Z" fill="#322B27" fill-opacity="0.86"/>
</g>
<defs>
<clipPath id="clip0_21_623">
<rect width="32" height="32" fill="white" transform="translate(0 0.5)"/>
</clipPath>
</defs>
</svg>
