<svg width="30" height="31" viewBox="0 0 30 31" fill="none" xmlns="http://www.w3.org/2000/svg">
<path d="M15 0.5C6.729 0.5 0 7.229 0 15.5C0 23.771 6.729 30.5 15 30.5C23.271 30.5 30 23.771 30 15.5C30 7.229 23.271 0.5 15 0.5ZM15 29.5C7.28025 29.5 1 23.2197 1 15.5C1 7.78025 7.28025 1.5 15 1.5C22.7197 1.5 29 7.78025 29 15.5C29 23.2197 22.7197 29.5 15 29.5Z" fill="#322B27" fill-opacity="0.86"/>
<path d="M6.68147 6.8604L5.98828 6.13965C5.68503 6.43215 5.39303 6.74121 5.12109 7.05909L5.88084 7.70952C6.13203 7.41552 6.40166 7.1299 6.68147 6.8604Z" fill="#322B27" fill-opacity="0.86"/>
<path d="M2.03906 14.4604L3.03613 14.5395C3.20781 12.3942 3.95547 10.3349 5.20019 8.5791L4.38381 8.00098C3.0354 9.904 2.22535 12.1355 2.03906 14.4604Z" fill="#322B27" fill-opacity="0.86"/>
<path d="M22 5.66455C22 5.1313 21.8032 4.61679 21.4473 4.21968C21.0914 3.82258 20.6015 3.57081 20.0714 3.51267C19.5413 3.45452 19.0084 3.59408 18.5749 3.9046C18.1414 4.21511 17.8377 4.67472 17.7222 5.1953C17.6378 5.5753 17.5699 5.95899 17.5002 6.34218C16.6859 6.11811 15.8448 6.00624 15.0002 6.00968V3.49999H14V9.49999C13.9989 10.0407 13.8235 10.5667 13.5 11C13.3545 11.1939 13.1814 11.3654 12.9863 11.5092C12.3667 11.9663 12.0132 12.73 12.0415 13.5547L12.4995 25.0181C12.5042 25.1455 12.4831 25.2726 12.4372 25.3916C12.3914 25.5106 12.3219 25.6191 12.2329 25.7104C12.0509 25.8897 11.8056 25.9902 11.5501 25.9902C11.2945 25.9902 11.0493 25.8897 10.8672 25.7104C10.7781 25.6189 10.7085 25.5102 10.6627 25.3909C10.6169 25.2717 10.5957 25.1443 10.6006 25.0167L10.9585 13.5518C10.9868 12.7301 10.6335 11.9664 10.0132 11.5093C9.8182 11.3653 9.64531 11.1935 9.5 10.9995C9.1764 10.5664 9.00106 10.0406 9 9.49999V3.49999H8V9.09324C7.07848 10.095 6.38377 11.2836 5.96324 12.5782C5.5427 13.8727 5.40622 15.2427 5.5631 16.5948C5.71998 17.9469 6.16653 19.2492 6.87232 20.4131C7.5781 21.5769 8.52652 22.5749 9.65294 23.3391L9.60156 24.9839C9.59263 25.2455 9.63646 25.5062 9.73046 25.7505C9.82445 25.9948 9.96668 26.2177 10.1487 26.4058C10.3306 26.594 10.5486 26.7436 10.7897 26.8457C11.0307 26.9478 11.2898 27.0003 11.5516 27.0001C11.8133 26.9999 12.0724 26.947 12.3133 26.8445C12.5541 26.7421 12.7719 26.5922 12.9536 26.4037C13.1353 26.2153 13.2772 25.9922 13.3708 25.7478C13.4644 25.5033 13.5079 25.2425 13.4986 24.9809L13.4944 24.8764C15.0539 25.1329 16.6531 24.9888 18.1416 24.4576L18.1079 24.9176C18.0901 25.1784 18.1249 25.4402 18.2102 25.6873C18.2956 25.9344 18.4299 26.1617 18.605 26.3559C18.7801 26.55 18.9925 26.7069 19.2295 26.8172C19.4665 26.9275 19.7233 26.989 19.9846 26.998C20.2459 27.007 20.5063 26.9634 20.7503 26.8696C20.9944 26.7759 21.2171 26.634 21.4051 26.4524C21.5932 26.2708 21.7428 26.0532 21.845 25.8125C21.9472 25.5719 21.9999 25.3132 22 25.0517V21.9067C23.6076 20.1605 24.5 17.8736 24.5 15.5C24.5 13.1264 23.6076 10.8395 22 9.09324V5.66455ZM9.69075 22.1277C7.9779 20.763 6.86052 18.7876 6.57328 16.6164C6.28604 14.4452 6.85129 12.2472 8.15031 10.484C8.35766 11.2185 8.80453 11.8627 9.41994 12.3142C9.77444 12.5755 9.97619 13.0257 9.9595 13.5194L9.69075 22.1277ZM18.2225 23.3534C16.718 23.9922 15.0559 24.1628 13.4531 23.8427L13.0406 13.5177C13.024 13.0256 13.2256 12.5754 13.5796 12.3141C13.8534 12.1126 14.0961 11.872 14.3 11.6C14.7532 10.9935 14.9987 10.2571 15 9.49999V7.00849C15.7905 7.00511 16.5775 7.11501 17.3368 7.33486C17.1161 8.80449 17.0035 10.2883 17 11.7744V17C17 17.1326 17.0527 17.2598 17.1464 17.3535C17.2402 17.4473 17.3674 17.5 17.5 17.5H18.6514L18.2225 23.3534ZM21 25.0517C20.9997 25.3031 20.8997 25.5442 20.722 25.722C20.5442 25.8997 20.3032 25.9997 20.0518 26C19.9219 26 19.7934 25.9734 19.6743 25.9217C19.5552 25.87 19.448 25.7945 19.3592 25.6996C19.2705 25.6048 19.2022 25.4928 19.1586 25.3705C19.1149 25.2482 19.0969 25.1183 19.1055 24.9887L19.688 17.0366C19.693 16.9681 19.6839 16.8992 19.6611 16.8343C19.6383 16.7695 19.6024 16.71 19.5556 16.6597C19.5089 16.6093 19.4522 16.5691 19.3892 16.5417C19.3262 16.5142 19.2582 16.5 19.1894 16.5H18V11.7744C18.0003 9.63446 18.2346 7.50095 18.6988 5.41193C18.7609 5.13182 18.9242 4.88451 19.1575 4.71743C19.3907 4.55035 19.6774 4.47527 19.9626 4.50658C20.2478 4.53789 20.5114 4.67338 20.7029 4.88708C20.8943 5.10078 21.0001 5.37764 21 5.66455V25.0517ZM23.5 15.5C23.5008 17.2174 22.9775 18.8942 22 20.3062V10.6937C22.9775 12.1058 23.5008 13.7826 23.5 15.5Z" fill="#322B27" fill-opacity="0.86"/>
<path d="M10 3.5H11V9H10V3.5Z" fill="#322B27" fill-opacity="0.86"/>
<path d="M12 3.5H13V9H12V3.5Z" fill="#322B27" fill-opacity="0.86"/>
</svg>
