<svg width="30" height="31" viewBox="0 0 30 31" fill="none" xmlns="http://www.w3.org/2000/svg">
<path d="M2.39648 24.4062C2.94726 24.4062 3.46875 24.1895 3.85547 23.8027C4.42969 23.2285 5.18554 22.918 5.99414 22.918C6.80273 22.918 7.56445 23.2344 8.13281 23.8027C8.52539 24.1953 9.04102 24.4062 9.5918 24.4062C10.1426 24.4062 10.6641 24.1895 11.0508 23.8027C11.625 23.2285 12.3809 22.918 13.1895 22.918C13.998 22.918 14.7598 23.2344 15.3281 23.8027C15.7207 24.1953 16.2363 24.4062 16.7871 24.4062C17.3379 24.4062 17.8594 24.1895 18.2461 23.8027C18.8203 23.2285 19.5762 22.918 20.3848 22.918C21.1934 22.918 21.9551 23.2344 22.5234 23.8027C22.916 24.1953 23.4316 24.4062 23.9824 24.4062C24.5332 24.4062 25.0547 24.1895 25.4414 23.8027C26.0156 23.2285 26.7715 22.918 27.5801 22.918C28.3887 22.918 29.1504 23.2344 29.7188 23.8027L29.0625 24.4824C28.6699 24.0898 28.1543 23.8789 27.6035 23.8789C27.0527 23.8789 26.5312 24.0957 26.1445 24.4824C25.5703 25.0566 24.8145 25.3672 24.0059 25.3672C23.1973 25.3672 22.4355 25.0508 21.8672 24.4824C21.4746 24.0898 20.959 23.8789 20.4082 23.8789C19.8574 23.8789 19.3359 24.0957 18.9492 24.4824C18.375 25.0566 17.6191 25.3672 16.8105 25.3672C16.002 25.3672 15.2402 25.0508 14.6719 24.4824C14.2793 24.0898 13.7637 23.8789 13.2129 23.8789C12.6621 23.8789 12.1406 24.0957 11.7539 24.4824C11.1797 25.0566 10.4238 25.3672 9.61523 25.3672C8.80664 25.3672 8.04492 25.0508 7.47656 24.4824C7.08398 24.0898 6.56836 23.8789 6.01758 23.8789C5.4668 23.8789 4.94531 24.0957 4.55859 24.4824C3.98437 25.0566 3.22851 25.3672 2.41992 25.3672C1.61133 25.3672 0.849607 25.0508 0.281248 24.4824L0.9375 23.8027C1.32422 24.1953 1.8457 24.4062 2.39648 24.4062Z" fill="#322B27" fill-opacity="0.86"/>
<path d="M2.39648 27.7695C2.94726 27.7695 3.46875 27.5527 3.85547 27.166C4.42969 26.5918 5.18554 26.2812 5.99414 26.2812C6.80273 26.2812 7.56445 26.5977 8.13281 27.166C8.52539 27.5586 9.04102 27.7695 9.5918 27.7695C10.1426 27.7695 10.6641 27.5527 11.0508 27.166C11.625 26.5918 12.3809 26.2812 13.1895 26.2812C13.998 26.2812 14.7598 26.5977 15.3281 27.166C15.7207 27.5586 16.2363 27.7695 16.7871 27.7695C17.3379 27.7695 17.8594 27.5527 18.2461 27.166C18.8203 26.5918 19.5762 26.2812 20.3848 26.2812C21.1934 26.2812 21.9551 26.5977 22.5234 27.166C22.916 27.5586 23.4316 27.7695 23.9824 27.7695C24.5332 27.7695 25.0547 27.5527 25.4414 27.166C26.0156 26.5918 26.7715 26.2812 27.5801 26.2812C28.3887 26.2812 29.1504 26.5977 29.7188 27.166L29.0625 27.8398C28.6699 27.4473 28.1543 27.2363 27.6035 27.2363C27.0527 27.2363 26.5312 27.4531 26.1445 27.8398C25.5703 28.4141 24.8145 28.7246 24.0059 28.7246C23.1973 28.7246 22.4355 28.4082 21.8672 27.8398C21.4746 27.4473 20.959 27.2363 20.4082 27.2363C19.8574 27.2363 19.3359 27.4531 18.9492 27.8398C18.375 28.4141 17.6191 28.7246 16.8105 28.7246C16.002 28.7246 15.2402 28.4082 14.6719 27.8398C14.2793 27.4473 13.7637 27.2363 13.2129 27.2363C12.6621 27.2363 12.1406 27.4531 11.7539 27.8398C11.1797 28.4141 10.4238 28.7246 9.61523 28.7246C8.80664 28.7246 8.04492 28.4082 7.47656 27.8398C7.08398 27.4473 6.56836 27.2363 6.01758 27.2363C5.4668 27.2363 4.94531 27.4531 4.55859 27.8398C3.98437 28.4141 3.22851 28.7246 2.41992 28.7246C1.61133 28.7246 0.849607 28.4082 0.281248 27.8398L0.9375 27.1602C1.32422 27.5527 1.8457 27.7695 2.39648 27.7695Z" fill="#322B27" fill-opacity="0.86"/>
<path d="M0.117188 11.873V10.9121H12.1172V5.63281C12.1172 3.78125 13.623 2.26953 15.4805 2.26953C17.332 2.26953 18.8438 3.77539 18.8438 5.63281H17.8828C17.8828 4.30859 16.8047 3.23047 15.4805 3.23047C14.1562 3.23047 13.0781 4.30859 13.0781 5.63281V8.99609H20.7598V5.63281C20.7598 3.78125 22.2656 2.26953 24.123 2.26953C25.9746 2.26953 27.4805 3.78125 27.4805 5.63281H26.5195C26.5195 4.30859 25.4414 3.23047 24.1172 3.23047C22.793 3.23047 21.7148 4.30859 21.7148 5.63281V10.9121H29.8828V11.873H21.7207V19.8594C22.0195 20.0059 22.3008 20.1992 22.541 20.4395C22.9336 20.832 23.4492 21.043 24 21.043C24.5508 21.043 25.0723 20.8262 25.459 20.4395C26.0332 19.8652 26.7891 19.5547 27.5977 19.5547C28.4062 19.5547 29.168 19.8711 29.7363 20.4395L29.0625 21.1191C28.6699 20.7266 28.1543 20.5156 27.6035 20.5156C27.0527 20.5156 26.5312 20.7324 26.1445 21.1191C25.5703 21.6934 24.8145 22.0039 24.0059 22.0039C23.1973 22.0039 22.4355 21.6875 21.8672 21.1191C21.4746 20.7266 20.959 20.5156 20.4082 20.5156C19.8574 20.5156 19.3359 20.7324 18.9492 21.1191C18.375 21.6934 17.6191 22.0039 16.8105 22.0039C16.002 22.0039 15.2402 21.6875 14.6719 21.1191C14.2793 20.7266 13.7637 20.5156 13.2129 20.5156C12.6621 20.5156 12.1406 20.7324 11.7539 21.1191C11.1797 21.6934 10.4238 22.0039 9.61523 22.0039C8.80664 22.0039 8.04492 21.6875 7.47656 21.1191C7.08398 20.7266 6.56836 20.5156 6.01758 20.5156C5.4668 20.5156 4.94531 20.7324 4.55859 21.1191C3.98438 21.6934 3.22852 22.0039 2.41992 22.0039C1.61133 22.0039 0.849609 21.6875 0.28125 21.1191L0.9375 20.4395C1.33008 20.832 1.8457 21.043 2.39648 21.043C2.94727 21.043 3.46875 20.8262 3.85547 20.4395C4.42969 19.8652 5.18555 19.5547 5.99414 19.5547C6.80273 19.5547 7.56445 19.8711 8.13281 20.4395C8.52539 20.832 9.04102 21.043 9.5918 21.043C10.1426 21.043 10.6641 20.8262 11.0508 20.4395C11.3555 20.1348 11.7188 19.9062 12.1113 19.7539V11.873H0.117188ZM13.0781 19.5605C13.9336 19.5605 14.7656 19.8711 15.3398 20.4395C15.7324 20.832 16.248 21.043 16.7988 21.043C17.3496 21.043 17.8711 20.8262 18.2578 20.4395C18.832 19.8652 19.5879 19.5547 20.3965 19.5547C20.5195 19.5547 20.6367 19.5664 20.7539 19.5781V17.6328H13.0723V19.5605H13.0781ZM13.0781 16.6719H20.7598V13.7891H13.0781V16.6719ZM13.0781 12.834H20.7598V9.95117H13.0781V12.834Z" fill="#322B27" fill-opacity="0.86"/>
</svg>
