<svg width="30" height="31" viewBox="0 0 30 31" fill="none" xmlns="http://www.w3.org/2000/svg">
<g clip-path="url(#clip0_22_863)">
<path d="M26.8764 3.448C23.4905 0.06206 17.7341 -0.452463 12.7646 2.14067C11.8572 1.35788 10.715 0.92744 9.50477 0.92744C8.16791 0.92744 6.91064 1.44797 5.96567 2.39393C4.02921 4.3299 4.01669 7.47009 5.92313 9.42458C5.52272 10.4146 5.28698 11.4206 5.21792 12.4306C5.20891 12.4667 5.19739 12.5022 5.19539 12.5402C5.16436 13.0828 5.18488 13.6248 5.24995 14.1649C5.25045 14.1674 5.25045 14.1699 5.25045 14.1719C5.28949 14.4947 5.34705 14.8166 5.42012 15.1374C5.42763 15.1704 5.43514 15.2035 5.44314 15.2365C5.51672 15.5443 5.60431 15.8506 5.70891 16.1554C5.72193 16.194 5.73744 16.2325 5.75096 16.271C5.86107 16.5804 5.98319 16.8882 6.12534 17.194C6.51473 18.0308 6.62184 18.9237 6.42764 19.7085C6.40762 19.7896 6.3801 19.8657 6.35657 19.9448C6.32604 20.0484 6.29901 20.1545 6.26298 20.2546C6.22894 20.3502 6.1859 20.4398 6.14636 20.5319C6.11282 20.611 6.0838 20.6925 6.04626 20.7696C5.99571 20.8742 5.93514 20.9733 5.87708 21.0739C5.84255 21.1335 5.81302 21.196 5.77648 21.2546C5.70841 21.3627 5.62983 21.4653 5.55275 21.5689C5.51822 21.6155 5.48819 21.6645 5.45215 21.7106C5.36356 21.8222 5.26396 21.9283 5.16436 22.0349C5.13233 22.0694 5.1048 22.1055 5.07127 22.1395C4.96416 22.2481 4.84704 22.3522 4.72792 22.4553C4.69488 22.4844 4.66635 22.5149 4.63182 22.5434C4.49068 22.6615 4.33852 22.7757 4.18086 22.8878C4.16434 22.8998 4.15033 22.9123 4.13331 22.9243C3.95713 23.0474 3.77044 23.1676 3.57374 23.2842C2.99866 23.625 2.24589 24.087 1.53017 24.637L0.733856 25.2497C0.398515 25.5074 0.190804 25.8968 0.163276 26.3188C0.135748 26.7407 0.291406 27.1541 0.59071 27.4529L3.20787 30.0701C3.48465 30.3468 3.85803 30.5 4.24593 30.5C4.28196 30.5 4.318 30.4985 4.35404 30.496C4.77997 30.4645 5.17037 30.2503 5.42513 29.9074L6.24896 28.7998C6.4862 28.4805 6.72244 28.1316 6.96169 27.7532C7.12535 27.4939 7.29052 27.2237 7.45869 26.9309C7.57131 26.7352 7.68692 26.55 7.80555 26.3748C8.26551 25.6966 8.77653 25.1696 9.35412 24.7727C9.37414 24.7592 9.39266 24.7422 9.41318 24.7286C9.52129 24.6566 9.63441 24.5945 9.74702 24.5319C9.79156 24.5069 9.83411 24.4774 9.87965 24.4539C9.97926 24.4023 10.0839 24.3603 10.1875 24.3152C10.2505 24.2877 10.3106 24.2557 10.3752 24.2311C10.4657 24.1961 10.5613 24.1696 10.6549 24.1395C10.7375 24.113 10.8176 24.082 10.9022 24.059C11.6945 23.8437 12.4483 23.9714 13.0254 24.1656C13.1585 24.2106 13.2856 24.2577 13.3982 24.3067C13.4032 24.3087 13.4077 24.3102 13.4127 24.3122C13.636 24.4083 13.8607 24.4934 14.0854 24.573C14.143 24.5935 14.2005 24.6125 14.2586 24.6315C14.4678 24.7016 14.6775 24.7647 14.8882 24.8202C14.9078 24.8252 14.9273 24.8317 14.9473 24.8367C15.8853 25.077 16.8322 25.1751 17.7742 25.122C17.8022 25.1205 17.8282 25.111 17.8553 25.1055C20.4909 24.9353 23.1011 23.641 25.48 21.2626C30.6863 16.0553 31.3265 7.89753 26.8764 3.448ZM6.67339 3.10215C7.42966 2.34538 8.43569 1.92896 9.50477 1.92896C10.5739 1.92896 11.5799 2.34538 12.3362 3.10215C13.8972 4.66324 13.8972 7.20332 12.3362 8.76441C12.2406 8.86 12.141 8.9496 12.0383 9.03318C12.0018 9.06321 11.9628 9.08874 11.9257 9.11677C11.8582 9.16782 11.7916 9.22037 11.7215 9.26692C11.6745 9.29845 11.6254 9.32498 11.5774 9.35401C11.5148 9.39205 11.4528 9.43109 11.3887 9.46562C11.3346 9.49415 11.2791 9.51817 11.224 9.5442C11.1635 9.57273 11.1034 9.60326 11.0418 9.62879C10.9828 9.65331 10.9227 9.67333 10.8627 9.69485C10.8031 9.71638 10.744 9.7389 10.684 9.75742C10.6209 9.77694 10.5573 9.79195 10.4933 9.80797C10.4347 9.82298 10.3767 9.8385 10.3181 9.85051C10.251 9.86453 10.183 9.87404 10.1154 9.88455C10.0598 9.89305 10.0043 9.90257 9.94872 9.90857C9.87615 9.91658 9.80308 9.92058 9.73 9.92459C9.67945 9.92759 9.6289 9.93109 9.57785 9.93209C9.49877 9.9336 9.42019 9.93109 9.34161 9.92759C9.29706 9.92559 9.25302 9.92459 9.20897 9.92108C9.12339 9.91458 9.0378 9.90457 8.95221 9.89256C8.91617 9.88755 8.88014 9.88305 8.8446 9.87704C8.75151 9.86152 8.65891 9.842 8.56682 9.81998C8.54029 9.81347 8.51377 9.80747 8.48724 9.80046C8.38664 9.77393 8.28653 9.7434 8.18793 9.70887C8.17192 9.70336 8.1554 9.69786 8.13938 9.69185C8.03177 9.65281 7.92567 9.60927 7.82106 9.56072C7.81455 9.55771 7.80805 9.55471 7.80154 9.55171C7.4612 9.39104 7.13837 9.17983 6.84407 8.91756L6.73546 8.82047C6.71544 8.80095 6.69341 8.78443 6.67339 8.76441C5.11281 7.20332 5.11281 4.66324 6.67339 3.10215ZM4.62181 29.3098C4.53973 29.4204 4.4186 29.487 4.28096 29.497C4.14482 29.5075 4.01369 29.4594 3.91609 29.3613L1.29893 26.7442C1.20233 26.6476 1.15378 26.5195 1.16329 26.3828C1.1723 26.2467 1.23637 26.1256 1.34448 26.0425L2.14079 25.4298C2.81397 24.9118 3.5332 24.4709 4.08476 24.1445C4.53422 23.8783 4.93913 23.593 5.3005 23.2867L5.301 23.2862C5.48118 23.1335 5.65086 22.9754 5.80952 22.8122C5.82353 22.7977 5.83454 22.7822 5.84856 22.7681C5.9917 22.618 6.12884 22.4648 6.25397 22.3057C6.27399 22.2806 6.2895 22.2531 6.30902 22.2276C6.42414 22.0774 6.53475 21.9248 6.63436 21.7666C6.65838 21.7281 6.6774 21.686 6.70092 21.647C6.78951 21.4984 6.8766 21.3492 6.95218 21.1935C6.9752 21.1465 6.99172 21.0964 7.01324 21.0484C7.08231 20.8967 7.15038 20.7446 7.20744 20.5859C7.22596 20.5334 7.23897 20.4773 7.25649 20.4243C7.30754 20.2691 7.35909 20.1139 7.39963 19.9523C7.40063 19.9488 7.40063 19.9453 7.40163 19.9423C7.40163 19.9413 7.40214 19.9403 7.40264 19.9393C7.65289 18.9232 7.52526 17.8281 7.03376 16.772C6.9767 16.6494 6.93316 16.5263 6.88161 16.4032C6.4837 15.4487 6.24696 14.4787 6.19391 13.5042L16.8082 24.1195C16.8062 24.1195 16.8037 24.1195 16.8017 24.1195C16.5645 24.1055 16.3272 24.08 16.09 24.0454C16.0724 24.0429 16.0549 24.0414 16.0374 24.0384C15.8122 24.0044 15.5875 23.9584 15.3627 23.9058C15.3352 23.8993 15.3077 23.8948 15.2796 23.8878C15.0624 23.8342 14.8457 23.7697 14.6295 23.6991C14.5969 23.6886 14.5644 23.6806 14.5319 23.6696C14.2861 23.586 14.0409 23.4924 13.7966 23.3868C13.4408 23.2331 13.0834 23.123 12.7275 23.0489C12.681 23.0394 12.6345 23.0264 12.5884 23.0184C12.5434 23.0104 12.4988 23.0069 12.4538 22.9999C12.3647 22.9864 12.2756 22.9719 12.1875 22.9638C12.171 22.9623 12.154 22.9628 12.1374 22.9613C12.0213 22.9518 11.9057 22.9448 11.7906 22.9438C11.7871 22.9438 11.7836 22.9443 11.7801 22.9443C11.6525 22.9438 11.5258 22.9483 11.3997 22.9583C11.3637 22.9613 11.3286 22.9678 11.2931 22.9719C11.2 22.9819 11.1074 22.9914 11.0158 23.0074C10.9117 23.0254 10.8091 23.0499 10.7065 23.076C10.685 23.0815 10.6635 23.0845 10.6419 23.0905C10.6399 23.091 10.6374 23.0915 10.6354 23.092C10.4372 23.146 10.246 23.2101 10.0593 23.2802C10.0453 23.2852 10.0298 23.2892 10.0158 23.2942C9.8301 23.3653 9.65142 23.4463 9.47674 23.5339C9.46123 23.5419 9.44421 23.5474 9.4292 23.5554C9.26353 23.64 9.10487 23.7351 8.94821 23.8352C8.92568 23.8497 8.90116 23.8613 8.87814 23.8758C8.71647 23.9824 8.56031 24.0995 8.40716 24.2231C8.39214 24.2351 8.37613 24.2446 8.36161 24.2572C7.69443 24.8072 7.11184 25.5254 6.59031 26.4309C6.19591 27.1166 5.82153 27.6957 5.44515 28.2017L4.62181 29.3098ZM18.1861 24.086C18.1816 24.0815 18.1796 24.0755 18.1751 24.071L6.24596 12.1418C6.24446 12.1403 6.24196 12.1393 6.24045 12.1378C6.31903 11.4561 6.47319 10.7745 6.72445 10.0943C6.96169 10.2529 7.21094 10.3856 7.4667 10.4992C7.47721 10.5037 7.48722 10.5092 7.49773 10.5137C7.60885 10.5622 7.72146 10.6053 7.83508 10.6458C7.86611 10.6568 7.89714 10.6678 7.92867 10.6784C8.03178 10.7124 8.13538 10.7429 8.24049 10.7699C8.28403 10.7815 8.32758 10.7915 8.37112 10.802C8.46872 10.8245 8.56682 10.8455 8.66542 10.862C8.71747 10.871 8.77003 10.8776 8.82258 10.8846C8.91567 10.8976 9.00877 10.9101 9.10286 10.9176C9.16243 10.9226 9.22199 10.9236 9.28155 10.9261C9.35612 10.9296 9.4307 10.9366 9.50577 10.9366C9.51979 10.9366 9.5333 10.9346 9.54682 10.9346C9.62439 10.9341 9.70197 10.9276 9.77955 10.9236C9.90368 10.9171 10.0268 10.9061 10.1504 10.8901C10.2415 10.8786 10.3326 10.8675 10.4227 10.851C10.4868 10.839 10.5498 10.823 10.6134 10.8085C10.699 10.7895 10.7841 10.7699 10.8687 10.7464C10.9322 10.7284 10.9953 10.7074 11.0584 10.6869C11.1414 10.6598 11.224 10.6318 11.3056 10.6003C11.3677 10.5763 11.4292 10.5507 11.4903 10.5242C11.5719 10.4892 11.6525 10.4516 11.732 10.4121C11.7911 10.3831 11.8492 10.353 11.9072 10.3215C11.9888 10.2769 12.0689 10.2284 12.149 10.1788C12.202 10.1458 12.2551 10.1138 12.3071 10.0787C12.3937 10.0202 12.4778 9.95662 12.5614 9.89205C12.6034 9.85952 12.6465 9.82949 12.6875 9.79546C12.8106 9.69385 12.9303 9.58724 13.0454 9.47213C13.1625 9.35501 13.2716 9.23288 13.3747 9.10776C13.4107 9.06371 13.4418 9.01767 13.4763 8.97312C13.5404 8.88953 13.6039 8.80645 13.662 8.72036C13.699 8.66481 13.7321 8.60775 13.7666 8.55119C13.8152 8.47261 13.8637 8.39403 13.9072 8.31345C13.9408 8.25139 13.9708 8.18782 14.0013 8.12426C14.0389 8.04668 14.0764 7.9691 14.11 7.89002C14.1385 7.82295 14.1635 7.75488 14.189 7.68681C14.2181 7.60923 14.2456 7.53165 14.2706 7.45307C14.2931 7.382 14.3137 7.31043 14.3327 7.23836C14.3532 7.16128 14.3722 7.0842 14.3892 7.00662C14.4053 6.93204 14.4203 6.85747 14.4333 6.78239C14.4463 6.70632 14.4568 6.63024 14.4663 6.55416C14.4758 6.47658 14.4848 6.399 14.4908 6.32142C14.4963 6.24735 14.4988 6.17377 14.5014 6.0997C14.5039 6.01912 14.5069 5.93853 14.5059 5.85845C14.5049 5.78788 14.4999 5.71781 14.4958 5.64724C14.4908 5.56365 14.4873 5.48007 14.4783 5.39648C14.4713 5.33242 14.4603 5.26835 14.4508 5.20429C14.4378 5.1152 14.4263 5.02611 14.4088 4.93802C14.3992 4.89147 14.3857 4.84592 14.3752 4.79988C14.2951 4.45453 14.178 4.11668 14.0244 3.79135C14.0023 3.7448 13.9828 3.69726 13.9593 3.65071C13.9168 3.56762 13.8682 3.48704 13.8207 3.40596C13.7861 3.3499 13.7551 3.29335 13.7201 3.23879C13.6725 3.16471 13.6205 3.09314 13.5689 3.02107C13.5384 2.97802 13.5113 2.93348 13.4788 2.89144C18.0019 0.643151 23.1461 1.13265 26.1687 4.15572C30.2343 8.22136 29.5952 15.731 24.7723 20.5539C22.6692 22.657 20.4429 23.8382 18.1861 24.086Z" fill="#322B27" fill-opacity="0.86"/>
<path d="M7.50492 5.93298C7.50492 4.82886 8.40284 3.93095 9.50696 3.93095C9.78374 3.93095 10.0075 3.70722 10.0075 3.43044C10.0075 3.15366 9.78374 2.92993 9.50696 2.92993C7.85078 2.92993 6.50391 4.2768 6.50391 5.93298C6.50391 6.20977 6.72763 6.43349 7.00442 6.43349C7.2812 6.43349 7.50492 6.20977 7.50492 5.93298Z" fill="#322B27" fill-opacity="0.86"/>
</g>
<defs>
<clipPath id="clip0_22_863">
<rect width="30" height="30" fill="white" transform="translate(0 0.5)"/>
</clipPath>
</defs>
</svg>
