<svg width="30" height="31" viewBox="0 0 30 31" fill="none" xmlns="http://www.w3.org/2000/svg">
<path d="M23.3438 10.9092V8.80133C23.7083 8.79916 24.2532 8.79629 24.5358 8.79629C25.7078 8.79629 26.6612 7.85738 26.6612 6.70332C26.6612 5.54926 25.7078 4.61035 24.5358 4.61035H22.9043C22.6615 4.61035 22.4648 4.80711 22.4648 5.0498V10.9092C22.4648 11.1519 22.6615 11.3486 22.9043 11.3486C23.1471 11.3486 23.3438 11.1519 23.3438 10.9092ZM23.3438 5.48926H24.5358C25.2115 5.48926 25.7822 6.04525 25.7822 6.70332C25.7822 7.36139 25.2115 7.91738 24.5358 7.91738C24.2527 7.91738 23.7094 7.92025 23.3438 7.92242V5.48926Z" fill="#322B27" fill-opacity="0.86"/>
<path d="M28.6816 2.2666H19.8926C19.1657 2.2666 18.5742 2.85799 18.5742 3.58496V7.8142C15.8878 7.41781 12.0885 7.30543 8.67158 7.54098C8.42941 7.55768 8.24672 7.7675 8.26336 8.00961C8.28012 8.25172 8.48977 8.43383 8.73199 8.41783C12.5242 8.15645 16.9583 8.34236 19.515 8.87C20.0149 8.97318 20.4129 9.36283 20.5288 9.86264L20.5552 9.97631C16.7768 8.90645 7.84365 8.90645 4.06523 9.97631L4.0916 9.86264C4.2075 9.36277 4.60547 8.97313 5.10545 8.87C5.69379 8.74859 6.38379 8.64354 7.15652 8.55775C7.39775 8.53098 7.5716 8.31371 7.54482 8.07254C7.51805 7.83137 7.3016 7.65723 7.05961 7.68424C6.25998 7.77301 5.54268 7.88229 4.92785 8.0092C4.09289 8.18146 3.42855 8.83103 3.23543 9.66406L1.7833 15.9261L0.503145 18.2153C0.174023 18.8039 0 19.4714 0 20.1457V23.9564C0 25.0753 1.00641 25.6437 2.07539 25.9664V27.4149C2.07539 28.1418 2.66684 28.7332 3.39375 28.7332H5.15156C5.87848 28.7332 6.46992 28.1418 6.46992 27.4149V26.5947C8.03736 26.6925 9.96252 26.7396 12.3103 26.7396C14.6579 26.7396 16.5831 26.6925 18.1505 26.5947V27.4149C18.1505 28.1418 18.742 28.7332 19.4689 28.7332H21.2267C21.9536 28.7332 22.5451 28.1418 22.5451 27.4149V25.9664C23.6141 25.6437 24.6205 25.0753 24.6205 23.9564V20.1457C24.6205 19.4714 24.4465 18.8039 24.1174 18.2153L22.8373 15.9263L21.3851 9.66406C21.1919 8.83103 20.5276 8.18146 19.6927 8.0092C19.6145 7.99303 19.5344 7.97727 19.4532 7.96174V3.58496C19.4532 3.34262 19.6503 3.14551 19.8926 3.14551H28.6817C28.924 3.14551 29.1212 3.34262 29.1212 3.58496V12.374C29.1212 12.6164 28.924 12.8135 28.6817 12.8135H23.524C23.2813 12.8135 23.0846 13.0102 23.0846 13.2529C23.0846 13.4956 23.2813 13.6924 23.524 13.6924H28.6816C29.4086 13.6924 30 13.101 30 12.374V3.58496C30 2.85799 29.4086 2.2666 28.6816 2.2666ZM12.3103 10.0576C15.9821 10.0576 19.2545 10.414 20.7863 10.9725L21.8702 15.6467H16.7702C16.5274 15.6467 16.3307 15.8435 16.3307 16.0862C16.3307 16.3289 16.5274 16.5256 16.7702 16.5256H22.1654L23.1349 18.2592L21.1553 19.3562C21.0122 19.4355 20.8753 19.515 20.7437 19.5949C18.9265 19.872 16.2425 20.0013 12.3103 20.0013C8.37803 20.0013 5.69391 19.872 3.87674 19.5949C3.74508 19.515 3.6082 19.4356 3.46518 19.3563L1.48559 18.2593L2.45508 16.5257H15.0124C15.2552 16.5257 15.4519 16.3289 15.4519 16.0862C15.4519 15.8435 15.2552 15.6468 15.0124 15.6468H2.75027L3.83426 10.9726C5.36596 10.4141 8.63836 10.0576 12.3103 10.0576ZM23.7415 20.1457V21.6126C23.7415 22.5873 21.792 23.072 19.0502 23.3073C19.1749 21.9347 19.885 21.0651 21.5813 20.125L23.5354 19.0421C23.6703 19.3934 23.7415 19.768 23.7415 20.1457ZM0.878906 20.1457C0.878906 19.768 0.950156 19.3934 1.08504 19.0422L3.03908 20.125C4.73414 21.0644 5.44436 21.9334 5.56992 23.3041C2.3833 23.0314 0.878906 22.4827 0.878906 21.6126V20.1457ZM5.59102 27.4148C5.59102 27.6571 5.39391 27.8543 5.15156 27.8543H3.39375C3.15141 27.8543 2.9543 27.6571 2.9543 27.4148V26.1835C3.01084 26.195 3.06697 26.2062 3.12211 26.2168C3.79746 26.3465 4.61414 26.4508 5.59102 26.5313V27.4148ZM21.6662 27.4148C21.6662 27.6571 21.469 27.8543 21.2267 27.8543H19.4689C19.2265 27.8543 19.0294 27.6571 19.0294 27.4148V26.5313C20.0063 26.4509 20.823 26.3465 21.4984 26.2168C21.5535 26.2062 21.6097 26.195 21.6662 26.1835V27.4148ZM12.3103 25.8606C6.65754 25.8606 0.878906 25.6344 0.878906 23.9563V23.0769C1.3333 23.397 1.85924 23.5573 2.12549 23.6359C3.38889 24.0089 5.2882 24.2296 8.10275 24.3309C8.10814 24.3311 8.11348 24.3312 8.11881 24.3312C8.35424 24.3312 8.54918 24.1447 8.55768 23.9076C8.56635 23.665 8.37685 23.4613 8.13428 23.4526C7.5365 23.4311 6.97764 23.4036 6.45645 23.3701C6.38525 22.2712 6.01629 21.4087 5.25428 20.6437C7.00031 20.8041 9.29607 20.8802 12.3102 20.8802C15.3243 20.8802 17.6201 20.8041 19.3661 20.6437C18.6033 21.4094 18.2343 22.2729 18.1637 23.3733C16.3774 23.4878 14.3358 23.5169 12.3102 23.5169C11.4759 23.5169 10.69 23.5109 9.97459 23.4993C9.97213 23.4993 9.96973 23.4993 9.96732 23.4993C9.72791 23.4993 9.53191 23.6913 9.52805 23.9316C9.52412 24.1743 9.7176 24.3742 9.96029 24.3781C10.6805 24.3898 11.4711 24.3958 12.3102 24.3958C16.7212 24.3958 19.6409 24.2296 21.4983 23.873C22.25 23.7287 23.1213 23.5034 23.7415 23.0708V23.9563C23.7415 25.6344 17.9629 25.8606 12.3103 25.8606Z" fill="#322B27" fill-opacity="0.86"/>
</svg>
