<svg width="30" height="31" viewBox="0 0 30 31" fill="none" xmlns="http://www.w3.org/2000/svg">
<path d="M15 0.5C6.72894 0.5 0 7.22894 0 15.5C0 23.7711 6.72894 30.5 15 30.5C23.2711 30.5 30 23.7711 30 15.5C30 7.22894 23.2711 0.5 15 0.5ZM29.0922 15.9867C28.5764 15.6612 28.1033 15.3087 27.6946 14.9156C28.0835 13.9402 28.3934 12.9232 28.6253 11.8667C28.9352 13.0283 29.1172 14.2418 29.1172 15.5C29.1161 15.6643 29.0974 15.8234 29.0922 15.9867ZM27.7352 21.5499C27.2101 20.405 26.6194 19.2976 25.9581 18.2421C26.478 17.457 26.9366 16.6334 27.3307 15.7745C27.834 16.2237 28.4049 16.6283 29.0371 16.9891C28.8655 18.6081 28.408 20.1399 27.7352 21.5499ZM28.043 10.1125C27.8454 11.5423 27.5085 12.9066 27.0302 14.1929C26.7931 13.8945 26.5789 13.5825 26.3948 13.2539C25.749 12.108 25.6367 11.1523 25.5068 10.0459C25.4184 9.29619 25.3279 8.52045 25.0596 7.62305C24.6468 6.26707 23.9168 4.99012 22.8905 3.80052C25.1719 5.34471 26.975 7.53882 28.043 10.1125ZM19.9965 2.31456C22.199 3.9825 23.582 5.80329 24.2142 7.8799C24.4586 8.70139 24.5449 9.43761 24.6281 10.1499C24.7633 11.301 24.8912 12.3887 25.6243 13.6886C25.904 14.1877 26.2575 14.6421 26.6433 15.0768C26.2898 15.8899 25.8811 16.6719 25.4121 17.4165C25.2478 17.1742 25.0898 16.9267 24.9182 16.6896C19.5754 9.29515 11.8981 6.01439 6.10087 4.55546C8.53102 2.57556 11.6277 1.38388 15 1.38388C16.7615 1.38388 18.4409 1.72184 19.9965 2.31456ZM5.30225 5.2688C11.0111 6.61542 18.8329 9.77556 24.2028 17.2075C24.443 17.5402 24.6707 17.8834 24.8964 18.2276C24.3931 18.9357 23.8523 19.5877 23.2804 20.1794C21.3525 17.8771 17.8669 17.7981 15.0125 17.7388C14.3865 17.7263 13.7875 17.7139 13.2364 17.6785C7.41005 17.3322 3.6364 16.9964 0.887002 15.4459C0.90156 11.4404 2.59965 7.83206 5.30225 5.2688ZM0.932756 16.464C3.79133 17.8917 7.55043 18.2276 13.1813 18.5624C13.7428 18.5977 14.3553 18.6113 14.9938 18.6248C17.818 18.683 20.9709 18.7745 22.6295 20.8189C16.5764 26.4549 7.80936 26.5132 6.12894 26.4674C3.16846 24.0664 1.20624 20.4945 0.932756 16.464ZM7.3435 27.343C10.4766 27.2473 17.766 26.4549 23.1255 21.5437C24.0853 23.379 23.6652 25.4899 21.8589 27.8276C19.826 28.9631 17.4894 29.6161 15 29.6161C12.1778 29.6161 9.55217 28.7749 7.3435 27.343ZM23.7016 26.5922C24.7653 24.5395 24.8049 22.6293 23.7931 20.8969C24.3567 20.325 24.8891 19.6979 25.3924 19.0199C26.0766 20.144 26.6891 21.3201 27.2153 22.543C26.3095 24.1069 25.1158 25.4806 23.7016 26.5922Z" fill="#322B27" fill-opacity="0.86"/>
</svg>
