<svg width="30" height="31" viewBox="0 0 30 31" fill="none" xmlns="http://www.w3.org/2000/svg">
<path d="M10.3086 14.5626C12.3764 14.5626 14.0586 13.1958 14.0586 11.5157C14.0586 11.3914 14.0092 11.2721 13.9213 11.1842C13.8334 11.0963 13.7142 11.0469 13.5898 11.0469C13.4655 11.0469 13.3463 11.0963 13.2584 11.1842C13.1705 11.2721 13.1211 11.3914 13.1211 11.5157C13.1211 12.559 12.1057 13.4273 10.7773 13.5952V12.1075C10.8269 12.0828 10.8745 12.0542 10.9196 12.022L11.7151 11.4543C11.8611 11.3483 11.9798 11.2091 12.0612 11.0482C12.1427 10.8873 12.1846 10.7092 12.1835 10.5289C12.1835 9.90999 11.6993 9.40649 11.1041 9.40649H9.51301C8.91781 9.40649 8.43359 9.90999 8.43359 10.5289C8.43253 10.7092 8.47446 10.8873 8.55591 11.0482C8.63737 11.2091 8.75601 11.3483 8.90199 11.4543L9.69752 12.022C9.74264 12.0542 9.79023 12.0828 9.83984 12.1075V13.5952C8.51146 13.4273 7.49609 12.559 7.49609 11.5157C7.49609 11.3914 7.44671 11.2721 7.3588 11.1842C7.27089 11.0963 7.15166 11.0469 7.02734 11.0469C6.90302 11.0469 6.78379 11.0963 6.69589 11.1842C6.60798 11.2721 6.55859 11.3914 6.55859 11.5157C6.55859 13.1958 8.24082 14.5626 10.3086 14.5626ZM9.44668 10.691C9.42233 10.6717 9.40282 10.647 9.38972 10.6188C9.37662 10.5906 9.37028 10.5598 9.37121 10.5287C9.37121 10.4285 9.43625 10.3438 9.51312 10.3438H11.1043C11.1812 10.3438 11.2462 10.4285 11.2462 10.5287C11.2471 10.5598 11.2408 10.5906 11.2277 10.6188C11.2146 10.647 11.195 10.6717 11.1707 10.691L10.3752 11.2587C10.3561 11.2734 10.3327 11.2813 10.3087 11.2813C10.2846 11.2813 10.2613 11.2734 10.2422 11.2587L9.44668 10.691Z" fill="#322B27" fill-opacity="0.86"/>
<path d="M13.1211 9.40625C13.38 9.40625 13.5898 9.19638 13.5898 8.9375C13.5898 8.67862 13.38 8.46875 13.1211 8.46875C12.8622 8.46875 12.6523 8.67862 12.6523 8.9375C12.6523 9.19638 12.8622 9.40625 13.1211 9.40625Z" fill="#322B27" fill-opacity="0.86"/>
<path d="M7.49609 9.40625C7.75498 9.40625 7.96484 9.19638 7.96484 8.9375C7.96484 8.67862 7.75498 8.46875 7.49609 8.46875C7.23721 8.46875 7.02734 8.67862 7.02734 8.9375C7.02734 9.19638 7.23721 9.40625 7.49609 9.40625Z" fill="#322B27" fill-opacity="0.86"/>
<path d="M22.5 18.7813C22.8708 18.7813 23.2334 18.6713 23.5417 18.4653C23.85 18.2592 24.0904 17.9664 24.2323 17.6238C24.3742 17.2812 24.4113 16.9042 24.339 16.5405C24.2666 16.1767 24.088 15.8426 23.8258 15.5804C23.5636 15.3182 23.2295 15.1396 22.8658 15.0673C22.5021 14.9949 22.1251 15.0321 21.7825 15.174C21.4399 15.3159 21.147 15.5562 20.941 15.8646C20.735 16.1729 20.625 16.5354 20.625 16.9063C20.6256 17.4034 20.8233 17.8799 21.1748 18.2315C21.5263 18.583 22.0029 18.7807 22.5 18.7813ZM22.5 15.9688C22.6854 15.9688 22.8667 16.0237 23.0208 16.1267C23.175 16.2298 23.2952 16.3762 23.3661 16.5475C23.4371 16.7188 23.4557 16.9073 23.4195 17.0891C23.3833 17.271 23.294 17.4381 23.1629 17.5692C23.0318 17.7003 22.8648 17.7896 22.6829 17.8257C22.501 17.8619 22.3125 17.8433 22.1412 17.7724C21.9699 17.7014 21.8235 17.5813 21.7205 17.4271C21.6175 17.2729 21.5625 17.0917 21.5625 16.9063C21.5628 16.6577 21.6617 16.4194 21.8374 16.2437C22.0132 16.0679 22.2514 15.969 22.5 15.9688Z" fill="#322B27" fill-opacity="0.86"/>
<path d="M29.0624 19.7188H26.2499V13.625C26.25 13.5289 26.2203 13.435 26.165 13.3564L22.8837 8.66888C22.8405 8.60713 22.783 8.55672 22.7162 8.52191C22.6493 8.4871 22.5751 8.46893 22.4997 8.46893C22.4243 8.46893 22.3501 8.4871 22.2832 8.52191C22.2164 8.55672 22.1589 8.60713 22.1157 8.66888L18.8344 13.3564C18.7793 13.4351 18.7497 13.5289 18.7499 13.625V16.5584C18.1081 15.6954 17.2516 14.9794 16.1942 14.4271C17.2382 13.1999 17.8072 11.6054 17.8072 9.87503C17.8096 9.11046 17.6937 8.35012 17.4634 7.62105C17.92 7.38005 18.3132 7.03472 18.6112 6.61313C18.9092 6.19155 19.1035 5.70559 19.1783 5.19478C19.2531 4.68396 19.2064 4.1627 19.0418 3.67336C18.8772 3.18403 18.5995 2.74042 18.2313 2.37861C17.863 2.0168 17.4146 1.74699 16.9224 1.59112C16.4302 1.43525 15.9082 1.39771 15.3988 1.48155C14.8894 1.5654 14.4069 1.76826 13.9907 2.07366C13.5744 2.37905 13.2361 2.77835 13.0033 3.23911C12.1301 2.97008 11.2208 2.83674 10.3072 2.84378C9.3936 2.83675 8.48436 2.9701 7.61128 3.23917C7.3784 2.77841 7.04009 2.3791 6.62385 2.0737C6.2076 1.7683 5.72516 1.56543 5.21575 1.48158C4.70634 1.39773 4.18433 1.43526 3.69216 1.59113C3.19998 1.74699 2.75153 2.01679 2.38326 2.3786C2.01498 2.74041 1.73728 3.18401 1.57272 3.67334C1.40815 4.16268 1.36138 4.68394 1.43619 5.19476C1.51101 5.70557 1.7053 6.19153 2.00327 6.61312C2.30125 7.03471 2.6945 7.38004 3.15106 7.62105C2.92076 8.35011 2.80475 9.11045 2.80718 9.87503C2.80718 11.6054 3.37635 13.2 4.4202 14.4271C2.13809 15.619 0.792546 17.5739 0.516511 20.1189C0.515925 20.1247 0.515339 20.1306 0.514929 20.1364L0.469871 20.7799C0.468376 20.8011 0.468376 20.8223 0.469871 20.8434C0.50735 21.3921 0.704542 21.9178 1.03715 22.3558C1.36975 22.7938 1.82323 23.1249 2.34171 23.3083C2.03244 23.9422 1.87275 24.6385 1.87495 25.3438C1.87495 27.67 3.55718 29.5625 5.62495 29.5625C6.73823 29.5625 7.73919 29.0134 8.42661 28.1439C9.00503 28.4596 9.65347 28.625 10.3124 28.625C10.9714 28.625 11.6199 28.4596 12.1983 28.1439C12.8857 29.0134 13.8867 29.5625 14.9999 29.5625C16.4692 29.5625 17.7431 28.6065 18.3579 27.2188H29.0624C29.1868 27.2188 29.306 27.1694 29.3939 27.0815C29.4818 26.9936 29.5312 26.8743 29.5312 26.75V20.1875C29.5312 20.0632 29.4818 19.944 29.3939 19.8561C29.306 19.7682 29.1868 19.7188 29.0624 19.7188ZM22.4999 9.75491L24.8809 13.1563H20.119L22.4999 9.75491ZM19.6874 14.0938H25.3124V19.7188H20.0439C19.97 19.2398 19.8506 18.7689 19.6874 18.3125V14.0938ZM18.2816 23.3051C18.7233 23.1465 19.1186 22.8806 19.432 22.5313H20.1562V24.4063H18.6554C18.5787 24.0246 18.4531 23.6545 18.2816 23.3051ZM19.1648 20.2113L19.207 20.8121C19.1733 21.2088 19.0143 21.5846 18.7531 21.8852C18.492 22.1858 18.142 22.3956 17.7539 22.4844C17.1662 21.7687 16.3617 21.2825 15.4588 21.158C15.3734 19.2514 14.7308 17.4922 13.6808 16.2605C14.3428 15.9808 14.9567 15.5987 15.4999 15.1283C17.6471 16.1568 18.9123 17.9078 19.1648 20.211V20.2113ZM15.9322 2.37503C16.4472 2.37486 16.948 2.54435 17.357 2.85729C17.7661 3.17023 18.0607 3.6092 18.1952 4.10634C18.3298 4.60348 18.2969 5.13111 18.1016 5.60767C17.9062 6.08423 17.5594 6.48317 17.1146 6.74284C16.7874 6.05716 16.3432 5.4337 15.8021 4.90042C15.2437 4.35272 14.5947 3.90578 13.8839 3.57937C14.0874 3.21466 14.3845 2.9108 14.7445 2.69911C15.1046 2.48742 15.5145 2.37555 15.9322 2.37503ZM2.33843 4.71878C2.33829 4.19953 2.51058 3.69493 2.82827 3.28421C3.14595 2.87348 3.59104 2.57988 4.09365 2.44949C4.59627 2.31911 5.12795 2.35932 5.60523 2.56382C6.08252 2.76832 6.47838 3.12553 6.73067 3.57937C6.01984 3.90574 5.37087 4.35269 4.81249 4.90042C4.27132 5.43366 3.82718 6.0571 3.49999 6.74278C3.14681 6.53586 2.85383 6.24024 2.65009 5.88523C2.44635 5.53021 2.33891 5.12811 2.33843 4.71878ZM5.46985 5.56886C6.65907 4.39944 8.33198 3.78128 10.3072 3.78128C12.2824 3.78128 13.9553 4.39944 15.1446 5.56892C16.257 6.66286 16.8697 8.1921 16.8697 9.87503C16.8697 11.558 16.257 13.0872 15.1446 14.1811C13.9553 15.3506 12.2825 15.9688 10.3072 15.9688C8.3318 15.9688 6.65907 15.3506 5.46985 14.1812C4.35733 13.0872 3.74468 11.558 3.74468 9.87503C3.74468 8.1921 4.35733 6.66286 5.46985 5.56886ZM1.40743 20.812L1.4495 20.2111C1.7021 17.9077 2.96708 16.1567 5.11436 15.1281C5.66002 15.6006 6.2769 15.984 6.94219 16.264C5.8953 17.496 5.25194 19.2603 5.1661 21.1577C4.26241 21.2824 3.45698 21.7696 2.86934 22.4862C2.47925 22.3989 2.12716 22.1895 1.86424 21.8884C1.60133 21.5874 1.4413 21.2103 1.40743 20.812ZM5.62495 28.625C4.07409 28.625 2.81245 27.1531 2.81245 25.3438C2.81245 23.5345 4.07409 22.0625 5.62495 22.0625C7.17581 22.0625 8.43745 23.5345 8.43745 25.3438C8.43745 27.1531 7.17581 28.625 5.62495 28.625ZM10.3124 27.6875C9.82933 27.6859 9.35359 27.5688 8.92495 27.3459C9.22336 26.7208 9.37716 26.0365 9.37495 25.3438C9.37495 23.2005 7.94661 21.4267 6.10471 21.1608C6.19483 19.3326 6.85161 17.6616 7.90624 16.5977C8.68919 16.8073 9.49668 16.9111 10.3072 16.9063C11.1204 16.9112 11.9306 16.8067 12.716 16.5957C13.774 17.6593 14.4308 19.3237 14.5204 21.1609C12.6784 21.4266 11.2499 23.2004 11.2499 25.3438C11.2477 26.0365 11.4015 26.7208 11.6999 27.3459C11.2713 27.5688 10.7956 27.6859 10.3124 27.6875ZM14.9999 28.625C13.4491 28.625 12.1874 27.1531 12.1874 25.3438C12.1874 23.5345 13.4491 22.0625 14.9999 22.0625C16.5508 22.0625 17.8124 23.5345 17.8124 25.3438C17.8124 27.1531 16.5508 28.625 14.9999 28.625ZM18.7499 25.3438H20.6249C20.7493 25.3438 20.8685 25.2944 20.9564 25.2065C21.0443 25.1186 21.0937 24.9993 21.0937 24.875V22.0625C21.0937 21.9382 21.0443 21.819 20.9564 21.7311C20.8685 21.6432 20.7493 21.5938 20.6249 21.5938H19.9896C20.0756 21.352 20.1277 21.0995 20.1447 20.8434C20.1461 20.8223 20.1461 20.8011 20.1447 20.7799L20.136 20.6563H22.0312V26.2813H18.6554C18.7182 25.9727 18.7498 25.6587 18.7499 25.3438ZM28.5937 26.2813H22.9687V20.6563H28.5937V26.2813Z" fill="#322B27" fill-opacity="0.86"/>
<path d="M24.375 25.3437H27.1875C27.2674 25.3437 27.346 25.3233 27.4157 25.2844C27.4855 25.2455 27.5442 25.1894 27.5862 25.1214C27.6282 25.0534 27.6522 24.9758 27.6557 24.896C27.6593 24.8162 27.6425 24.7368 27.6067 24.6653L26.2005 21.8528C26.1615 21.775 26.1017 21.7095 26.0276 21.6637C25.9536 21.618 25.8683 21.5938 25.7812 21.5938C25.6942 21.5938 25.6089 21.618 25.5348 21.6637C25.4608 21.7095 25.4009 21.775 25.362 21.8528L23.9557 24.6653C23.92 24.7368 23.9031 24.8162 23.9067 24.896C23.9103 24.9758 23.9342 25.0534 23.9762 25.1214C24.0183 25.1894 24.0769 25.2455 24.1467 25.2844C24.2165 25.3233 24.2951 25.3437 24.375 25.3437ZM25.7812 23.1107L26.429 24.4062H25.1334L25.7812 23.1107Z" fill="#322B27" fill-opacity="0.86"/>
</svg>
