<svg width="30" height="31" viewBox="0 0 30 31" fill="none" xmlns="http://www.w3.org/2000/svg">
<path d="M14.5 18.5001C14.224 18.5001 14 18.2761 14 18.0002V7.00024C14 6.72424 14.224 6.50024 14.5 6.50024C14.776 6.50024 15 6.72424 15 7.00024V18.0002C15 18.2761 14.776 18.5001 14.5 18.5001Z" fill="#322B27" fill-opacity="0.86"/>
<path d="M21.5354 15.6391C21.4074 15.6391 21.2794 15.5901 21.1814 15.4931C20.9864 15.2981 20.9864 14.9811 21.1814 14.7861C24.8834 11.0831 24.8834 5.05719 21.1814 1.35422C20.9864 1.15922 20.9864 0.842224 21.1814 0.647225C21.3764 0.452227 21.6934 0.452227 21.8884 0.647225C25.9814 4.74019 25.9814 11.3991 21.8884 15.4931C21.7914 15.5901 21.6634 15.6391 21.5354 15.6391Z" fill="#322B27" fill-opacity="0.86"/>
<path d="M19.7698 13.8712C19.6418 13.8712 19.5138 13.8222 19.4158 13.7252C19.2208 13.5302 19.2208 13.2132 19.4158 13.0182C22.1438 10.2892 22.1438 5.85026 19.4158 3.12229C19.2208 2.92729 19.2208 2.61029 19.4158 2.41529C19.6108 2.22029 19.9278 2.22029 20.1228 2.41529C23.2407 5.53327 23.2407 10.6062 20.1228 13.7262C20.0248 13.8222 19.8978 13.8712 19.7698 13.8712Z" fill="#322B27" fill-opacity="0.86"/>
<path d="M18.0002 12.1041C17.8722 12.1041 17.7442 12.0551 17.6462 11.9581C17.4513 11.7631 17.4513 11.4461 17.6462 11.2511C18.4972 10.4001 18.9652 9.2721 18.9652 8.07011C18.9652 6.86811 18.4962 5.74012 17.6462 4.88913C17.4513 4.69413 17.4513 4.37714 17.6462 4.18214C17.8412 3.98714 18.1582 3.98714 18.3532 4.18214C19.3922 5.22113 19.9652 6.60212 19.9652 8.07011C19.9652 9.53809 19.3922 10.9191 18.3532 11.9581C18.2562 12.0551 18.1282 12.1041 18.0002 12.1041Z" fill="#322B27" fill-opacity="0.86"/>
<path d="M7.43097 15.6391C7.30297 15.6391 7.17497 15.5901 7.07697 15.4931C5.09299 13.5081 4 10.8712 4 8.06919C4 5.26621 5.09299 2.63123 7.07697 0.646249C7.27197 0.45125 7.58897 0.45125 7.78397 0.646249C7.97897 0.841247 7.97897 1.15824 7.78397 1.35324C5.98798 3.14823 4.99999 5.53421 4.99999 8.06919C4.99999 10.6042 5.98798 12.9891 7.78397 14.7851C7.97897 14.9801 7.97897 15.2971 7.78397 15.4921C7.68697 15.5901 7.55897 15.6391 7.43097 15.6391Z" fill="#322B27" fill-opacity="0.86"/>
<path d="M9.19638 13.8712C9.06839 13.8712 8.94039 13.8222 8.84239 13.7252C5.72441 10.6062 5.72441 5.53329 8.84239 2.41432C9.03739 2.21932 9.35438 2.21932 9.54938 2.41432C9.74438 2.60931 9.74438 2.92631 9.54938 3.12131C6.8214 5.85029 6.8214 10.2893 9.54938 13.0172C9.74438 13.2122 9.74438 13.5292 9.54938 13.7242C9.45238 13.8222 9.32438 13.8712 9.19638 13.8712Z" fill="#322B27" fill-opacity="0.86"/>
<path d="M10.9659 12.104C10.8379 12.104 10.7099 12.055 10.6119 11.9581C8.46791 9.81407 8.46791 6.3261 10.6119 4.18311C10.8069 3.98812 11.1239 3.98812 11.3189 4.18311C11.5139 4.37811 11.5139 4.69511 11.3189 4.89011C9.5649 6.64409 9.5649 9.49707 11.3189 11.2511C11.5139 11.4461 11.5139 11.7631 11.3189 11.9581C11.2219 12.055 11.0939 12.104 10.9659 12.104Z" fill="#322B27" fill-opacity="0.86"/>
<path d="M14 20V19C14 18.725 14.225 18.5 14.5 18.5C14.775 18.5 15 18.725 15 19V20H16V19C16 18.173 15.327 17.5 14.5 17.5C13.673 17.5 13 18.173 13 19V20H14Z" fill="#322B27" fill-opacity="0.86"/>
<path d="M27.4998 29.4999H2.49998C1.12099 29.4999 0 28.3789 0 26.9999V22C0 20.621 1.12099 19.5 2.49998 19.5H4.49996C4.77596 19.5 4.99996 19.724 4.99996 20C4.99996 20.276 4.77596 20.5 4.49996 20.5H2.49998C1.67299 20.5 0.999992 21.173 0.999992 22V26.9999C0.999992 27.8269 1.67299 28.4999 2.49998 28.4999H27.4998C28.3268 28.4999 28.9998 27.8269 28.9998 26.9999V22C28.9998 21.173 28.3268 20.5 27.4998 20.5H6.99994C6.72394 20.5 6.49995 20.276 6.49995 20C6.49995 19.724 6.72394 19.5 6.99994 19.5H27.4998C28.8788 19.5 29.9998 20.621 29.9998 22V26.9999C29.9998 28.3789 28.8788 29.4999 27.4998 29.4999Z" fill="#322B27" fill-opacity="0.86"/>
<path d="M10.5 25.5C10.7761 25.5 11 25.2761 11 25C11 24.7239 10.7761 24.5 10.5 24.5C10.2239 24.5 10 24.7239 10 25C10 25.2761 10.2239 25.5 10.5 25.5Z" fill="#322B27" fill-opacity="0.86"/>
<path d="M13.5 25.5C13.7761 25.5 14 25.2761 14 25C14 24.7239 13.7761 24.5 13.5 24.5C13.2239 24.5 13 24.7239 13 25C13 25.2761 13.2239 25.5 13.5 25.5Z" fill="#322B27" fill-opacity="0.86"/>
<path d="M16.5 25.5C16.7761 25.5 17 25.2761 17 25C17 24.7239 16.7761 24.5 16.5 24.5C16.2239 24.5 16 24.7239 16 25C16 25.2761 16.2239 25.5 16.5 25.5Z" fill="#322B27" fill-opacity="0.86"/>
<path d="M19.5 25.5C19.7761 25.5 20 25.2761 20 25C20 24.7239 19.7761 24.5 19.5 24.5C19.2239 24.5 19 24.7239 19 25C19 25.2761 19.2239 25.5 19.5 25.5Z" fill="#322B27" fill-opacity="0.86"/>
<path d="M22.5 25.5C22.7761 25.5 23 25.2761 23 25C23 24.7239 22.7761 24.5 22.5 24.5C22.2239 24.5 22 24.7239 22 25C22 25.2761 22.2239 25.5 22.5 25.5Z" fill="#322B27" fill-opacity="0.86"/>
<path d="M25.5 25.5C25.7761 25.5 26 25.2761 26 25C26 24.7239 25.7761 24.5 25.5 24.5C25.2239 24.5 25 24.7239 25 25C25 25.2761 25.2239 25.5 25.5 25.5Z" fill="#322B27" fill-opacity="0.86"/>
<path d="M26.5 30.5C26.224 30.5 26 30.276 26 30V29C26 28.724 26.224 28.5 26.5 28.5C26.776 28.5 27 28.724 27 29V30C27 30.276 26.776 30.5 26.5 30.5Z" fill="#322B27" fill-opacity="0.86"/>
<path d="M3.5 30.5C3.224 30.5 3 30.276 3 30V29C3 28.724 3.224 28.5 3.5 28.5C3.77599 28.5 3.99999 28.724 3.99999 29V30C3.99999 30.276 3.77599 30.5 3.5 30.5Z" fill="#322B27" fill-opacity="0.86"/>
<path d="M7.49997 25.5H4.5C4.224 25.5 4 25.276 4 25C4 24.724 4.224 24.5 4.5 24.5H7.49997C7.77597 24.5 7.99997 24.724 7.99997 25C7.99997 25.276 7.77597 25.5 7.49997 25.5Z" fill="#322B27" fill-opacity="0.86"/>
</svg>
