<svg width="11" height="25" viewBox="0 0 11 25" fill="none" xmlns="http://www.w3.org/2000/svg">
<g clip-path="url(#clip0_56_33281)">
<path d="M0.519023 17.1171C0.489727 17.2188 0.519023 17.3301 0.593181 17.4043C0.647884 17.4589 0.724102 17.4902 0.800243 17.4902C0.827556 17.4902 0.854946 17.4863 0.880352 17.4785L3.61076 16.6992L1.29829 14.3867L0.519023 17.1171Z" fill="#C29A6A"/>
<path d="M0.801356 17.5C0.721248 17.5 0.645106 17.4687 0.588496 17.4121C0.510371 17.334 0.481074 17.2207 0.512279 17.1153L1.29742 14.3691L3.63339 16.7051L0.883372 17.4883C0.856059 17.4961 0.82867 17.5 0.801356 17.5ZM1.30528 14.4043L0.529902 17.1192C0.502513 17.2188 0.529902 17.3242 0.602153 17.3965C0.654872 17.4492 0.727122 17.4785 0.801356 17.4785C0.826762 17.4785 0.854075 17.4746 0.879481 17.4668L3.59433 16.6915L1.30528 14.4043Z" fill="#C29A6A"/>
<path d="M10.2344 9.0078L8.99414 7.76756C8.82622 7.60155 8.60748 7.50977 8.37112 7.50977C8.13675 7.50977 7.91603 7.60155 7.75002 7.76566L7.12891 8.38669L9.61136 10.8691L10.2325 10.248C10.3985 10.082 10.4883 9.8613 10.4883 9.62692C10.4903 9.39255 10.3985 9.17381 10.2344 9.0078Z" fill="#C29A6A"/>
<path d="M9.6133 10.8828L7.11719 8.38669L7.74409 7.75978C7.91209 7.59178 8.13472 7.5 8.37108 7.5C8.60934 7.5 8.83205 7.59178 8.99806 7.75978L10.2383 9.00002C10.4062 9.16794 10.498 9.39064 10.498 9.62692C10.498 9.86526 10.4062 10.0879 10.2383 10.2539L9.6133 10.8828ZM7.1445 8.38669L9.6133 10.8555L10.2265 10.2422C10.3906 10.0781 10.4805 9.8613 10.4805 9.62891C10.4805 9.39651 10.3906 9.17969 10.2265 9.01566L8.98631 7.77344C8.82228 7.60941 8.60347 7.51953 8.37108 7.51953C8.13869 7.51953 7.92186 7.60941 7.75783 7.77344L7.1445 8.38669Z" fill="#C29A6A"/>
<path d="M1.62891 13.887L6.71527 8.80054L9.19841 11.2837L4.11205 16.3701L1.62891 13.887Z" fill="#C29A6A"/>
<path d="M4.1113 16.3848L1.61328 13.8867L6.71483 8.78711L9.21094 11.2832L4.1113 16.3848ZM1.64258 13.8867L4.1113 16.3555L9.18355 11.2832L6.71483 8.8145L1.64258 13.8867Z" fill="#C29A6A"/>
</g>
<defs>
<clipPath id="clip0_56_33281">
<rect width="10" height="10" fill="white" transform="translate(0.5 7.5)"/>
</clipPath>
</defs>
</svg>
