<svg width="13" height="14" viewBox="0 0 13 14" fill="none" xmlns="http://www.w3.org/2000/svg">
<g clip-path="url(#clip0_31_7479)">
<path d="M10.6934 2.07422H10.5748V2.4043C10.5748 2.67366 10.476 2.93199 10.3002 3.12245C10.1244 3.31292 9.88591 3.41992 9.63727 3.41992C9.38863 3.41992 9.15017 3.31292 8.97435 3.12245C8.79854 2.93199 8.69977 2.67366 8.69977 2.4043V2.07422H3.9682V2.4043C3.9682 2.67366 3.86943 2.93199 3.69362 3.12245C3.5178 3.31292 3.27934 3.41992 3.0307 3.41992C2.78206 3.41992 2.54361 3.31292 2.36779 3.12245C2.19198 2.93199 2.0932 2.67366 2.0932 2.4043V2.07422H1.97461C1.53949 2.07422 1.12219 2.26147 0.814512 2.59479C0.506835 2.92811 0.333984 3.38018 0.333984 3.85156L0.333984 11.7227C0.333984 12.194 0.506835 12.6461 0.814512 12.9794C1.12219 13.3127 1.53949 13.5 1.97461 13.5H10.6934C11.1285 13.5 11.5458 13.3127 11.8535 12.9794C12.1611 12.6461 12.334 12.194 12.334 11.7227V3.85156C12.334 3.38018 12.1611 2.92811 11.8535 2.59479C11.5458 2.26147 11.1285 2.07422 10.6934 2.07422ZM11.3965 11.0879C11.3965 11.2713 11.3631 11.4529 11.2984 11.6223C11.2336 11.7917 11.1386 11.9457 11.0189 12.0754C10.8992 12.205 10.7571 12.3079 10.6007 12.3781C10.4443 12.4483 10.2767 12.4844 10.1074 12.4844H2.56055C2.39126 12.4844 2.22364 12.4483 2.06724 12.3781C1.91085 12.3079 1.76874 12.205 1.64904 12.0754C1.52934 11.9457 1.43439 11.7917 1.36961 11.6223C1.30483 11.4529 1.27148 11.2713 1.27148 11.0879V6.26367C1.27148 5.8933 1.4073 5.5381 1.64904 5.27621C1.89079 5.01432 2.21867 4.86719 2.56055 4.86719H10.1074C10.2767 4.86719 10.4443 4.90331 10.6007 4.97349C10.7571 5.04367 10.8992 5.14653 11.0189 5.27621C11.1386 5.40588 11.2336 5.55983 11.2984 5.72926C11.3631 5.89869 11.3965 6.08028 11.3965 6.26367V11.0879Z" fill="#B7946C"/>
<path d="M9.05078 1.13477V2.4043C9.05078 2.75487 9.31311 3.03906 9.63672 3.03906C9.96032 3.03906 10.2227 2.75487 10.2227 2.4043V1.13477C10.2227 0.784194 9.96032 0.5 9.63672 0.5C9.31311 0.5 9.05078 0.784194 9.05078 1.13477Z" fill="#B7946C"/>
<path d="M2.44531 1.13477V2.4043C2.44531 2.75487 2.70765 3.03906 3.03125 3.03906C3.35485 3.03906 3.61719 2.75487 3.61719 2.4043V1.13477C3.61719 0.784194 3.35485 0.5 3.03125 0.5C2.70765 0.5 2.44531 0.784194 2.44531 1.13477Z" fill="#B7946C"/>
<path d="M3.81445 5.94629H2.75977C2.50088 5.94629 2.29102 6.17364 2.29102 6.4541V7.59668C2.29102 7.87714 2.50088 8.10449 2.75977 8.10449H3.81445C4.07334 8.10449 4.2832 7.87714 4.2832 7.59668V6.4541C4.2832 6.17364 4.07334 5.94629 3.81445 5.94629Z" fill="#B7946C"/>
<path d="M6.86133 5.94629H5.80664C5.54776 5.94629 5.33789 6.17364 5.33789 6.4541V7.59668C5.33789 7.87714 5.54776 8.10449 5.80664 8.10449H6.86133C7.12021 8.10449 7.33008 7.87714 7.33008 7.59668V6.4541C7.33008 6.17364 7.12021 5.94629 6.86133 5.94629Z" fill="#B7946C"/>
<path d="M9.9082 5.94629H8.85352C8.59463 5.94629 8.38477 6.17364 8.38477 6.4541V7.59668C8.38477 7.87714 8.59463 8.10449 8.85352 8.10449H9.9082C10.1671 8.10449 10.377 7.87714 10.377 7.59668V6.4541C10.377 6.17364 10.1671 5.94629 9.9082 5.94629Z" fill="#B7946C"/>
<path d="M3.81445 9.24707H2.75977C2.50088 9.24707 2.29102 9.47443 2.29102 9.75488V10.8975C2.29102 11.1779 2.50088 11.4053 2.75977 11.4053H3.81445C4.07334 11.4053 4.2832 11.1779 4.2832 10.8975V9.75488C4.2832 9.47443 4.07334 9.24707 3.81445 9.24707Z" fill="#B7946C"/>
<path d="M6.86133 9.24707H5.80664C5.54776 9.24707 5.33789 9.47443 5.33789 9.75488V10.8975C5.33789 11.1779 5.54776 11.4053 5.80664 11.4053H6.86133C7.12021 11.4053 7.33008 11.1779 7.33008 10.8975V9.75488C7.33008 9.47443 7.12021 9.24707 6.86133 9.24707Z" fill="#B7946C"/>
<path d="M9.9082 9.24707H8.85352C8.59463 9.24707 8.38477 9.47443 8.38477 9.75488V10.8975C8.38477 11.1779 8.59463 11.4053 8.85352 11.4053H9.9082C10.1671 11.4053 10.377 11.1779 10.377 10.8975V9.75488C10.377 9.47443 10.1671 9.24707 9.9082 9.24707Z" fill="#B7946C"/>
</g>
<defs>
<clipPath id="clip0_31_7479">
<rect width="12" height="13" fill="white" transform="translate(0.333984 0.5)"/>
</clipPath>
</defs>
</svg>
