<svg width="11" height="11" viewBox="0 0 11 11" fill="none" xmlns="http://www.w3.org/2000/svg">
<path d="M3.89136 5.3668C4.3476 5.70335 4.89905 5.88459 5.46588 5.88459C6.03272 5.88459 6.58415 5.70333 7.04041 5.3668C7.74329 4.86584 8.16013 4.05529 8.1582 3.19227C8.1582 2.23025 7.64521 1.34181 6.81198 0.860574C5.97881 0.379809 4.9529 0.379809 4.11966 0.860574C3.28649 1.34183 2.77344 2.2303 2.77344 3.19227C2.77152 4.05525 3.18847 4.86588 3.89136 5.3668Z" fill="#C29A6A"/>
<path d="M10.4261 9.48991C10.2252 7.88363 9.25787 6.47452 7.83094 5.71008C7.62181 5.91296 7.38526 6.08557 7.12854 6.22307C6.09343 6.79038 4.84053 6.79038 3.80545 6.22307C3.54872 6.08557 3.31218 5.91298 3.10305 5.71008C1.67609 6.4745 0.708823 7.88363 0.507838 9.48991C0.473704 9.74424 0.552069 10.001 0.723223 10.1923C0.894375 10.3875 1.14101 10.4995 1.40015 10.5H9.53384C9.79298 10.4995 10.0396 10.3875 10.2108 10.1923C10.3819 10.001 10.4603 9.74424 10.4261 9.48991Z" fill="#C29A6A"/>
</svg>
