<svg width="12" height="10" viewBox="0 0 12 10" fill="none" xmlns="http://www.w3.org/2000/svg">
<path d="M12 8.00001H0V5.42858C0 4.95501 0.383571 4.57143 0.857143 4.57143H11.1429C11.6164 4.57143 12 4.95501 12 5.42858V8.00001Z" fill="#C29A6A"/>
<path d="M11.1423 8.64287V9.7143H10.2852V8.64287H11.1423Z" fill="#C29A6A"/>
<path d="M1.71456 8.64287V9.7143H0.857422V8.64287H1.71456Z" fill="#C29A6A"/>
<path d="M0.857422 3.92858V1.56158C0.857422 1.33486 1.03399 1.14415 1.26028 1.13429C3.30971 1.04386 4.24142 0.285721 6.00028 0.285721C7.73685 0.285721 9.07014 1.02458 10.7493 1.13044C10.973 1.14458 11.1431 1.33786 11.1431 1.56201V3.92858H9.85742V2.85715C9.85742 2.62058 9.66542 2.42858 9.42885 2.42858H7.28599C7.04942 2.42858 6.85742 2.62058 6.85742 2.85715V3.92858H5.14314V2.85715C5.14314 2.62058 4.95114 2.42858 4.71456 2.42858H2.57171C2.33514 2.42858 2.14314 2.62058 2.14314 2.85715V3.92858H0.857422Z" fill="#C29A6A"/>
</svg>
