<svg width="12" height="9" viewBox="0 0 12 9" fill="none" xmlns="http://www.w3.org/2000/svg">
<path d="M5.79877 4.59869C5.88937 4.65927 6.06022 4.65927 6.18654 4.57048L10.7843 0.725891C10.5594 0.582966 10.2978 0.5 10.0199 0.5H1.92972C1.64934 0.5 1.38646 0.579568 1.16406 0.719161L5.79877 4.59869Z" fill="#B7946C"/>
<path d="M6.83282 5.41147C6.56412 5.6007 6.26125 5.69363 5.96355 5.69363C5.67777 5.69363 5.39664 5.60769 5.1559 5.43917L0.54446 1.58105C0.515855 1.69505 0.5 1.8129 0.5 1.93136V7.06855C0.5 7.85848 1.1415 8.49994 1.93142 8.49994H10.0216C10.8115 8.49994 11.453 7.85848 11.453 7.06855V1.93136C11.453 1.81351 11.4391 1.69716 11.412 1.58478L6.83282 5.41147Z" fill="#B7946C"/>
</svg>
