<svg width="14" height="14" viewBox="0 0 14 14" fill="none" xmlns="http://www.w3.org/2000/svg">
<path d="M12.9598 7.4657C13.0462 7.87308 13.0916 8.2953 13.0916 8.7281C13.0916 9.16229 13.0459 9.58612 12.959 9.99467C13.5516 9.88391 13.9994 9.3647 13.9994 8.73964C13.9994 8.11148 13.5523 7.5865 12.9598 7.4657Z" fill="#B7946C"/>
<path d="M1.0396 7.4657C0.447113 7.5865 0 8.11148 0 8.73964C0 9.3647 0.447861 9.88391 1.04045 9.99467C0.953506 9.58612 0.907791 9.16229 0.907791 8.7281C0.907791 8.2953 0.953186 7.87308 1.0396 7.4657Z" fill="#B7946C"/>
<path d="M6.52911 2.13773C6.75822 2.14595 6.96053 1.97452 6.97014 1.7453C6.97975 1.51074 6.79219 1.31741 6.55945 1.31795C6.54353 1.31795 6.53125 1.30406 6.53125 1.28815C6.53157 1.03276 6.73804 0.820312 6.99973 0.820312H7.01276C7.26109 0.820312 7.46617 1.01941 7.46809 1.26743C7.4697 1.485 7.40678 1.69617 7.28619 1.87711L6.77766 2.63974C6.85115 2.63728 6.92528 2.63589 6.9994 2.63589C7.24881 2.63589 7.4949 2.65096 7.73662 2.68054L7.96872 2.33212C8.18362 2.00945 8.29439 1.63272 8.28809 1.24446C8.27687 0.552109 7.70511 0 7.01276 0H6.99973C6.2795 0 5.71094 0.584579 5.71094 1.28868C5.71094 1.74669 6.07516 2.12128 6.52911 2.13773Z" fill="#B7946C"/>
<path d="M7.00041 3.45621C4.09354 3.45621 1.72852 5.82123 1.72852 8.7281C1.72852 11.6351 4.09354 14 7.00041 14C9.90729 14 12.2723 11.6351 12.2723 8.7281C12.2723 5.82123 9.90729 3.45621 7.00041 3.45621ZM4.24371 8.57622C4.16734 8.67042 4.05113 8.7281 3.92509 8.7281C3.57678 8.7281 3.38976 8.32115 3.60947 8.05605C3.9189 7.68263 4.35416 7.46847 4.80373 7.46847C5.2534 7.46847 5.68866 7.68263 5.99809 8.05605C6.21706 8.32051 6.03227 8.7281 5.68246 8.7281C5.55643 8.7281 5.44022 8.67042 5.36374 8.57622C5.20886 8.39079 5.01009 8.28879 4.80383 8.28879C4.59747 8.28879 4.3987 8.3909 4.24371 8.57622ZM7.00041 12.2427C5.8053 12.2427 4.83299 11.2704 4.83299 10.0752C4.83299 9.84877 5.0166 9.66505 5.24315 9.66505H8.75767C8.98422 9.66505 9.16783 9.84877 9.16783 10.0752C9.16783 11.2704 8.19553 12.2427 7.00041 12.2427ZM10.0757 8.7281C9.94958 8.7281 9.83348 8.67042 9.757 8.57622C9.60213 8.39079 9.40335 8.28879 9.1971 8.28879C8.99063 8.28879 8.79196 8.39079 8.63698 8.57622C8.56061 8.67042 8.4444 8.7281 8.31836 8.7281C7.97005 8.7281 7.78302 8.32115 8.00273 8.05605C8.31216 7.68263 8.74742 7.46847 9.1971 7.46847C9.64667 7.46847 10.0819 7.68263 10.3914 8.05605C10.6103 8.32051 10.4254 8.7281 10.0757 8.7281Z" fill="#B7946C"/>
</svg>
