<svg width="118" height="64" viewBox="0 0 118 64" fill="none" xmlns="http://www.w3.org/2000/svg">
<g clip-path="url(#clip0_15_1854)">
<path d="M117.802 23.8078H98.4668C98.3583 23.8078 98.2706 23.8963 98.2706 24.0056C98.2706 24.1147 98.3583 24.203 98.4668 24.203H117.606V54.7546H80.6027V55.15H117.802C117.911 55.15 118 55.0615 118 54.9523V24.0056C118 23.8963 117.911 23.8078 117.802 23.8078H117.802ZM36.9011 54.7548H0.392401V24.2032H20.2869C20.395 24.2032 20.4831 24.1148 20.4831 24.0058C20.4831 23.8964 20.395 23.808 20.2869 23.808H0.196356C0.0878928 23.808 0 23.8964 0 24.0058V54.9524C0 55.0616 0.0878928 55.1501 0.196356 55.1501H36.9013V54.7548H36.9011Z" fill="#FEFEFE"/>
<path d="M9.17017 35.0463L10.7655 30.9094L12.5219 35.0463H9.17017ZM5.625 39.1021H9.00887V38.5343H7.8164L8.97677 35.533H12.7152L13.6014 37.6421C14.0688 38.794 14.955 39.1021 16.4215 39.1021H18.5166V38.5343H18.1941C17.469 38.5343 17.1305 38.291 16.8245 37.5608L12.5542 27.5024H11.4262L7.49428 37.6421C7.23652 38.291 6.99482 38.5343 6.17293 38.5343H5.625V39.1021ZM26.0616 34.8028V28.3135H26.545C28.3338 28.3135 29.3651 29.352 29.3651 31.5582C29.3651 33.7645 28.3338 34.8028 26.545 34.8028H26.0616ZM21.6301 39.1021H27.3507V38.5343H26.0616V35.3708H27.1896C30.9765 35.3708 32.5878 33.7647 32.5878 31.5582C32.5878 29.352 30.9763 27.7457 27.1896 27.7457H21.6299V28.3135H22.2745C22.6773 28.3135 22.9996 28.6381 22.9996 29.0437V37.8042C22.9996 38.2097 22.6773 38.5343 22.2745 38.5343H21.6299V39.1021H21.6301ZM36.9907 39.1021H42.7114V38.5343H41.4223V33.0184H41.664C42.1635 33.0184 42.4374 33.3428 42.8725 34.3162L44.0811 37.1554C44.6773 38.6154 45.5475 39.4266 47.304 39.4266C48.0613 39.4266 48.6576 39.2319 49.0444 38.9885C49.27 38.8588 49.4634 38.7129 49.6406 38.5343L49.3989 38.2097C49.3183 38.291 49.2379 38.3719 49.1411 38.4207C48.964 38.5343 48.7545 38.6154 48.5126 38.6154C48.0132 38.6154 47.6265 38.291 47.3848 37.7232L46.0956 34.6408C45.4994 33.278 44.3391 32.6939 43.2755 32.6128V32.5317L45.9343 28.9624C46.305 28.4596 46.7401 28.3135 47.4653 28.3135H48.1904V27.7457H44.5646V28.3135H45.7733L42.631 32.5317H41.4225V28.3135H42.7116V27.7457H36.9909V28.3135H37.6354C38.0383 28.3135 38.3606 28.6381 38.3606 29.0437V37.8042C38.3606 38.2097 38.0383 38.5343 37.6354 38.5343H36.9909V39.1021H36.9907ZM55.3328 35.0463L56.9281 30.9094L58.6845 35.0463H55.3328ZM51.7876 39.1021H55.1715V38.5343H53.979L55.1394 35.533H58.8778L59.764 37.6421C60.2314 38.794 61.1176 39.1021 62.5841 39.1021H64.6792V38.5343H64.3567C63.6316 38.5343 63.2931 38.291 62.9871 37.5608L58.7168 27.5024H57.5888L53.6569 37.6421C53.3991 38.291 53.1574 38.5343 52.3355 38.5343H51.7876V39.1021ZM69.8876 38.5343C70.1614 38.1936 70.4031 37.6582 70.6127 36.8956C70.951 35.5978 71.3378 33.3427 71.3378 29.5304V28.3135H74.1579C74.5607 28.3135 74.883 28.6381 74.883 29.0437V37.8042C74.883 38.2097 74.5607 38.5343 74.1579 38.5343H69.8876ZM68.4372 42.5901H68.9206L68.4372 40.2377C68.2762 39.4264 68.4372 39.1021 69.6297 39.1021H77.4613C78.6538 39.1021 78.831 39.4266 78.67 40.2377L78.1866 42.5901H78.67L80.2008 39.1021V38.5343H77.9449V28.3135H79.234V27.7457H69.3236V28.3135H69.9682C70.371 28.3135 70.6933 28.6381 70.6933 29.0437V29.5304C70.6933 33.5538 70.3066 35.7925 69.9198 37.0418C69.6942 37.7718 69.4364 38.2747 69.1625 38.5343H66.9066V39.1021L68.4374 42.5901H68.4372ZM83.7977 39.1021H89.5184V38.5343H88.2293V37.723L92.4996 30.2604V37.8042C92.4996 38.2097 92.1773 38.5343 91.7745 38.5343H91.1299V39.1021H96.8506V38.5343H95.5615V28.3135H96.8506V27.7457H91.1299V28.3135H91.7745C92.1773 28.3135 92.4996 28.6381 92.4996 29.0437V29.2058L88.2293 36.6686V28.3134H89.5184V27.7456H83.7977V28.3134H84.4423C84.8451 28.3134 85.1674 28.638 85.1674 29.0435V37.804C85.1674 38.2096 84.8451 38.5342 84.4423 38.5342H83.7977V39.1019V39.1021ZM99.9642 38.291C100.109 38.518 100.303 38.729 100.544 38.9074C100.947 39.2157 101.56 39.5077 102.462 39.5077C103.832 39.5077 104.799 38.7938 105.443 37.5608L106.168 36.1819C106.732 35.1274 107.055 34.803 107.699 34.803H107.941V38.5345H106.652V39.1023H112.372V38.5345H111.728C111.325 38.5345 111.003 38.2099 111.003 37.8043V29.0439C111.003 28.6383 111.325 28.3137 111.728 28.3137H112.372V27.7459H107.055C103.251 27.7459 101.817 29.2059 101.817 31.2339C101.817 33.2619 103.235 34.4624 106.249 34.6408V34.8028C105.781 34.7867 105.33 34.8353 104.895 34.9489C104.17 35.1273 103.348 35.5005 102.945 36.263L102.22 37.6419C101.962 38.1448 101.576 38.453 101.173 38.453C100.867 38.453 100.657 38.3719 100.48 38.2583C100.367 38.2097 100.286 38.1286 100.206 38.0473L99.9642 38.2908V38.291ZM107.699 34.3162C106.168 34.3162 105.04 33.1969 105.04 31.3148C105.04 29.4329 106.168 28.3135 107.699 28.3135H107.941V34.3162H107.699Z" fill="#FEFEFE"/>
<path d="M31.8166 48.0075V44.4204H33.9554V44.9777H32.4507V48.0075H31.8164H31.8166ZM35.2757 46.2038C35.2757 45.6363 35.4543 45.182 35.8116 44.8409C36.169 44.4998 36.626 44.3292 37.183 44.3292C37.7467 44.3292 38.2078 44.4998 38.5669 44.8409C38.9259 45.1821 39.1054 45.6365 39.1054 46.2038C39.1054 46.7612 38.9251 47.2163 38.5645 47.5692C38.2039 47.9222 37.7434 48.0987 37.1832 48.0987C36.6295 48.0987 36.1732 47.9222 35.8141 47.5692C35.4552 47.2163 35.2757 46.7612 35.2757 46.2038ZM35.9651 46.2038C35.9651 46.5889 36.0792 46.9054 36.3072 47.1537C36.5355 47.4019 36.8289 47.5262 37.1878 47.5262C37.5502 47.5262 37.8455 47.4019 38.0736 47.1537C38.3018 46.9055 38.4157 46.5889 38.4157 46.2038C38.4157 45.8288 38.3024 45.5164 38.076 45.2665C37.8495 45.0166 37.5533 44.8915 37.1877 44.8915C36.8254 44.8915 36.531 45.0166 36.3046 45.2665C36.078 45.5164 35.9648 45.8288 35.9648 46.2038H35.9651ZM44.0037 44.8765L43.5206 45.2615C43.4334 45.1399 43.3153 45.048 43.1658 44.9854C43.0165 44.9229 42.8647 44.8917 42.7104 44.8917C42.3481 44.8917 42.052 45.0167 41.8222 45.2667C41.5925 45.5166 41.4775 45.829 41.4775 46.2039C41.4775 46.5958 41.5873 46.914 41.8072 47.1589C42.0269 47.4038 42.3198 47.5264 42.6854 47.5264C43.0611 47.5264 43.3495 47.3878 43.5509 47.1109L44.0592 47.4707C43.727 47.8896 43.2674 48.099 42.6804 48.099C42.1232 48.099 41.6671 47.9225 41.3113 47.5695C40.9557 47.2167 40.778 46.7615 40.778 46.2041C40.778 45.6401 40.9601 45.1867 41.3241 44.8437C41.6881 44.5007 42.1502 44.3294 42.7106 44.3294C42.9588 44.3294 43.2029 44.3758 43.4427 44.4687C43.6826 44.5616 43.8697 44.6976 44.0039 44.8766L44.0037 44.8765ZM46.5015 48.0075V44.9777H45.4094V44.4204H48.2276V44.9777H47.1355V48.0075H46.5014H46.5015ZM49.8698 48.0075V44.4204H52.2301V44.9777H50.5041V45.8897H52.1396V46.4267H50.5041V47.4401H52.3208V48.0075H49.87H49.8698ZM54.1691 48.0075V44.4204H55.5581C55.8601 44.4204 56.1175 44.4946 56.3307 44.6432C56.5436 44.7919 56.6502 45.0182 56.6502 45.3222C56.6502 45.518 56.5949 45.6835 56.4841 45.8188C56.3734 45.9537 56.2224 46.05 56.031 46.1074V46.1176C56.2626 46.1481 56.4488 46.2375 56.5897 46.3862C56.7306 46.5348 56.801 46.7273 56.801 46.9639C56.801 47.1497 56.7633 47.3127 56.6879 47.4528C56.6125 47.593 56.5093 47.7018 56.3784 47.7796C56.2475 47.8572 56.1051 47.9145 55.9506 47.9517C55.7963 47.9889 55.6302 48.0075 55.4526 48.0075H54.1692H54.1691ZM54.8033 44.9474V45.8796H55.367C55.5785 45.8796 55.7395 45.8374 55.8501 45.753C55.9608 45.6686 56.0162 45.5486 56.0162 45.3933C56.0162 45.2345 55.9592 45.1204 55.8451 45.0513C55.731 44.9821 55.5532 44.9474 55.3117 44.9474H54.8035H54.8033ZM54.8033 46.4269V47.4705H55.372C55.9022 47.4705 56.1671 47.2917 56.1671 46.9335C56.1671 46.7512 56.1051 46.6211 55.981 46.5434C55.8568 46.4658 55.6623 46.4269 55.3972 46.4269H54.8035H54.8033ZM58.4838 46.2039C58.4838 45.6365 58.6624 45.1821 59.0197 44.841C59.377 44.4999 59.8341 44.3294 60.3911 44.3294C60.9548 44.3294 61.4159 44.4999 61.7749 44.841C62.134 45.1823 62.3135 45.6366 62.3135 46.2039C62.3135 46.7614 62.1332 47.2165 61.7726 47.5694C61.412 47.9224 60.9515 48.0989 60.3912 48.0989C59.8375 48.0989 59.3813 47.9224 59.0222 47.5694C58.6633 47.2165 58.4838 46.7614 58.4838 46.2039ZM59.1732 46.2039C59.1732 46.5891 59.2873 46.9055 59.5153 47.1539C59.7436 47.4021 60.037 47.5264 60.3959 47.5264C60.7582 47.5264 61.0536 47.4021 61.2817 47.1539C61.5098 46.9057 61.6238 46.5891 61.6238 46.2039C61.6238 45.829 61.5105 45.5166 61.284 45.2667C61.0576 45.0167 60.7614 44.8917 60.3958 44.8917C60.0334 44.8917 59.7391 45.0167 59.5126 45.2667C59.286 45.5166 59.1729 45.829 59.1729 46.2039H59.1732ZM64.1569 48.0077V44.4206H64.7912V47.045H64.8061L66.477 44.4206H67.1615V48.0077H66.5274V45.4035H66.5172L64.8515 48.0077H64.1569ZM65.6366 44.1369C65.4184 44.1369 65.2356 44.0743 65.0879 43.9494C64.9403 43.8244 64.853 43.6523 64.8262 43.4326L65.1635 43.3669C65.1802 43.4817 65.2313 43.5729 65.3168 43.6405C65.4024 43.708 65.509 43.7417 65.6364 43.7417C65.7639 43.7417 65.8705 43.708 65.9559 43.6405C66.0415 43.573 66.0927 43.4817 66.1094 43.3669L66.4516 43.4326C66.4214 43.6523 66.3334 43.8244 66.1875 43.9494C66.0415 44.0745 65.8577 44.1369 65.6364 44.1369H65.6366ZM71.3704 48.8234V47.4402H71.6724C72.0347 47.0248 72.2158 46.3255 72.2158 45.3426V44.4206H74.707V47.4402H75.1046V48.8234H74.5359V48.0077H71.939V48.8234H71.3704ZM72.3869 47.4402H74.0729V44.9778H72.8298V45.4085C72.8298 46.334 72.6822 47.0111 72.3869 47.4401V47.4402ZM76.6664 46.2039C76.6664 45.6365 76.845 45.1821 77.2023 44.841C77.5596 44.4999 78.0167 44.3294 78.5737 44.3294C79.1373 44.3294 79.5985 44.4999 79.9575 44.841C80.3166 45.1823 80.4961 45.6366 80.4961 46.2039C80.4961 46.7614 80.3158 47.2165 79.9552 47.5694C79.5946 47.9224 79.1341 48.0989 78.5738 48.0989C78.0201 48.0989 77.5638 47.9224 77.2048 47.5694C76.8459 47.2165 76.6664 46.7614 76.6664 46.2039ZM77.3558 46.2039C77.3558 46.5891 77.4699 46.9055 77.6979 47.1539C77.9262 47.4021 78.2196 47.5264 78.5785 47.5264C78.9408 47.5264 79.2361 47.4021 79.4643 47.1539C79.6924 46.9057 79.8064 46.5891 79.8064 46.2039C79.8064 45.829 79.6931 45.5166 79.4666 45.2667C79.2402 45.0167 78.944 44.8917 78.5784 44.8917C78.216 44.8917 77.9216 45.0167 77.6952 45.2667C77.4686 45.5166 77.3555 45.829 77.3555 46.2039H77.3558ZM82.3395 48.0077V44.4206H83.331L84.257 46.9689H84.2721L85.1879 44.4206H86.1845V48.0077H85.5554V45.1248H85.5453L84.4633 48.0077H84.0204L82.9534 45.1248H82.9432V48.0077H82.3394H82.3395Z" fill="#FEFEFE"/>
<path d="M54.9658 63.9324C54.9493 63.8828 54.9742 63.8284 55.0229 63.8089C55.6872 63.5445 57.1789 62.3878 58.6215 61.2693L59.0136 60.9653C59.4742 60.6091 59.9598 60.2922 60.3745 60.0294C61.2871 59.4506 62.2605 58.8835 63.2681 58.3438C63.9928 57.9556 64.7762 57.6757 65.5335 57.4049C65.8466 57.2931 66.7032 56.971 66.8144 56.928C67.1451 56.8006 67.4871 56.6688 67.8212 56.5345C67.8298 56.5309 70.6028 55.0568 71.4202 54.7052C69.2034 54.8451 64.7698 55.8067 64.7595 55.8139C64.7473 55.8224 63.5296 56.6542 62.6329 57.276C62.5512 57.3795 61.9966 58.0538 60.8847 58.7261C59.7968 59.3838 57.9486 60.1584 55.3211 60.113C55.2762 60.1121 55.2379 60.0809 55.2273 60.0369C55.2169 59.9932 55.2373 59.9478 55.277 59.9266C55.6247 59.7425 56.2803 59.3717 56.6074 59.1554C58.0982 58.1682 59.3086 57.8951 60.7102 57.5786C60.873 57.5418 61.0392 57.5044 61.2092 57.465C61.633 57.3667 62.0833 57.2587 62.5209 57.1134C63.1148 56.7018 63.8486 56.1983 64.2812 55.9021C64.0375 55.9575 60.9983 56.6523 59.7381 56.8891C59.46 56.9413 59.1689 57.0003 58.861 57.0631C57.8276 57.2732 56.6579 57.5107 55.5089 57.5771C55.5007 57.5786 54.7592 57.6735 54.3873 57.7449C54.0736 57.805 53.8029 57.8571 53.6677 57.8697C51.4016 58.0802 49.2511 57.9879 47.2757 57.5954C44.6206 57.0679 41.9528 56.0436 39.5606 54.6335C39.5135 54.6059 39.4978 54.5453 39.5252 54.4982C39.5858 54.3952 39.7442 54.4923 39.8152 54.5296C40.2534 54.7602 40.7903 54.7273 41.2686 54.7761C42.1447 54.8654 43.037 54.8876 43.9004 54.9094C44.5209 54.925 45.1628 54.9411 45.7954 54.9818C47.6289 55.0994 49.3751 55.4452 50.9851 56.0097C51.286 56.1151 51.5905 56.2264 51.8852 56.334C53.0476 56.7589 54.25 57.1978 55.4952 57.3802C56.6313 57.3149 57.7944 57.0786 58.8219 56.8698C59.1308 56.8069 59.4226 56.7477 59.7021 56.6952C60.9008 56.47 62.1348 56.19 63.3343 55.9161C62.4855 55.8011 60.7278 55.5299 59.49 55.115C57.5457 54.7022 55.9531 54.1499 54.6211 53.426C53.5203 52.8277 52.5209 52.0358 51.5545 51.2702C51.2382 51.0197 50.9109 50.7606 50.5866 50.5132C50.5866 50.5132 49.3926 49.6039 48.7181 49.3292C48.6679 49.3086 48.6436 49.2512 48.6637 49.2005C48.6841 49.15 48.7413 49.1255 48.7918 49.1461C49.0193 49.2385 49.31 49.2824 49.5911 49.3249C49.7815 49.3538 49.9787 49.3836 50.152 49.4285C51.3971 49.7509 52.3834 50.1287 53.2558 50.6171C54.5307 51.3319 55.7014 52.2326 56.7912 53.0941C56.954 53.2229 57.1256 53.3682 57.307 53.5221C57.885 54.0116 58.5705 54.3875 59.2294 54.7529C59.5797 54.9471 60.0042 55.0759 60.3885 55.1804C60.7708 55.2843 61.1616 55.3501 61.5508 55.42C62.1908 55.5347 63.7266 55.7683 63.8525 55.7822C63.8631 55.7835 67.0648 55.0721 68.6693 54.8192C68.2157 54.7077 66.8236 54.3235 66.8169 54.3195C66.386 54.3547 65.9163 54.3299 65.3822 54.2433C64.7166 54.1357 64.0197 53.9317 63.3108 53.6372C62.4679 53.287 61.5907 52.9673 60.6295 52.6596C60.5827 52.6447 60.5536 52.5973 60.5621 52.549C60.5704 52.5005 60.6128 52.4654 60.6616 52.4665C60.8334 52.4709 60.9963 52.4155 61.1686 52.3568C61.2523 52.3283 61.339 52.2989 61.4275 52.2762C62.397 52.0292 63.4319 52.1673 64.3412 52.6647C64.694 52.8578 65.0373 53.0749 65.3693 53.2848C65.6948 53.491 66.0314 53.7039 66.3747 53.8925C66.4929 53.9573 66.6713 54.133 66.8169 54.1215C66.8388 54.1197 69.1407 54.7295 69.153 54.7326C69.1622 54.7347 71.7345 54.3945 73.2608 54.468C72.9147 54.3291 71.9768 53.9399 71.9726 53.9373C71.83 53.9436 70.4508 53.9829 69.2543 53.1984C68.0283 52.3946 66.4148 50.1023 66.3467 50.0052C66.32 49.9671 66.3232 49.9156 66.3543 49.8814C66.3855 49.8472 66.4361 49.8394 66.476 49.8624C66.7357 50.0138 67.0017 50.1644 67.259 50.3104C67.9457 50.699 68.6554 51.1011 69.319 51.5573C69.9544 51.9941 70.549 52.4991 71.1239 52.9874C71.2424 53.0879 71.3608 53.1885 71.4798 53.2886C71.6644 53.4436 71.8486 53.5991 72.032 53.7552C72.0421 53.7561 73.8484 54.4902 73.8508 54.491C75.385 54.5756 76.9128 54.855 78.4239 55.4182C78.5415 55.4622 78.4762 55.6487 78.3557 55.6037C76.265 54.8243 74.1366 54.5953 71.9997 54.6765C71.8257 54.7471 67.8889 56.7366 67.8859 56.7382C67.8574 56.767 67.6442 56.9832 67.5625 57.0604C67.24 57.3671 66.9133 57.6873 66.5977 57.9972C65.4106 59.162 64.1837 60.3664 62.7593 61.2467C61.9016 61.7769 60.9246 62.2588 59.8554 62.6788C59.1292 62.9644 58.3699 63.1454 57.6355 63.3202C57.3003 63.4002 56.9535 63.4827 56.614 63.5742C56.0662 63.7218 55.5663 63.86 55.0858 63.9964C55.0356 64.0107 54.983 63.9829 54.9661 63.9327L54.9658 63.9324Z" fill="#FEFEFE"/>
<path fill-rule="evenodd" clip-rule="evenodd" d="M58.4414 0L59.2787 12.1587L59.2801 12.1786C59.1573 12.1734 59.0336 12.1714 58.9092 12.1731C58.785 12.1749 58.6619 12.18 58.5396 12.1885V12.1876L58.4414 0Z" fill="#FEFEFE"/>
<path fill-rule="evenodd" clip-rule="evenodd" d="M56.4141 0.171326C57.0987 4.17501 57.7833 8.17886 58.4677 12.1825L58.4697 12.1937C58.221 12.2133 57.976 12.2461 57.7359 12.2922L57.7353 12.2866C57.2949 8.2482 56.8545 4.20969 56.4141 0.171483V0.171326Z" fill="#FEFEFE"/>
<path fill-rule="evenodd" clip-rule="evenodd" d="M54.4297 0.558228C55.5092 4.47264 56.5888 8.38737 57.6683 12.3019L57.6694 12.3059C57.4254 12.3553 57.1862 12.418 56.9527 12.4934L56.9496 12.4792C56.1096 8.50567 55.2695 4.53179 54.4297 0.558228Z" fill="#FEFEFE"/>
<path fill-rule="evenodd" clip-rule="evenodd" d="M51.9492 1.37106C53.5936 5.08121 55.2379 8.7912 56.8823 12.5013L56.888 12.5144C56.6524 12.5931 56.4224 12.6846 56.1994 12.7883L56.1978 12.7842C54.7816 8.97978 53.3655 5.17566 51.9492 1.37122V1.37106Z" fill="#FEFEFE"/>
<path fill-rule="evenodd" clip-rule="evenodd" d="M50.1484 2.22001C52.1441 5.75098 54.1401 9.28196 56.1357 12.8128L56.1382 12.8172C55.9141 12.9239 55.6971 13.0428 55.4876 13.173L55.4819 13.1612C53.704 9.514 51.9262 5.86692 50.1484 2.21985V2.22001Z" fill="#FEFEFE"/>
<path fill-rule="evenodd" clip-rule="evenodd" d="M47.9805 3.58558C50.4616 6.78975 52.9427 9.99361 55.4238 13.1978L55.4325 13.2089C55.2231 13.342 55.0219 13.4863 54.8291 13.6412L54.8266 13.6375C52.5447 10.2868 50.2624 6.93613 47.9805 3.58542V3.58558Z" fill="#FEFEFE"/>
<path fill-rule="evenodd" clip-rule="evenodd" d="M46.4492 4.82892C49.2233 7.77956 51.9972 10.7302 54.7711 13.6808L54.7744 13.6844C54.5829 13.8416 54.4001 14.0094 54.227 14.1865L54.2184 14.1761C51.6288 11.0604 49.0389 7.94461 46.4492 4.82892Z" fill="#FEFEFE"/>
<path fill-rule="evenodd" clip-rule="evenodd" d="M44.6797 6.65906C47.8431 9.1817 51.0064 11.7042 54.1698 14.2268L54.1801 14.235C54.0088 14.4138 53.8474 14.6023 53.6963 14.7993L53.6928 14.7962C50.6885 12.0839 47.6841 9.37154 44.6797 6.65891V6.65906Z" fill="#FEFEFE"/>
<path fill-rule="evenodd" clip-rule="evenodd" d="M43.4844 8.23187C46.8726 10.4384 50.2609 12.645 53.6492 14.8515L53.653 14.8539C53.5045 15.0521 53.3664 15.2585 53.24 15.4728L53.2286 15.4644C49.9807 13.0536 46.7325 10.6428 43.4845 8.23187H43.4844Z" fill="#FEFEFE"/>
<path fill-rule="evenodd" clip-rule="evenodd" d="M42.1875 10.4522C45.8564 12.1435 49.5258 13.8346 53.1948 15.5259L53.2068 15.5314C53.0831 15.7455 52.9707 15.9674 52.871 16.1958L52.8666 16.1933C49.307 14.2796 45.7473 12.366 42.1877 10.4522H42.1875Z" fill="#FEFEFE"/>
<path fill-rule="evenodd" clip-rule="evenodd" d="M41.3945 12.2885C45.2099 13.6115 49.0253 14.9344 52.8407 16.2575L52.8451 16.2589C52.7483 16.4862 52.6635 16.72 52.5917 16.9592L52.5787 16.9539C48.8505 15.399 45.1227 13.8437 41.3945 12.2885Z" fill="#FEFEFE"/>
<path fill-rule="evenodd" clip-rule="evenodd" d="M40.6527 14.8058C44.6206 15.5442 48.589 16.2829 52.557 17.0214L52.5712 17.024C52.5026 17.2611 52.447 17.5036 52.4043 17.7504L52.4002 17.7495C48.4843 16.7683 44.5683 15.7869 40.6523 14.8058H40.6527Z" fill="#FEFEFE"/>
<path fill-rule="evenodd" clip-rule="evenodd" d="M40.3242 16.8136C44.3459 17.1484 48.3677 17.4829 52.3892 17.8177L52.3951 17.8182C52.3559 18.0612 52.3298 18.3086 52.3169 18.5595L52.3059 18.5579C48.3119 17.9765 44.318 17.3952 40.3242 16.8136Z" fill="#FEFEFE"/>
<path fill-rule="evenodd" clip-rule="evenodd" d="M40.207 18.857C44.2417 18.7806 48.2762 18.7045 52.3108 18.6281L52.3119 18.6279C52.3069 18.7512 52.3049 18.8755 52.3068 19.0004L52.3077 19.057H44.9015L40.207 18.8568V18.857Z" fill="#FEFEFE"/>
<path fill-rule="evenodd" clip-rule="evenodd" d="M77.791 18.9626L72.8032 19.057H65.6901C65.692 18.9779 65.6923 18.8987 65.6912 18.819C65.6897 18.6938 65.6842 18.5694 65.6758 18.4459L65.6956 18.4467C69.7274 18.6187 73.7593 18.7906 77.791 18.9626Z" fill="#FEFEFE"/>
<path fill-rule="evenodd" clip-rule="evenodd" d="M77.6101 16.3091C73.6331 16.9983 69.6562 17.6875 65.6794 18.3767L65.6683 18.3786C65.6489 18.1284 65.6163 17.8816 65.5703 17.6398L65.5761 17.6392C69.5875 17.1958 73.5988 16.7523 77.6099 16.3091H77.6101Z" fill="#FEFEFE"/>
<path fill-rule="evenodd" clip-rule="evenodd" d="M77.2262 14.3109C73.3379 15.3977 69.4494 16.4846 65.5611 17.5714L65.5573 17.5725C65.5081 17.3267 65.4459 17.086 65.3711 16.8508L65.385 16.8478C69.332 16.0022 73.2791 15.1564 77.2262 14.3109Z" fill="#FEFEFE"/>
<path fill-rule="evenodd" clip-rule="evenodd" d="M76.4186 11.8145C72.7334 13.47 69.0483 15.1252 65.363 16.7808L65.3501 16.7865C65.2718 16.5491 65.1811 16.3177 65.0781 16.0932L65.0822 16.0916C68.8611 14.6658 72.6397 13.2401 76.4185 11.8145H76.4186Z" fill="#FEFEFE"/>
<path fill-rule="evenodd" clip-rule="evenodd" d="M75.5752 10.0004C72.0679 12.0097 68.5607 14.019 65.0533 16.0284L65.0489 16.0308C64.9429 15.8053 64.8248 15.5868 64.6953 15.3757L64.7072 15.3699C68.3299 13.5801 71.9525 11.7902 75.5752 10.0004Z" fill="#FEFEFE"/>
<path fill-rule="evenodd" clip-rule="evenodd" d="M74.2186 7.81598C71.0361 10.314 67.8537 12.8117 64.671 15.3097L64.66 15.3183C64.5278 15.1075 64.3843 14.9051 64.2305 14.711L64.2342 14.7085C67.5625 12.411 70.8905 10.1135 74.2188 7.81598H74.2186Z" fill="#FEFEFE"/>
<path fill-rule="evenodd" clip-rule="evenodd" d="M72.9862 6.27594C70.0554 9.06875 67.1244 11.8614 64.1935 14.6542L64.1902 14.6573C64.0339 14.4645 63.8673 14.2806 63.6914 14.1063L63.7015 14.0977C66.7965 11.4905 69.8914 8.88314 72.9862 6.27594Z" fill="#FEFEFE"/>
<path fill-rule="evenodd" clip-rule="evenodd" d="M71.1679 4.49429C68.6621 7.67901 66.1564 10.8636 63.651 14.0484L63.6427 14.0588C63.4651 13.8865 63.2778 13.7238 63.082 13.5718L63.0853 13.5682C65.7796 10.5435 68.4737 7.51898 71.168 4.49429H71.1679Z" fill="#FEFEFE"/>
<path fill-rule="evenodd" clip-rule="evenodd" d="M69.6063 3.29297C67.4148 6.70408 65.2229 10.1152 63.0312 13.5266L63.0288 13.5302C62.832 13.3807 62.6269 13.2417 62.4141 13.1145L62.4225 13.103C64.8169 9.8331 67.2117 6.56304 69.6063 3.29313V3.29297Z" fill="#FEFEFE"/>
<path fill-rule="evenodd" clip-rule="evenodd" d="M67.4004 1.98639C65.7203 5.68022 64.0405 9.37436 62.3607 13.0682L62.3554 13.0803C62.1424 12.9559 61.9222 12.8426 61.6953 12.7422L61.6978 12.7378C63.5986 9.15393 65.4993 5.57024 67.4004 1.98655V1.98639Z" fill="#FEFEFE"/>
<path fill-rule="evenodd" clip-rule="evenodd" d="M65.5771 1.18689C64.2629 5.02804 62.9488 8.86934 61.6347 12.7105L61.6332 12.7147C61.4074 12.6171 61.1753 12.5319 60.9375 12.4596L60.9428 12.4466C62.4875 8.69331 64.0321 4.94018 65.5771 1.18689Z" fill="#FEFEFE"/>
<path fill-rule="evenodd" clip-rule="evenodd" d="M63.0734 0.441018C62.3398 4.43592 61.606 8.43098 60.8726 12.4259L60.87 12.4402C60.6345 12.3711 60.3937 12.315 60.1484 12.2721L60.1497 12.2679C61.1241 8.32555 62.0989 4.38305 63.0735 0.440704L63.0734 0.441018Z" fill="#FEFEFE"/>
<path fill-rule="evenodd" clip-rule="evenodd" d="M61.0817 0.108093L60.0845 12.2547L60.084 12.2607C59.8426 12.221 59.5968 12.1948 59.3477 12.1819L59.3492 12.1706L61.0817 0.108093Z" fill="#FEFEFE"/>
<path fill-rule="evenodd" clip-rule="evenodd" d="M23.2357 23.8078H38.302C38.4106 23.8078 38.4985 23.8966 38.4985 24.0053V24.0055C38.4985 24.1142 38.4106 24.203 38.302 24.203H23.2357C23.127 24.203 23.0391 24.1142 23.0391 24.0055V24.0053C23.0391 23.8966 23.127 23.8078 23.2357 23.8078Z" fill="#FEFEFE"/>
<path fill-rule="evenodd" clip-rule="evenodd" d="M42.1067 23.8078H57.1731C57.2817 23.8078 57.3696 23.8966 57.3696 24.0053V24.0055C57.3696 24.1142 57.2817 24.203 57.1731 24.203H42.1067C41.9981 24.203 41.9102 24.1142 41.9102 24.0055V24.0053C41.9102 23.8966 41.9981 23.8078 42.1067 23.8078Z" fill="#FEFEFE"/>
<path fill-rule="evenodd" clip-rule="evenodd" d="M60.9778 23.8078H76.0442C76.1528 23.8078 76.2407 23.8966 76.2407 24.0053V24.0055C76.2407 24.1142 76.1528 24.203 76.0442 24.203H60.9778C60.8691 24.203 60.7812 24.1142 60.7812 24.0055V24.0053C60.7812 23.8966 60.8691 23.8078 60.9778 23.8078Z" fill="#FEFEFE"/>
<path fill-rule="evenodd" clip-rule="evenodd" d="M79.8489 23.8078H94.9152C95.0239 23.8078 95.1118 23.8966 95.1118 24.0053V24.0055C95.1118 24.1142 95.0239 24.203 94.9152 24.203H79.8489C79.7402 24.203 79.6523 24.1142 79.6523 24.0055V24.0053C79.6523 23.8966 79.7402 23.8078 79.8489 23.8078Z" fill="#FEFEFE"/>
<path fill-rule="evenodd" clip-rule="evenodd" d="M32.4975 22.2513H47.5637C47.6724 22.2513 47.7603 22.3401 47.7603 22.4488V22.449C47.7603 22.5577 47.6724 22.6465 47.5637 22.6465H32.4975C32.3887 22.6465 32.3008 22.5577 32.3008 22.449V22.4488C32.3008 22.3401 32.3887 22.2513 32.4975 22.2513Z" fill="#FEFEFE"/>
<path fill-rule="evenodd" clip-rule="evenodd" d="M51.3684 22.2513H66.4348C66.5435 22.2513 66.6314 22.3401 66.6314 22.4488V22.449C66.6314 22.5577 66.5435 22.6465 66.4348 22.6465H51.3684C51.2598 22.6465 51.1719 22.5577 51.1719 22.449V22.4488C51.1719 22.3401 51.2598 22.2513 51.3684 22.2513Z" fill="#FEFEFE"/>
<path fill-rule="evenodd" clip-rule="evenodd" d="M70.2395 22.2513H85.3059C85.4146 22.2513 85.5024 22.3401 85.5024 22.4488V22.449C85.5024 22.5577 85.4146 22.6465 85.3059 22.6465H70.2395C70.1309 22.6465 70.043 22.5577 70.043 22.449V22.4488C70.043 22.3401 70.1309 22.2513 70.2395 22.2513Z" fill="#FEFEFE"/>
<path fill-rule="evenodd" clip-rule="evenodd" d="M42.1068 20.7018H57.1731C57.2817 20.7018 57.3696 20.7906 57.3696 20.8994V20.8995C57.3696 21.0083 57.2817 21.097 57.1731 21.097H42.1068C41.9981 21.097 41.9102 21.0083 41.9102 20.8995V20.8994C41.9102 20.7906 41.9981 20.7018 42.1068 20.7018Z" fill="#FEFEFE"/>
<path fill-rule="evenodd" clip-rule="evenodd" d="M60.9778 20.7018H76.0442C76.1528 20.7018 76.2407 20.7906 76.2407 20.8994V20.8995C76.2407 21.0083 76.1528 21.097 76.0442 21.097H60.9778C60.8691 21.097 60.7812 21.0083 60.7812 20.8995V20.8994C60.7812 20.7906 60.8691 20.7018 60.9778 20.7018Z" fill="#FEFEFE"/>
</g>
<defs>
<clipPath id="clip0_15_1854">
<rect width="118" height="64" fill="white"/>
</clipPath>
</defs>
</svg>
