<svg width="48" height="84" viewBox="0 0 48 84" fill="none" xmlns="http://www.w3.org/2000/svg">
<path d="M4.5 56C1.01979 52.2355 -0.75652 45.4507 3.00014 37C6.99885 28.0048 16.0088 24.5 20.0088 24V26C15.5187 27.8293 7.33618 33.276 8.49234 42.4394C9.69923 41.8382 11.0602 41.5 12.5001 41.5C17.4707 41.5 21.5001 45.5294 21.5001 50.5C21.5001 55.4706 17.4707 59.5 12.5001 59.5C12.1572 59.5 11.8187 59.4808 11.4858 59.4435C11.4932 59.4628 11.5006 59.4817 11.5079 59.5C11.3627 59.4672 11.2142 59.4291 11.0628 59.3858C8.52298 58.9782 5.85898 58.0625 4.5 56Z" fill="#C29A6A"/>
<path d="M30.0977 56C26.6174 52.2355 24.8411 45.4507 28.5978 37C32.5965 28.0048 41.6065 24.5 45.6065 24V26C41.1164 27.8293 32.9338 33.276 34.09 42.4394C35.2969 41.8382 36.6578 41.5 38.0978 41.5C43.0683 41.5 47.0978 45.5294 47.0978 50.5C47.0978 55.4706 43.0683 59.5 38.0978 59.5C37.7548 59.5 37.4164 59.4808 37.0834 59.4435C37.0909 59.4628 37.0982 59.4817 37.1056 59.5C36.9603 59.4672 36.8118 59.4291 36.6604 59.3858C34.1206 58.9782 31.4566 58.0625 30.0977 56Z" fill="#C29A6A"/>
</svg>
