<svg width="100" height="100" viewBox="0 0 100 100" fill="none" xmlns="http://www.w3.org/2000/svg">
<rect width="100" height="100" rx="50" fill="#F2F6FD"/>
<path d="M42.9267 49.4139C44.9341 50.8947 47.3605 51.6922 49.8546 51.6922C52.3486 51.6922 54.775 50.8947 56.7825 49.4139C59.8752 47.2097 61.7093 43.6433 61.7008 39.846C61.7008 35.6131 59.4436 31.7039 55.7774 29.5865C52.1114 27.4712 47.5974 27.4712 43.9312 29.5865C40.2653 31.7041 38.0078 35.6133 38.0078 39.846C37.9994 43.6431 39.834 47.2099 42.9267 49.4139Z" fill="#CFD9E9"/>
<path d="M71.6751 67.5551C70.7908 60.4874 66.5346 54.2873 60.2561 50.9238C59.336 51.8165 58.2952 52.576 57.1656 53.181C52.6111 55.6771 47.0983 55.6771 42.544 53.181C41.4144 52.576 40.3736 51.8166 39.4534 50.9238C33.1748 54.2873 28.9188 60.4874 28.0345 67.5551C27.8843 68.6741 28.2291 69.8037 28.9822 70.6456C29.7352 71.5045 30.8204 71.9974 31.9607 71.9995H67.7489C68.8891 71.9974 69.9743 71.5045 70.7274 70.6456C71.4804 69.8037 71.8252 68.6741 71.6751 67.5551Z" fill="#CFD9E9"/>
</svg>
