<svg width="10" height="18" viewBox="0 0 10 18" fill="none" xmlns="http://www.w3.org/2000/svg">
<path d="M2.96725 10.0957C2.90342 10.0957 1.49917 10.0957 0.860871 10.0957C0.520446 10.0957 0.414062 9.96808 0.414062 9.64894C0.414062 8.79787 0.414062 7.92553 0.414062 7.07447C0.414062 6.73404 0.541722 6.62766 0.860871 6.62766H2.96725C2.96725 6.56383 2.96725 5.32979 2.96725 4.75532C2.96725 3.90426 3.11619 3.09574 3.54172 2.35106C3.98853 1.58511 4.62683 1.07447 5.43534 0.776596C5.96725 0.585106 6.49917 0.5 7.07364 0.5H9.15874C9.45661 0.5 9.58427 0.62766 9.58427 0.925532V3.35106C9.58427 3.64894 9.45661 3.7766 9.15874 3.7766C8.58427 3.7766 8.00981 3.7766 7.43534 3.79787C6.86087 3.79787 6.563 4.07447 6.563 4.67021C6.54172 5.30851 6.563 5.92553 6.563 6.58511H9.03108C9.37151 6.58511 9.49917 6.71277 9.49917 7.05319V9.62766C9.49917 9.96809 9.39279 10.0745 9.03108 10.0745C8.26513 10.0745 6.62683 10.0745 6.563 10.0745V17.0106C6.563 17.3723 6.45662 17.5 6.07364 17.5C5.18002 17.5 4.30768 17.5 3.41406 17.5C3.09491 17.5 2.96725 17.3723 2.96725 17.0532C2.96725 14.8191 2.96725 10.1596 2.96725 10.0957Z" fill="white"/>
</svg>
