<svg width="18" height="18" viewBox="0 0 18 18" fill="none" xmlns="http://www.w3.org/2000/svg">
<path d="M17.4568 5.49806C17.417 4.59478 17.2709 3.97379 17.0616 3.43569C16.8457 2.86451 16.5135 2.35313 16.0783 1.92802C15.6531 1.49629 15.1383 1.16082 14.5736 0.948331C14.0323 0.739084 13.4144 0.593013 12.511 0.553187C11.6008 0.509989 11.3118 0.5 9.00331 0.5C6.69479 0.5 6.40584 0.509989 5.49902 0.549815C4.59556 0.58964 3.97445 0.735841 3.43638 0.944958C2.86496 1.16082 2.35348 1.49292 1.92829 1.92802C1.49648 2.35313 1.16108 2.86788 0.948417 3.43244C0.73913 3.97379 0.593031 4.59141 0.553198 5.49469C0.509991 6.40471 0.5 6.69361 0.5 9.00169C0.5 11.3098 0.509991 11.5987 0.549824 12.5053C0.589657 13.4086 0.735886 14.0296 0.945173 14.5677C1.16108 15.1389 1.49648 15.6502 1.92829 16.0754C2.35348 16.5071 2.86833 16.8426 3.433 17.055C3.97445 17.2643 4.59219 17.4104 5.49577 17.4502C6.40247 17.4901 6.69155 17.5 9.00006 17.5C11.3086 17.5 11.5975 17.4901 12.5044 17.4502C13.4078 17.4104 14.0289 17.2643 14.567 17.055C15.7097 16.6133 16.6132 15.71 17.055 14.5677C17.2641 14.0263 17.4103 13.4086 17.4502 12.5053C17.49 11.5987 17.5 11.3098 17.5 9.00169C17.5 6.69361 17.4966 6.40471 17.4568 5.49806ZM15.9256 12.4389C15.889 13.2691 15.7495 13.7175 15.6333 14.0164C15.3476 14.757 14.7597 15.3447 14.0189 15.6304C13.72 15.7466 13.2683 15.8861 12.4412 15.9225C11.5443 15.9625 11.2754 15.9724 9.00668 15.9724C6.738 15.9724 6.46565 15.9625 5.57206 15.9225C4.74166 15.8861 4.29325 15.7466 3.9943 15.6304C3.62568 15.4942 3.29015 15.2783 3.0178 14.996C2.73547 14.7204 2.51956 14.3883 2.38332 14.0197C2.26707 13.7208 2.12759 13.2691 2.09113 12.4423C2.05116 11.5456 2.0413 11.2766 2.0413 9.0083C2.0413 6.74005 2.05116 6.46776 2.09113 5.57447C2.12759 4.74423 2.26707 4.2959 2.38332 3.99701C2.51956 3.62833 2.73547 3.29299 3.02118 3.02057C3.29677 2.73828 3.62893 2.52242 3.99768 2.38634C4.29662 2.2701 4.74841 2.13065 5.57544 2.09407C6.47227 2.05424 6.74137 2.04425 9.00993 2.04425C11.282 2.04425 11.551 2.05424 12.4445 2.09407C13.2749 2.13065 13.7234 2.2701 14.0223 2.38634C14.3909 2.52242 14.7265 2.73828 14.9988 3.02057C15.2811 3.29623 15.497 3.62833 15.6333 3.99701C15.7495 4.2959 15.889 4.74747 15.9256 5.57447C15.9654 6.47113 15.9754 6.74005 15.9754 9.0083C15.9754 11.2766 15.9654 11.5422 15.9256 12.4389Z" fill="white"/>
<path d="M9.09638 4.70215C6.67098 4.70215 4.70312 6.66988 4.70312 9.09541C4.70312 11.5209 6.67098 13.4887 9.09638 13.4887C11.5219 13.4887 13.4896 11.5209 13.4896 9.09541C13.4896 6.66988 11.5219 4.70215 9.09638 4.70215ZM9.09638 11.9452C7.52291 11.9452 6.24659 10.669 6.24659 9.09541C6.24659 7.5218 7.52291 6.24561 9.09638 6.24561C10.67 6.24561 11.9462 7.5218 11.9462 9.09541C11.9462 10.669 10.67 11.9452 9.09638 11.9452Z" fill="white"/>
<path d="M14.6363 4.4158C14.6363 4.99595 14.1659 5.46636 13.5857 5.46636C13.0055 5.46636 12.5352 4.99595 12.5352 4.4158C12.5352 3.83551 13.0055 3.36523 13.5857 3.36523C14.1659 3.36523 14.6363 3.83551 14.6363 4.4158Z" fill="white"/>
</svg>
