<svg width="14" height="8" viewBox="0 0 14 8" fill="none" xmlns="http://www.w3.org/2000/svg">
<path d="M13.3913 6.23967C13.0865 5.87796 12.7401 5.55378 12.4051 5.24025C12.286 5.12875 12.1629 5.01348 12.0441 4.89885C11.7033 4.5694 11.6909 4.44563 11.9607 4.07143C12.1474 3.81349 12.3454 3.5552 12.5369 3.30542C12.7105 3.07879 12.8901 2.84443 13.0622 2.60931L13.0975 2.56097C13.4264 2.11103 13.7666 1.64577 13.9477 1.08452C13.9947 0.936448 14.0441 0.718545 13.9312 0.536338C13.8184 0.354282 13.5996 0.29874 13.4448 0.272797C13.3682 0.259959 13.2922 0.258207 13.2216 0.258207L11.0675 0.256683L11.0496 0.256531C10.7239 0.256531 10.5044 0.408263 10.3787 0.72045C10.2586 1.01873 10.1267 1.33637 9.97616 1.63838C9.67663 2.23979 9.2962 2.93247 8.74572 3.51018L8.72245 3.53475C8.65744 3.60381 8.5838 3.68202 8.52996 3.68202C8.52172 3.68202 8.51274 3.68046 8.50256 3.6773C8.38854 3.63337 8.31201 3.3605 8.31547 3.23357C8.31551 3.23182 8.31555 3.23006 8.31555 3.22831L8.31405 0.767002C8.31405 0.758469 8.31343 0.750012 8.31231 0.741555C8.25752 0.341444 8.13613 0.0923799 7.67748 0.0035807C7.6653 0.00118072 7.65285 0 7.64045 0H5.40053C5.0356 0 4.83452 0.146627 4.6455 0.366092C4.59448 0.424758 4.48828 0.54689 4.54092 0.695041C4.59433 0.845401 4.7677 0.877553 4.82415 0.887991C5.10438 0.940715 5.26234 1.11016 5.30708 1.40623C5.38519 1.92036 5.39479 2.46912 5.33729 3.13323C5.32126 3.3178 5.28955 3.46035 5.23729 3.58214C5.22515 3.61056 5.18211 3.70332 5.13822 3.70336C5.12427 3.70336 5.08392 3.69795 5.01043 3.64789C4.83668 3.53021 4.70955 3.36229 4.56134 3.15486C4.05714 2.45045 3.63398 1.67446 3.26751 0.782012C3.13159 0.453481 2.87776 0.269559 2.55244 0.26415C2.19499 0.258778 1.8709 0.256188 1.56181 0.256188C1.22408 0.256188 0.910982 0.259274 0.605241 0.265559C0.343507 0.270131 0.162467 0.347692 0.0672074 0.496262C-0.0282066 0.644946 -0.0220024 0.840259 0.0856659 1.07668C0.947552 2.97087 1.72901 4.34811 2.61957 5.54246C3.24358 6.37819 3.86947 6.95666 4.58909 7.36279C5.34723 7.79154 6.19687 8 7.18646 8C7.29864 8 7.41463 7.99729 7.53158 7.99189C8.10661 7.96419 8.31994 7.75844 8.34692 7.20496C8.35975 6.92211 8.39104 6.62546 8.5317 6.37247C8.62048 6.21308 8.70326 6.21308 8.73046 6.21308C8.78287 6.21308 8.84784 6.23693 8.91763 6.28162C9.04279 6.36238 9.15012 6.47057 9.23809 6.56508C9.3209 6.65487 9.40279 6.74557 9.48476 6.83632C9.66164 7.03216 9.84453 7.23464 10.0356 7.42667C10.4538 7.84728 10.9145 8.03227 11.4436 7.99211H13.4186C13.4228 7.99211 13.4271 7.99196 13.4313 7.9917C13.6281 7.97886 13.7985 7.87093 13.8989 7.69562C14.0232 7.47844 14.0207 7.20138 13.8922 6.9543C13.7463 6.67491 13.5571 6.43621 13.3913 6.23967Z" fill="white"/>
</svg>
