<svg width="12" height="16" viewBox="0 0 12 16" fill="none" xmlns="http://www.w3.org/2000/svg">
<path d="M5.99725 0.5C3.91665 0.5 2.21094 2.18697 2.21094 4.28632C2.21094 6.36692 3.89791 8.07263 5.99725 8.07263C8.07785 8.07263 9.78357 6.38566 9.78357 4.28632C9.78357 2.18697 8.07785 0.5 5.99725 0.5ZM5.99725 6.16073C4.94758 6.16073 4.1041 5.31724 4.1041 4.26757C4.1041 3.2179 4.94758 2.37441 5.99725 2.37441C7.04693 2.37441 7.89041 3.2179 7.89041 4.26757C7.89041 5.31724 7.04693 6.16073 5.99725 6.16073Z" fill="white"/>
<path d="M11.5653 8.65348C11.2279 8.03492 10.4406 7.80999 9.82208 8.16613C7.25413 9.60943 4.74242 9.60943 2.17447 8.16613C1.55592 7.80999 0.768661 8.03492 0.431267 8.65348C0.0751282 9.27203 0.300058 10.0593 0.918615 10.3967C1.79959 10.9028 2.69931 11.2589 3.59903 11.5026L1.78084 13.3208C1.27475 13.8269 1.27475 14.6329 1.78084 15.1202C2.28694 15.6263 3.09293 15.6263 3.58028 15.1202L5.99828 12.7022L8.41627 15.1202C8.92236 15.6263 9.72836 15.6263 10.2157 15.1202C10.7218 14.6141 10.7218 13.8081 10.2157 13.3208L8.39753 11.5026C9.29724 11.2589 10.197 10.9028 11.0779 10.3967C11.6965 10.0405 11.9214 9.27203 11.5653 8.65348Z" fill="white"/>
</svg>
