<svg width="18" height="12" viewBox="0 0 18 12" fill="none" xmlns="http://www.w3.org/2000/svg">
<path d="M4.9898 4.36475C3.69013 4.36475 2.63281 5.42206 2.63281 6.72173C2.63281 8.0214 3.69013 9.07872 4.9898 9.07872C6.28947 9.07872 7.34678 8.0214 7.34678 6.72173C7.34678 5.42206 6.28947 4.36475 4.9898 4.36475ZM4.9898 8.08782C4.23659 8.08782 3.62384 7.47494 3.62384 6.72173C3.62384 5.96852 4.23659 5.35565 4.9898 5.35565C5.74301 5.35565 6.35588 5.96852 6.35588 6.72173C6.35588 7.47494 5.74301 8.08782 4.9898 8.08782Z" fill="white"/>
<path d="M12.9509 4.36475C11.6512 4.36475 10.5938 5.42206 10.5938 6.72173C10.5938 8.0214 11.6512 9.07872 12.9509 9.07872C14.2504 9.07872 15.3079 8.0214 15.3079 6.72173C15.3079 5.42206 14.2505 4.36475 12.9509 4.36475ZM12.9509 8.08782C12.1975 8.08782 11.5848 7.47494 11.5848 6.72173C11.5848 5.96852 12.1975 5.35565 12.9509 5.35565C13.7041 5.35565 14.3168 5.96852 14.3168 6.72173C14.3168 7.47494 13.7041 8.08782 12.9509 8.08782Z" fill="white"/>
<path d="M17.4845 2.24592H13.6899C12.561 1.14938 10.8167 0.5 8.97196 0.5C7.20247 0.5 5.41783 1.16492 4.25604 2.24592H0.546955L1.55766 3.85423C0.907636 4.63139 0.515625 5.63162 0.515625 6.72182C0.515625 9.18988 2.52358 11.1977 4.99152 11.1977C6.26736 11.1977 7.42009 10.6611 8.23609 9.80185L8.97196 11.5L9.70769 9.80185C10.5238 10.6612 11.6765 11.1977 12.9524 11.1977C15.4203 11.1977 17.4283 9.18988 17.4283 6.72182C17.4283 5.65971 17.0561 4.68305 16.4357 3.91469L17.4845 2.24592ZM12.1574 2.31661C10.7681 2.56673 9.59946 3.46015 8.97196 4.67632C8.34873 3.46856 7.19185 2.57929 5.81528 2.32218C6.72281 1.79617 7.84771 1.4909 8.97196 1.4909C10.1492 1.4909 11.2704 1.78931 12.1574 2.31661ZM4.99152 10.2068C3.06991 10.2068 1.50666 8.64342 1.50666 6.72182C1.50666 4.80021 3.06991 3.23696 4.99152 3.23696C6.91312 3.23696 8.47637 4.80021 8.47637 6.72182C8.47637 8.64342 6.91312 10.2068 4.99152 10.2068ZM12.9524 10.2068C11.0308 10.2068 9.46741 8.64342 9.46741 6.72182C9.46741 4.80021 11.0308 3.23696 12.9524 3.23696C14.8739 3.23696 16.4373 4.80021 16.4373 6.72182C16.4373 8.64342 14.874 10.2068 12.9524 10.2068Z" fill="white"/>
<path d="M4.99219 6.20215C4.70569 6.20215 4.47266 6.43518 4.47266 6.72168C4.47266 7.00805 4.70569 7.24108 4.99219 7.24108C5.27869 7.24108 5.51172 7.00805 5.51172 6.72168C5.51172 6.43518 5.27869 6.20215 4.99219 6.20215Z" fill="white"/>
<path d="M12.9766 6.20215C12.6901 6.20215 12.457 6.43518 12.457 6.72168C12.457 7.00805 12.6901 7.24108 12.9766 7.24108C13.2631 7.24108 13.4961 7.00805 13.4961 6.72168C13.4961 6.43518 13.2631 6.20215 12.9766 6.20215Z" fill="white"/>
</svg>
